<?xml version="1.0" encoding="utf-8"?>
<!-- Generator: Adobe Illustrator 27.8.0, SVG Export Plug-In . SVG Version: 6.00 Build 0)  -->
<svg version="1.1" id="Layer_1" xmlns="http://www.w3.org/2000/svg" xmlns:xlink="http://www.w3.org/1999/xlink" x="0px" y="0px"
	 viewBox="0 0 1920 1080" style="enable-background:new 0 0 1920 1080;" xml:space="preserve">
<style type="text/css">
	.st0{fill:#5AA54D;}
	.st1{fill:#CE3F37;}
	.st2{fill:#5FA7D9;}
	.st3{enable-background:new    ;}
	.st4{fill:#020203;}
</style>
<polygon class="st0" points="771.9,610 814.7,483.7 630.2,421.2 747.5,264.1 640.6,184.3 521.9,343.3 405.2,178 296.2,255 
	411.6,418.4 212,480.2 251.4,607.6 448.9,546.5 446.6,753.3 579.9,754.8 582.4,545.9 "/>
<polygon class="st1" points="627.2,468.1 606.4,336.3 414,366.7 444.9,173.1 313.2,152 281.9,347.9 101.8,255.7 41,374.5 
	219.1,465.6 71,613 165.1,707.6 311.6,561.8 405.5,746 524.4,685.4 429.5,499.3 "/>
<polygon class="st2" points="717.4,533.6 676.1,406.7 490.9,467 490.9,271 357.5,271 357.5,469.4 165.1,406.7 123.8,533.6 
	314.1,595.5 191,764.4 298.9,843 420.6,675.9 542.3,843 650.1,764.4 527.1,595.5 "/>
<g class="st3">
	<path class="st4" d="M984.5,776.6H881.3V266.1h103.2V776.6z"/>
</g>
<g class="st3">
	<path class="st4" d="M1404.7,673.5l3.7,90.1c-42.4,11.2-81.1,16.8-116.2,16.8c-39.9,0-76.8-5.2-110.6-15.7
		c-33.9-10.5-63.7-26.5-89.5-48c-25.8-21.5-45.6-48.3-59.4-80.2c-13.8-31.9-20.7-68.6-20.7-110.3c0-41.6,6.2-78.9,18.7-111.8
		c12.5-32.9,30.6-60.7,54.4-83.5c23.8-22.8,52.4-39.9,85.8-51.4c33.4-11.5,70.8-17.2,112.1-17.2c36.9,0,78,7.4,123.3,22.1l-8.2,87.5
		c-33.6-18.4-70.1-27.7-109.5-27.7c-33.4,0-62.8,7.2-88.2,21.5c-25.4,14.3-44.9,34.3-58.5,60c-13.6,25.7-20.4,55.2-20.4,88.6
		c0,34.6,7.2,65.8,21.5,93.4c14.3,27.7,34.7,49.1,61.1,64.3c26.4,15.2,57.3,22.8,92.7,22.8C1330.3,694.8,1366.3,687.7,1404.7,673.5z
		"/>
	<path class="st4" d="M1742.9,693.3v83.4h-305.4V266.1h302.4v84.1h-199.2v123.3h182.4v83.4h-182.4v136.4H1742.9z"/>
</g>
</svg>
