<?xml version="1.0" encoding="utf-8"?>
<!-- Generator: Adobe Illustrator 27.8.0, SVG Export Plug-In . SVG Version: 6.00 Build 0)  -->
<svg version="1.1" id="Layer_1" xmlns="http://www.w3.org/2000/svg" xmlns:xlink="http://www.w3.org/1999/xlink" x="0px" y="0px"
	 viewBox="0 0 100 100" style="enable-background:new 0 0 100 100;" xml:space="preserve">
<style type="text/css">
	.st0{fill:#D37B32;}
</style>
<g>
	<path class="st0" d="M88.1,56c-0.7,0.1-0.8,0.3-0.6,0.9c-0.7,0.6-1.4,0.6-2-0.1c0,0.2-0.1,0.4-0.1,0.6c-0.2-0.2-0.3-0.3-0.4-0.5
		c-0.6,0.2-0.6,0.2-0.8-0.7c-0.4,0.1-0.7,0.1-0.7-0.4c-0.4,0-0.7,0.1-1,0.1c-0.1,0.2-0.2,0.4-0.2,0.6c-0.1,0-0.1,0.1-0.2,0.1
		c-0.1-0.2-0.1-0.3-0.2-0.6c-0.2,0.3-0.2,0.6-0.4,0.6c-0.5,0.2-0.3,0.4-0.1,0.7c0.1,0.2,0.2,0.5,0.1,0.6c-0.2,0.5,0,0.8,0.4,1.3
		c0.1-0.4,0.1-0.7,0.1-1c0.1-0.3,0-0.8,0.5-0.7c0.5,0.1,0.8-0.2,0.9-0.5c0.5,0.1,0.9,0.2,1.3,0.4c0.2,0.1,0.4,0.2,0.5,0.4
		c0.1,0.4-0.3,0.7-0.8,0.7c-0.3,0-0.7,0.1-1,0.3c-0.5,0.2-0.8,0.7-1.5,0.4c-0.5-0.2-1.2,0-1.8,0c0.1,0.2,0.2,0.4,0.3,0.6
		c-0.7-0.3-0.8,0.2-1,0.6c-0.2,0.4-0.5,0.7-0.9,0.5C78,61,77.7,61,77.5,61.5c0.2-0.8,0.3-1.5-0.4-2.1c0,0.1-0.1,0.2-0.1,0.2
		c-0.1,0.3-0.2,0.8-0.7,0.4c0,0-0.2,0.1-0.3,0.2c-0.1,0.1-0.2,0.3-0.3,0.4c0,0-0.1,0-0.1,0c0-0.2,0-0.3,0-0.6c-0.2,0-0.4,0-0.6,0
		c-0.2,0-0.3,0.1-0.5,0.1c0,0.2,0,0.4,0.2,0.5c0.5,0.4,0.2,0.6-0.1,0.9c-0.1,0.2-0.2,0.4-0.3,0.6c-0.5,0.2-1,0.3-1.4,0.5
		c-0.1,0-0.2,0.2-0.3,0.3c-0.3,0.5-0.6,1-0.9,1.6c-0.1-0.3-0.2-0.4-0.4-0.7c-0.3,0.2-0.6,0.5-0.8,0.7l0,0c-0.2-0.3-0.3-0.4-0.6-0.2
		c-0.2,0.2-0.5,0.2-0.8,0.4c0.2,0.3,0.3,0.6,0.5,0.8c0,0,0.3-0.2,0.4-0.2c-0.2,1.1-0.8,1.5-1.9,1.7c-0.2,0-0.5,0.2-0.6,0.4
		c-0.1,0.2,0.1,0.4,0.2,0.7c0.1,0.1,0.2,0.1,0.3,0.2c-0.3,0.2-0.7,0.4-0.9,0.6c-0.2,0-0.5-0.1-0.5-0.1c-0.3,0.4-0.5,0.1-0.8,0
		c-0.2,0-0.4-0.1-0.5,0c-0.8,0.4-1.6,0.9-2.4,1.3c-0.1,0-0.1,0.1-0.1,0.2c-0.3,0.3-0.7,0.7-1,1c-0.4,0.4-0.8,0.8-1,1.2
		c-0.2,0.5-0.3,1.1-0.4,1.7c-0.1,0.4-0.1,0.9-0.2,1.3c-0.2,1.2-0.8,2.3-1,3.6c-0.1,0.4-0.3,0.9-0.5,1.3c-1-0.8-0.8-1.6-0.4-2.5
		c0.1-0.2,0.2-0.3,0.3-0.4c-0.1-0.1-0.1-0.2-0.2-0.3c0.8-0.6-0.1-1-0.1-1.3c0.2-0.2,0.4-0.3,0.5-0.5c0.1-0.1,0-0.2,0-0.3
		c0-0.2,0.1-0.4,0-0.5c-0.2-0.2-0.5-0.1-0.7,0.1c-0.1,0.1-0.3,0.2-0.5,0.4c-0.1,0.1-0.3,0.2-0.3,0.4c-0.1,0.3-0.1,0.6-0.1,0.9
		c0,0.9-0.3,1.6-0.8,2.3c-0.3-0.4-0.6-0.8-1-1.2c0-0.3-0.6-1-1.2-1.2c0.1-0.4,0.1-0.8,0.1-1.2c0.5,0.2,0.7,0.1,0.7-0.5
		c0-0.8,0.1-1.6,0.1-2.4c0-0.3,0-0.6,0-0.9c0-0.4-0.1-0.7-0.1-1.1c0.1-1.3,0.2-2.6,0.2-3.9c0-1.5-0.1-3,0.3-4.5c0.2-0.6,0.1-1.3,0-2
		c0-0.3-0.2-0.6-0.8-0.6c-0.6,0.1-1.2,0.3-1.7-0.2c-0.3,0.2-0.6,0.3-0.9,0.5c-0.4,0.3-0.5,0.2-0.7-0.2c-0.1-0.2-0.3-0.4-0.5-0.5
		c-0.1,0-0.3,0.2-0.5,0.3c0,0-0.1,0-0.1,0c-0.1-0.1-0.1-0.2-0.1-0.3c-0.2,0.1-0.4,0.3-0.6,0.4c0-0.4,0-0.6,0-0.9
		c-0.3,0-0.5-0.1-0.8-0.1c0.1,0.3,0.1,0.5,0.2,0.7c0,0,0,0-0.1,0c-0.1-0.2-0.3-0.5-0.4-0.7c-0.3,0.2-0.5,0.4-0.8,0.6
		c0-0.3,0-0.6-0.1-0.6c-0.3-0.1-0.5,0-0.9,0c0.1,0.3,0.2,0.4,0.3,0.6c-1.4-0.3-1.4-0.3-2.3,0.5c-0.4-0.3-0.7-0.6-1.1-0.9
		c-0.1,0.4-0.1,0.7-0.2,1c-0.1,0-0.1,0-0.2,0c-0.1-0.2-0.2-0.5-0.3-0.7c-0.3,0-0.6,0.1-0.9,0.1c-0.1,0.2-0.3,0.4-0.5,0.4
		c-0.5,0-0.9,0-1.4,0c-0.2,0-0.4,0.1-0.8,0.1c-0.2-0.1-0.4-0.4-0.8-0.7c-0.1,0.1-0.2,0.4-0.4,0.4c-0.6,0.1-1.2,0.2-1.8,0.1
		c-0.6-0.1-1.2,0-1.6,0.3c-0.8-0.1-1.5-0.2-2.2-0.3c0,0.5-0.2,0.7-0.7,0.7c-0.4,0-0.8,0-1.1,0.1c-1,0.3-1.9,0.1-2.9-0.1
		c0.1-0.2,0.1-0.4,0.2-0.5c-0.1,0-0.1-0.1-0.2-0.1c-0.1,0.2-0.4,0.4-0.4,0.6c-0.1,0.7-0.6,0.6-1.1,0.5c0.5-0.2,0.8-0.5,0.5-1.2
		c-0.4,0.1-0.8,0.3-1.2,0.4c-0.1,0.5,0.4,0.5,0.7,0.8c-0.1,0-0.3,0.1-0.4,0.1c-0.3-0.1-0.6-0.3-0.9-0.4c-0.1-0.1-0.4-0.1-0.4-0.1
		c0-0.6-0.4-0.4-0.8-0.4c-0.2,0-0.3-0.1-0.5-0.2c-0.1,0-0.2-0.1-0.3-0.1c-0.4,0.3-1.1,0.2-1.3,0.8c0,0.1-0.1,0.1-0.2,0.1
		c0-0.1,0-0.1,0.1-0.2c-0.5-0.3-1.1-0.7-1.6-0.8c-0.7-0.1-1.3,0.3-2,0.4c0,0.1,0.1,0.2,0.1,0.3c0,0.1,0,0.3-0.1,0.4
		c0.2,0,0.3,0,0.5-0.1c0.1,0,0.3-0.2,0.5-0.3c0,0.2,0,0.4-0.1,0.5c-0.4,0.2-0.7,0.4-1.1,0.5c-0.3,0.1-0.6,0.1-0.8,0.2
		c-0.1,0-0.2-0.1-0.4-0.2c0.4-0.5-0.2-0.7-0.3-1.1c0.3,0,0.6,0.1,0.9,0.1c0-0.3-0.1-0.5-0.1-0.8c-0.3,0.2-0.6,0.4-0.9,0.6
		c-0.2,0.1-0.3,0.1-0.5,0.2c-0.1-0.1-0.2-0.2-0.3-0.3c-0.1-0.1-0.2-0.3-0.3-0.4c0,0-0.1,0.1-0.1,0.1c0.1,0.3,0.1,0.5,0.3,0.8
		c0.3,0.6,0.1,1.1-0.6,1.1c-0.2,0-0.5,0.1-0.7,0.3c-0.3,0.2-1,0.2-1.1-0.1c-0.5-1-1.2-1.3-2.2-1.7c-0.6-0.2-0.7-0.1-0.8,0.4
		c-0.8-0.1-0.8-0.1-0.5,0.6c0,0.2,0,0.4,0,0.5c-0.2,0.7-0.4,1.5-0.6,2.2c0,0.1,0,0.2,0,0.3c-0.1,0.4-0.1,0.9-0.2,1.3
		c-0.1,0.4-0.3,0.8-0.5,1.2c-0.2,0.8-0.5,1.6-0.7,2.5c-0.1-0.2-0.3-0.3-0.3-0.5c0-0.6,0-1.1,0-1.7c0-0.1,0.1-0.2,0.1-0.3
		c0.1-0.3,0.1-0.7,0.2-1c0.1-0.4,0-0.8,0.2-1.1c0.1-0.3,0.2-0.4,0.1-0.7c-0.1-0.4-0.2-1,0-1.3c0.2-0.2,0.3-0.3,0.2-0.6
		c-0.1-0.2-0.1-0.5-0.1-0.8l0,0c0-0.6,0-1.1,0-1.6c-0.6-0.2-1,1-1.5-0.1c-0.1,0.2-0.2,0.4-0.2,0.5c-0.5-0.6-0.7-0.7-1.3-0.4
		C4.2,59.3,4.2,59.1,4,59c-0.7-0.3-0.8-0.6-0.6-1.3C2.9,57.6,3,57.3,3.2,57c0.1-0.1,0.2-0.3,0.2-0.4c0.1-0.4,0-0.9,0.1-1.3
		c0.1-0.4,0.1-1,0.6-1c0-0.4,0-0.7,0-1.2c0.2,0.2,0.3,0.4,0.4,0.5c0.1,0,0.1,0,0.2,0c-0.4-1.2,0.2-2.2,0.6-3.2
		c-0.5-0.2-0.4-0.6-0.3-0.9c0.1-0.3,0.2-0.5,0.3-0.7c0.2-1,0.4-1.9,0.7-2.9c0.2-0.8,0.5-1.5,0.7-2.2c0.3-0.9,0.5-1.7,0.8-2.6
		c0.1-0.2,0.1-0.3,0.2-0.5C8,40,8.2,39.6,8.4,39.2C8.5,39,8.8,39,9.1,38.9c0,0,0.1,0.1,0.1,0.1c-0.8,0.8,0,1.5,0,2.2
		c0.1,0.6,0.3,0.8,2,0.7c0.1-0.4,0.2-0.7,0.4-1.1c0.1-0.4,0.2-0.8,0.5-1.1c0.3-0.3,0.8-0.5,1.3-0.5c0.2,0,0.4,0.4,0.6,0.6
		c0.1,0.1,0.2,0.2,0.2,0.2c0.2-0.2,0.4-0.3,0.5-0.4c0,0.1,0,0.2,0.1,0.3c0.2,0.3,0.4,0.6,0.6,0.8c0.2,0.1,0.4,0.3,0.6,0.4
		c0.2,0.1,0.4,0.3,0.6,0.4c0.1-0.3,0.3-0.6,0.5-0.9c-0.2-0.3-0.4-0.7-0.6-1.2c-0.4,0.7-0.8,0.6-1.3,0.1c-0.1-0.1-0.3-0.1-0.4-0.1
		c0-0.2,0-0.4,0.1-0.6c0.5,0,1.2-0.4,1.3,0.5c0.4-0.1,0.8-0.3,1.2-0.4c-0.1,0.3-0.2,0.4-0.2,0.5c0.1,0.2,0.3,0.3,0.4,0.4
		c0.1,0.1,0.3,0.2,0.5,0.4c-0.3,0.1-0.5,0.1-0.8,0.2c0.3,0.2,0.5,0.4,0.7,0.6c0.2-0.4,0.3-0.7,0.5-1c0.5,0.4,0.5,0.7,0,1.2
		c0.1,0.2,0.2,0.3,0.4,0.5c-0.1,0.3-0.2,0.5-0.3,0.7c0.4,0.8,0.7,1.6,1.1,2.3c0.2-0.2,0.4-0.4,0.6-0.6c0.1,0.4,0.2,0.8,0.3,1.1
		c0.1,0,0.1,0,0.2,0c0-0.4,0-0.8,0-1.2c0.2,0.2,0.5,0.4,0.7,0.6c0.4,0.3,0.7,0.6,1.1,1c0,0,0.1,0,0.2-0.1c-0.2-0.1-0.3-0.2-0.4-0.3
		c0.3-0.7,0.3-0.7,1.1-0.2c-0.1,0.3-0.3,0.6-0.3,0.8c0.1,0.8,0.3,1,1.1,0.9c0,0,0,0,0,0c0,0.2,0,0.4,0.1,0.6
		c0.8-0.1,1.2,0.1,1.2,0.8c0,0.5-0.2,1.1-0.2,1.8c0.2-0.2,0.6-0.5,0.5-0.6C25.5,49,26.1,48.6,26,48c0.5-0.1,1-0.3,0.9-0.9
		c0,0,0-0.1,0.1-0.2c0.2-0.3,0.7-0.5,0.3-1c0-0.1,0.3-0.5,0.5-0.6c0.2-0.1,0.6,0.1,0.8,0.2c0.2,0.1,0.3,0.2,0.5,0.2
		c-0.6-0.3-0.6-0.8-0.4-1.3c0-0.2-0.2-0.5-0.4-0.6c-0.2-0.2-0.4-0.2-0.5-0.3c-0.3,0.3-0.6,0.6-0.8,0.9c-0.2-0.2-0.4-0.3-0.7-0.5
		c0.3-0.2,0.5-0.4,0.8-0.5c-0.1-0.3-0.3-0.3-0.8-0.2c-0.6,0.1-0.8,0-0.8-0.7c0-0.1-0.4-0.3-0.6-0.3c-0.3,0-0.6,0.2-0.9,0.3
		c-0.1,0.1-0.2,0.2-0.3,0.3c-0.3-0.2-0.6-0.4-0.9-0.6c-0.2,0.3-0.4,0.6-0.6,0.8c-0.2,0.1-0.6-0.1-0.9-0.1c-0.1,0.4-0.3,1-0.4,1.5
		c-0.2,0-0.3,0.1-0.5,0.1c0-0.1,0-0.3,0-0.3c-0.4-0.2-0.7-0.4-1-0.6c0-0.2-0.1-0.5-0.1-0.7c0-0.2-0.4-0.4,0-0.5
		c0-0.1-0.1-0.3-0.1-0.4c0.2-0.3,0.4-0.6,0.6-0.9c0.1-0.2,0.1-0.3,0.2-0.5c0-0.2,0.1-0.4,0-0.6c-0.1,0.1-0.3,0.3-0.3,0.3
		c-0.3-0.1-0.6-0.2-1-0.3c0,0.1,0,0.3,0,0.4c-0.8-0.3,0.1-0.7,0-1c0.6-0.1,1.2-0.2,1.8-0.4c0,0.3,0,0.5-0.1,0.9
		c0.5-0.6,0.9-1,1.3-0.3c1.2-0.6,1.2-0.6,1.6,0l0,0c-0.4,0-0.8,0.2-0.8,0.5c0,0.3,0.4,0.6,0.7,0.8c0.2,0.1,0.4,0.2,0.8,0.3
		c-0.1-0.4-0.1-0.7-0.2-1.1c0-0.1,0.1-0.2,0.1-0.3c0.2,0.1,0.3,0.3,0.5,0.4c0.2-0.1,0.3-0.2,0.4-0.2c-0.1-0.3-0.2-0.5-0.3-0.8
		c0.1-0.1,0.2-0.1,0.2-0.2c0.4,0.3,0.7,0.5,1.1,0.8c0.2,0.2,0.4,0.5,0.7,0.7c0.1,0.1,0.4,0,0.5-0.1c0.4-0.3,0.7-0.6,1.2-0.8
		c0.1-0.1,0.4,0.2,0.5,0.3c0.1,0.1,0.2,0.3,0.4,0.3c0.2,0,0.5,0,0.8-0.1c0-0.8,0.7-0.7,1.4-0.8c-0.1,0.4-0.1,0.7,0.4,0.7
		c0.2-0.9,0.3-0.9,1-0.7c0.1,0.2,0.1,0.4,0.2,0.6c0.2-0.1,0.3-0.3,0.5-0.4c0.3-0.3,0.7-0.2,0.9,0.2c0.1,0.1,0.1,0.2,0.2,0.5
		c0.1-0.3,0.2-0.4,0.4-0.7c0.4,0.1,0.9,0.1,1.4,0.2c0.2,0,0.4,0.1,0.6,0.2c0.3,0.1,0.5,0.2,0.7,0.3c0.2,0.1,0.5,0.1,0.7,0.3
		c0.4,0.3,0.7,0.3,0.9-0.1c0.1-0.2,0.1-0.3,0.1-0.5c0.2,0,0.4-0.1,0.7-0.1c0,0.2,0,0.4,0,0.6c0.6-0.3,1.1-0.5,1.5,0
		c0.3-0.2,0.5-0.3,0.7-0.5c0,0.1,0,0.2,0,0.2c0.2,0.1,0.5,0.2,0.6,0.1c0.9-0.5,1.6,0.3,2.4,0.3c0.4,0,0.9,0.3,1.1,0.2
		c0.4-0.3,0.7-0.3,1.1-0.1c0.4,0.2,0.8,0.3,1.3,0.2c0.1,0,0.3,0.2,0.2,0.2c0.3,0,0.6,0.1,0.8,0.1c0.1,0,0.2,0,0.2,0
		c0.7-0.5,1.2-0.2,1.9,0.1c0.4,0.1,0.8,0.5,1.2,0.1c0.1-0.1,0.3,0,0.4,0c0.4,0.1,0.8,0.2,1.3,0.3c0.7,0.1,1-0.2,0.9-0.6
		c0.5-0.5,1-0.9,1.4-1.2c0.1,0.3,0.3,0.6,0.4,0.9c-0.1,0.1-0.2,0.1-0.4,0.3c0.2,0.1,0.5,0.1,0.5,0.2c0.3,0.6,0.9,0.7,1.5,0.7
		c0.4,0,0.6-0.1,0.5-0.5c-0.1-0.4,0.1-0.9,0-1.3c-0.1-0.6,0-1.3,0-1.9c0-0.1-0.1-0.3-0.1-0.3c-0.6,0.1-0.5-0.4-0.6-0.8
		c-0.1-0.7,0-1.4-0.2-2c-0.2-0.9-0.7-1.8-0.8-2.7c0-0.2,0-0.3,0-0.5c0.1,0,0.1,0,0.2,0c-0.2-0.8-0.4-1.6-0.5-2.4
		c-0.2-0.9-0.3-1.8-0.4-2.7c-0.1-0.6-0.2-1.1-0.1-1.7c0-0.4,0.1-0.6-0.2-0.9c-0.5-0.4-0.4-0.8-0.1-1.3c0.1-0.1,0.2-0.3,0.2-0.5
		c-0.1-0.8-0.2-1.6-0.3-2.3c0-0.1-0.1-0.1-0.1-0.1c-0.1-0.1-0.1-0.3-0.2-0.5c0.1,0,0.3-0.1,0.4-0.1c0.1,0,0.2,0.1,0.3,0
		c0.7,0,1.2,0.4,1.3,1c0.3,0.2,0.5,0.4,0.8,0.6c0.3,0.1,0.5,0.3,0.8,0.4c0.1,0.1,0.2,0.1,0.3,0.2c0.2,0.2,0.4,0.3,0.7,0.5
		c0.1,0.1,0.2,0.3,0.4,0.3c0.9,0.2,1.3,0.6,1.3,1.5c0,0.1,0.1,0.3,0.2,0.4c0,0,0.1,0,0.1,0c0-0.2,0.1-0.3,0.1-0.5
		c0.5,0.3,1,0.6,1.5,1c0.4,0.3,0.8,0.6,1.2,0.9c0.6,0.4,1.1,0.9,1.7,1.3c0.6,0.4,1.2,0.8,1.7,1.2c0.4,0.3,1,0.4,0.7,1.2
		c0,0,0,0.1,0.1,0.2c0.2-0.1,0.4-0.3,0.4-0.2c0.5,0.3,1.1,0.3,1.6,0.8c0.2,0.3,0.6,0.5,1,0.7c0.5,0.3,1,0.6,1.6,1
		c0.1,0.1,0.2,0.2,0.2,0.3c0.1,0.3,0.2,0.5,0.3,0.9c0.2-0.3,0.2-0.5,0.4-0.7c0.5,0.3,1,0.5,1.4,0.8c0.6,0.4,1.2,1,1.8,1.3
		c0.8,0.3,1.5,0.6,1.7,1.4c0.2-0.1,0.4-0.2,0.6-0.2c0.5,0.2,0.9,0.5,1.4,0.8c1.1,0.8,2.3,1.6,3.4,2.4c1.5,1.1,2.9,2.1,4.4,3.2
		c1.1,0.9,2.2,1.8,3.3,2.8c1.5,1.3,2.9,2.6,4.3,3.9c0.3,0.3,0.5,0.6,0.2,1c-0.4,0.5-0.3,1.1,0.2,1.4c0.5,0.3,0.6,0.6,0.5,1.2
		c-0.5-0.2-1-0.2-1.4,0.2c-0.1,0.1-0.4,0.1-0.4,0.3c-0.2,0.4-0.2,0.9-0.4,1.3c0,0,0,0-0.1,0c0-0.2,0-0.4,0-0.6c-0.4,0-1-0.3-1.2,0.3
		c-0.1,0.4,0,0.8,0,1.2c-0.1,0-0.1,0-0.2,0c-0.1-0.5-0.1-0.9-0.2-1.4c0-0.1-0.2-0.3-0.3-0.3c-0.3,0.1-0.7,0.1-1,0.3
		c-0.1,0.1-0.2,0.3-0.2,0.5c-0.3,0.7-0.5,0.7-1.1,0.3c0,0-0.1,0-0.1,0c0,0,0,0.1,0.1,0.1c-0.2,0.1-0.5,0.3-0.7,0.4
		c-0.3,0.4-0.6,0.3-0.9,0.1c-0.4-0.2-0.7-0.4-1.2-0.1c-0.1,0.1-0.3,0.1-0.3,0.2c0,0.1,0.1,0.3,0.2,0.4c0.6,0.4,0.6,0.5-0.1,0.8
		c-0.2,0.1-0.5,0.1-0.8,0.2C87.8,56.6,87.9,56.3,88.1,56z M66.8,30.7c-0.1-0.2-0.2-0.3-0.3-0.4c0,0.4-0.3,0.9,0.4,0.9
		c0.1,0.1,0.1,0.3,0.2,0.3c0.3,0,0.6,0,1,0c-0.2-0.3-0.3-0.5-0.5-0.8c-0.3,0.2-0.5,0.3-0.7,0.5C66.8,31,66.8,30.8,66.8,30.7z
		 M50.7,57.4c0.6-0.5,0.2-0.9,0.2-1.4c-0.2,0.3-0.3,0.4-0.5,0.6c0-0.3-0.1-0.5-0.1-0.8c-0.8,0.5-0.9,0.7-0.5,1.3
		c0.2-0.2,0.4-0.3,0.6-0.5C50.6,56.8,50.6,57,50.7,57.4z M61.2,39.3c0-0.2-0.2-0.4-0.3-0.6c-0.1-0.1-0.3,0-0.4,0
		c-0.1,0.1-0.1,0.3-0.1,0.5c0.1,0.4,0.1,0.8,0.2,1.2c-0.1,0.8-0.1,1.5,0.3,2.3c0.2,0.4,0.4,0.3,0.7,0c-0.7-0.2-0.5-0.6-0.5-1.1
		c0-0.3,0.2-0.6-0.2-0.8c-0.1-0.1-0.1-0.3-0.1-0.4C61,40,61.1,39.6,61.2,39.3z M13.5,47.3c-0.2,0-0.4-0.1-0.5,0
		c-0.1,0-0.3,0.3-0.2,0.3c0.1,0.1,0.3,0.2,0.4,0.3c0,0.5,0,1.1,0.1,1.6c0.1,0.4,0.3,0.6,0.8,0.3c0,0.4-0.1,0.8,0,1.2
		c0,0.1,0.2,0.1,0.3,0.2c0.1-0.3,0.3-0.6,0.3-0.8c0-0.2-0.4-0.4-0.6-0.5c0-0.2,0.1-0.3,0.1-0.5c0,0,0.1,0,0.1,0
		c-0.1-0.3-0.2-0.6-0.2-0.9c0,0.1-0.1,0.1-0.2,0.2c-0.2-0.3-0.4-0.5-0.6-0.8C13.2,47.7,13.3,47.5,13.5,47.3z M83.2,47.2
		c-0.2-0.2-0.4-0.5-0.7-0.7c-0.1-0.1-0.4,0-0.8,0c0.3,0.3,0.5,0.5,0.7,0.7c0.2,0.3,0.3,0.7,0.5,1c0.1,0.1,0.2,0.2,0.3,0.3
		c0-0.1,0.1-0.1,0.1-0.2c0.7,0.3,0.8,0.5,0.6,1c0.1,0.4,0.2,0.6,0.3,1c0.1-0.5,0.2-0.9,0.3-1.4c-0.3-0.2-0.7-0.5-1.1-0.7
		C83.2,47.8,83.2,47.5,83.2,47.2z M27.4,52.4c0.1,0.1,0.3,0.1,0.4,0.1c0.1-0.1,0.2-0.2,0.2-0.4c0-0.1-0.1-0.2-0.3-0.3
		c-0.2-0.1-0.4,0-0.6-0.1c-0.1-0.1-0.2-0.2-0.2-0.2c-0.3,0.1-0.6,0.2-1,0.3c0.1,0.1,0.2,0.3,0.3,0.5c-0.1,0.1-0.3,0.3-0.5,0.4
		c0,0,0.1,0.1,0.1,0.1c0.4-0.3,0.7,0.6,1.1,0c0.1,0.2,0.2,0.4,0.3,0.6c0,0-0.1,0-0.1,0c-0.1,0.3-0.1,0.6-0.2,0.9
		c-0.1,0.2-0.1,0.5-0.2,0.6c-0.3,0.4-0.3,0.8,0.1,1.3c0.1-0.4,0.2-0.8,0.3-1.2c0.6-0.1,0.7,0.4,0.6,0.8c-0.1,0.8,0.4,1,0.9,1.4
		c0.1,0,0.3,0,0.4-0.1c0.1-0.3,0.2-0.6,0.3-0.9c0.1,0.1,0.2,0.2,0.4,0.3c-0.4-0.5-0.9-1-1.3-1.5c0,0,0.1-0.1,0.2-0.3
		c0.1,0.1,0.1,0.2,0.2,0.3c0.1-0.1,0.2-0.2,0.1-0.2c-0.1-0.2-0.2-0.4-0.3-0.5c-0.8-0.2-0.9-0.3-0.6-1.1c0.1-0.2,0.1-0.5,0-0.8
		c-0.1,0.1-0.2,0.3-0.4,0.5c-0.2-0.1-0.3-0.2-0.5-0.2c0-0.2,0.1-0.4,0.1-0.7c0-0.2,0.1-0.4,0.1-0.5C27.2,52,27.3,52.2,27.4,52.4z
		 M77.2,51.1c-0.1-0.3-0.4-0.5-0.5-0.7c-0.1,0.4-0.3,0.6-0.3,0.8c0,0.1,0,0.3,0,0.4c0.6-0.2,0.6,0.5,0.9,0.6c0,0.4,0,0.8,0.1,1.1
		c0.2,0.3,0.4,0.4,0.4,0.6c0.2,0.7,0.5,1.3,1.1,2c0.1-0.6,0.2-1,0.3-1.5c-0.2,0-0.4,0-0.5,0c0.3-0.4,0.2-0.3-0.1-0.5
		c-0.3-0.2-0.5-0.6-0.5-0.9c0.1-0.6-0.2-0.8-0.7-0.9C77.2,51.9,77.3,51.5,77.2,51.1z M32.6,49.1c0.7-1.4,0.6-1.9-0.6-2
		c0-0.1,0.1-0.2,0.1-0.4c0,0,0,0-0.1-0.1c-0.4,0.5-0.8,1.1-1.3,1.6c0,0-0.1,0-0.1-0.1c-0.1-0.1-0.3-0.3-0.4-0.4c0,0.2,0,0.5,0.1,0.6
		c0.1,0.2,0.4,0.3,0.5,0.4c0.1,0.6,0.2,1.1,0.3,1.7c0.6-0.3,1-0.5,1.5-0.7c-0.2-0.4-0.3-0.6-0.4-0.8l0,0
		C32.4,49.1,32.5,49.1,32.6,49.1z M63.1,38.3c0.1,0,0.2-0.3,0.2-0.5c0-0.1-0.1-0.2-0.2-0.3c-0.1,0.1-0.2,0.2-0.3,0.3
		c-0.1,0.1-0.1,0.2-0.2,0.3c0-0.4-0.1-0.8-0.1-1.2c-0.1,0-0.2,0-0.2,0c-0.1,0.7-0.1,1.3-0.2,2c-0.1,0.1-0.3,0.2-0.4,0.3
		c0.6,1,0.9,2,0.4,3.1c-0.1,0.2,0,0.6,0,0.9c0.4-0.1,0.5,0.6,1,0.3c0.3-0.2,1,0.3,1,0.6c0,0.2,0,0.3,0.1,0.5
		c0.4-0.1,0.5-0.3,0.4-0.8c-0.1-0.4-0.2-0.8-0.4-1.1c-0.4-0.6-0.1-1.1,0-1.6c0-0.1,0.2-0.3,0.4-0.4c0-0.2-0.1-0.4-0.1-0.5
		c-1-0.2-0.4,0.9-0.9,1.1c-0.4-0.8-0.8-1.6-1.2-2.3C62.4,38.7,62.6,38.3,63.1,38.3z M18.5,57.9c0.2-0.5,0.4-0.8,0.9-0.3
		c0.2,0.2,0.5,0.1,0.7-0.3c0.2-0.4,0.4-0.8,0.6-1.2c0,0,0,0-0.1-0.1c-0.2-0.1-0.3-0.2-0.5-0.2c0.1-0.2,0.2-0.4,0.3-0.5
		c0.1-0.1,0.2-0.2,0.3-0.3c-0.2-0.1-0.3-0.1-0.5-0.2c-0.1,0-0.1,0-0.3-0.1c0.5-0.3,0.5-0.5,0-0.8c-0.3-0.3-0.5-0.8-0.7-1.2
		c-0.3-0.7-0.5-1.3-0.7-2c0-0.1-0.1-0.1-0.1-0.1c-0.7-0.2-0.7-0.7-0.7-1.4c-0.5,0.2-0.9,0.3-0.6,0.9c0.1,0.1-0.1,0.4-0.2,0.7
		c0.2,0.1,0.5,0.2,0.9,0.3c-0.2,0.2-0.3,0.3-0.6,0.5c0.9,0,1.5,0.2,1.5,1.1c-0.1,0.1-0.1,0.1-0.2,0.2c-0.3-0.4-0.6-0.7-0.9-1.1
		c-0.2,0.3-0.3,0.5-0.5,0.9c0.3,0.1,0.6,0.2,0.9,0.2c0.2,0.3,0.5,0.7,0.6,0.9c0,0.3-0.1,0.5-0.1,0.7c0,0.2,0,0.3,0.1,0.5
		c0,0.1,0,0.3,0,0.3c0.7,0.2,0.5,0.8,0.6,1.5c-0.3-0.1-0.6-0.2-0.9-0.3c-0.5-0.1-0.5,0.3-0.6,0.6c-0.2,0-0.5-0.1-0.7-0.1
		c0.1-0.3,0.2-0.6,0.1-0.8c-0.1-0.3-0.5-0.6-0.7-0.2c-0.2,0.3-0.1,0.7-0.1,1.1c0.1,0.3,0.5,0.4,0.7,0.6c0.4,0.3,0.6-0.2,0.7-0.5
		C18.1,57.5,18.3,57.7,18.5,57.9z M58.7,69.7c0.2,0.1,0.3,0.1,0.4,0.2c0-0.2,0.1-0.3,0.1-0.5c0-0.2-0.1-0.4-0.1-0.6
		c0-0.1-0.1-0.2-0.1-0.3c0.2-0.5,0.4-1,0.7-1.5c-0.1-0.1-0.2-0.2-0.3-0.2c0.1-0.4,0.2-0.8,0.4-1c0.4-0.3,0.2-0.6,0.3-0.9
		c0-0.1,0-0.2-0.1-0.3c-0.6-0.2-0.3-0.7-0.3-1.1c0.1-1,0.4-2,0.4-3c0-0.8-0.4-1.5-1.2-2c0.2-0.1,0.3-0.2,0.4-0.3
		c-0.1-0.1-0.1-0.2-0.2-0.2c-0.2,0-0.6,0-0.7,0.2c-0.2,0.3-0.3,0.7-0.4,1.1c-0.1,1-0.2,2-0.3,3c-0.1,0.5-0.3,1.1-0.2,1.6
		c0.1,0.5,0.2,0.9,0.1,1.3c-0.1,0.4-0.3,0.8-0.4,1.2c0.6,0.2,0.5,0.7,0.3,1.3c-0.1,0.4-0.1,0.9-0.1,1.4c0,0.5,0.1,1.1-0.7,1.2
		c0.2,0.4,0.5,0.6,0.6,1c0.1,0.3,0.1,0.7,0.1,1c0.1,0,0.1,0,0.2,0c0.2-0.3,0.5-0.6,0.7-0.8c0.3-0.1,0.5-0.1,0.7-0.2
		c0.1-0.2,0.3-0.4,0.3-0.6c0-0.1-0.1-0.3-0.2-0.3c-0.1,0-0.2,0-0.3,0c0,0.1,0.1,0.2,0.1,0.4c0.1,0.2,0.1,0.4,0.2,0.6
		C58.5,70.9,58.7,70.3,58.7,69.7z M81.7,40.6c0.2,0,0.4,0.1,0.5,0.2c0.1,0.5,0.2,1,0.2,1.6c0.4,0.3,0.9,0.8,1.5,1.2
		c0,0,0.1-0.1,0.1-0.1c-0.1-0.1-0.1-0.3-0.2-0.5c0.3,0,0.6-0.1,0.8,0c0.1,0,0.1,0.3,0.2,0.5c0,0.2,0,0.5,0,0.7
		c0.5,0.1,0.9,0.1,1.3,0.1c0.1,0,0.2-0.1,0.3-0.2c0.4-0.2,0.7-0.3,1.1,0.1c-0.3,0-0.5,0-0.8,0.1c0,0.1,0,0.1,0,0.2
		c0.2,0.1,0.5,0.2,0.7,0.3c0,0.1,0,0.1,0,0.2c-0.4-0.1-0.8-0.2-1.2-0.3c-0.1,0.5,0.1,0.6,0.6,0.5c0.3-0.1,0.6-0.1,0.8-0.1
		c0.6,0,0.7,0.1,0.5,0.7c0.3,0.3,0.6,0.6,0.9,0.9c-0.5,0.4,0.2,0.4,0.2,0.6c0.3,0,0.5,0,0.8,0.1c-0.3-0.2-0.7-0.5-1-0.7
		c0.3,0,0.5,0,0.8,0c-0.2-0.3-0.3-0.5-0.4-0.7c0.1,0,0.1-0.1,0.2-0.1c0,0.1,0.1,0.3,0.1,0.4c0.1-0.1,0.2-0.2,0.3-0.4
		c0.1,0.3,0,0.5,0.1,0.7c0.1,0.2,0.3,0.3,0.5,0.5c0.1-0.1,0.2-0.3,0.4-0.5c0.2,0.4,0.3,0.8,0.6,1.2c0.3,0.3,0.7,0.5,1.1,0.9
		c-0.3,0.2-0.6,0.3-0.9,0.5c0.4,0.1,0.7,0.2,1,0.3c0,0.1,0,0.2,0,0.4c0.1,0,0.1,0.1,0.1,0.1c0.6,0,1.2,0.5,1.2,1.2
		c0,0.1,0.1,0.4,0.2,0.4c0.3,0,0.6,0,0.9-0.1c0.4-0.1,0.4-0.4,0.4-0.7c0-0.1,0.2-0.3,0.4-0.3c0.2-0.1,0.4,0,0.6-0.1
		c0.2-0.1,0.4-0.3,0.6-0.4c-0.1-0.2-0.2-0.3-0.4-0.5c-0.7-0.5-1.4-1.1-2.1-1.6c-0.2-0.2-0.3-0.4-0.5-0.7c-0.1-0.1-0.2-0.1-0.3-0.2
		c-0.5-0.2-0.9-0.3-1.2-0.8c-0.1-0.3-0.5-0.4-0.9-0.6c0-0.1,0-0.3,0-0.6c-0.7,0.4-1,0.3-1.4-0.5c0-0.1-0.1-0.3-0.2-0.3
		c-0.5,0-0.9-0.3-1.2-0.7c-0.4-0.4-0.8-0.7-1.2-1.1c0,0-0.1,0.2-0.1,0.2c-0.4-0.2-0.8-0.4-1.2-0.7c0-0.1,0-0.4,0-0.6
		c-0.5,0.3-1.2,0.1-1.5-0.4c-0.1-0.2-0.4-0.3-0.6-0.5c-0.2-0.1-0.5-0.3-0.6-0.4c-0.4-0.6-0.4-0.6-0.9-0.4c0-0.1,0-0.3,0-0.3
		c-0.4-0.2-0.9-0.4-1.4-0.7c-0.2-0.1-0.4-0.2-0.5-0.4c-0.3-0.2-0.5-0.4-0.8-0.6c-0.2-0.1-0.4-0.1-0.6-0.1c-0.3-0.1-0.5-0.2-0.4-0.5
		c0-0.3-0.2-0.6-0.3-0.9c0-0.1-0.4-0.1-0.4-0.1c-0.4,0.5-0.6,0.1-0.7-0.2c-0.2-0.5-0.5-0.6-1-0.6c-0.6,0-0.9-0.3-1.1-0.9
		c0-0.2-0.3-0.2-0.5-0.4c0,0-0.1,0.1-0.1,0.1c0-0.1,0-0.2,0-0.3c0-0.1,0-0.1-0.1-0.2c-0.3,0.2-0.6,0.4-1,0.7
		c0.1,0.3,0.1,0.8,0.7,0.9c0.1,0,0.1,0.2,0.2,0.3c0.2,0.2,0.4,0.4,0.6,0.4c0.8,0,0.9,0.7,1.2,1.3c0.1-0.2,0.1-0.3,0.2-0.4
		c0.5,0.4,1,0.7,1.5,1.1c0.1,0.1,0.2,0.4,0.3,0.6c0.2,0,0.4,0,0.6-0.1c0,0,0.1,0.1,0.1,0.1c-0.1,0.1-0.3,0.2-0.4,0.3
		c-0.1,0.1-0.3,0.1-0.4,0.3c1.1-0.5,1,0.4,1.3,1c0-0.2,0-0.5,0.1-0.7c0.5-0.1,0.5-0.1,0.8,1c0.1-0.1,0.1-0.2,0.2-0.3
		c0,0.3,0.1,0.6,0.1,0.7c0.3,0.2,0.5,0.4,0.8,0.6c0-0.3,0-0.5,0-0.7l0,0C81.4,40.7,81.6,40.6,81.7,40.6z M4.1,56.7
		c0.1,0.6,0.2,1.1,0.3,1.8c1.1-0.2,2.2-0.3,3.5-0.5c-0.3-0.2-0.5-0.3-0.7-0.4c0.1-0.3,0.3-0.7,0.4-0.9c0.1-0.2,0.1-0.4,0.1-0.6
		c0.1-0.6,0.1-1.2,0.2-1.8c0-0.3,0-0.6,0-0.9c0-0.1,0-0.2,0-0.2c-0.6-1-0.2-2.1-0.4-3.2c-0.1-0.4,0.2-0.9,0.2-1.3c0-0.5,0-1,0-1.4
		c0-0.1,0-0.3,0-0.4c0.1-0.7,0.2-1.5,0.3-2.2c-0.1,0-0.2,0-0.3-0.1c-0.1,0.2-0.2,0.4-0.2,0.6c0,0.5,0.1,1-0.3,1.4
		c-0.2,0.2-0.4,0.3-0.6,0.5c0,0-0.1-0.1-0.1-0.1c-0.1,0.3-0.1,0.6-0.2,0.9C6,48.1,6,48.5,6.3,48.9c0.1,0.1-0.1,0.4-0.2,0.5
		c-0.3,0.1-0.6,0.2-0.8,0.3c0.2,0.1,0.3,0.2,0.5,0.3C6,50,6,50,6.1,50c-0.2,0.5-0.4,1-0.6,1.5c-0.1,0.2-0.1,0.4-0.1,0.7
		C5.2,53,5.2,53.8,5,54.5c-0.1,0.5-0.6,0.9-0.9,1.4C4.6,56.1,4.3,56.4,4.1,56.7z M44.3,56.1c0.3,0.3,0.4,0.7,0.9,0.5
		c0.2-0.1,0.6,0.1,0.9,0.2c0.1,0,0.1,0.1,0.2,0.1c0.2-0.1,0.7-0.1,0.7-0.2c0.1-0.5,1.1-0.5,0.6-1.3c-0.1,0.2-0.1,0.3-0.2,0.6
		c0-0.4-0.1-0.7-0.1-1c-0.6,0.2-0.8-0.1-0.8-0.7c0-0.5-0.5-1-0.2-1.6c0-0.1-0.3-0.3-0.5-0.3c-0.1,0-0.3,0.1-0.5,0.1
		c-0.1-0.4-0.1-0.9-0.2-1.3c-0.1-0.3-0.2-0.3-0.4-0.1c0,0.1-0.1,0.1-0.2,0.2c0.3-0.9-0.1-1.5-0.7-2.1c-0.2-0.1-0.2-0.5-0.2-0.8
		c-0.1,0.1-0.2,0.3-0.4,0.5c-0.2-0.3-0.5-0.7-0.7-1c0.1,0,0.1,0,0.2,0c0.1-0.5,0.1-1.1,0.2-1.7c-0.2-0.1-0.5-0.2-0.8-0.3
		c0,0,0-0.2,0-0.2c0.3-0.1,0.4-0.2,0.6-0.3c-0.1-0.1-0.3-0.3-0.4-0.4c-0.4-0.4-0.8-0.5-1,0.1c-0.1,0.3,0,0.7,0.1,1.1
		c0.1,0.4,0.5,0.6,0.3,1.1c0,0.1,0.1,0.2,0.2,0.3c0.1,0.3,0.5,0.5,0.4,0.9c0,0.2,0.3,0.5,0.5,0.8c0.1,0.2,0.1,0.4,0.1,0.6
		c0.2,0.3,0.4,0.6,0.6,0.9c0.2,0.3,0.3,0.6,0.5,1c-0.1,0.1-0.3,0.2-0.5,0.3c-0.1-0.1-0.1-0.2-0.2-0.4c-0.5,0.2-0.2,0.5,0,0.7
		c0.3,0.3,0.9,0.3,0.6,0.9c-0.1,0.3,0.8,0.7,1.1,0.6c0.3,0.5-0.7,0.9,0.1,1.4C44.7,55.9,44.5,56,44.3,56.1z M61,69.2
		c0,0,0.1,0,0.1,0.1c0.1-0.1,0.1-0.2,0.2-0.4c0.2-0.3,0.4-0.5,0.8-0.6c0.4-0.1,1-0.3,0.7-1c0,0,0.3-0.3,0.4-0.3
		c0.6,0.2,0.5-0.2,0.5-0.5c0.8-0.4,0.8-0.4,0.4-1.2C64,65,64,64.7,64,64.4c0-0.5-0.1-0.9-0.5-1.3c-0.5-0.4-1-0.9-0.9-1.7
		c0-0.3-0.1-0.7-0.2-1.1c-0.3,0.6-0.5,1-0.7,1.5c0,0.1-0.1,0.3,0,0.3c0.5,0.8,0.1,1.6,0.1,2.3c-0.1,1-0.3,2.1-0.5,3.1
		c0,0.2,0.1,0.3,0.2,0.5C61.3,68.4,61.2,68.8,61,69.2z M35.7,48.1c-0.4,0.1-0.8,0.1-1,0.2c-0.2,0.2-0.5,0.6,0,0.9
		c-0.2,0.1-0.3,0.2-0.5,0.3c0.2,0.1,0.3,0.2,0.4,0.3c0,0.2-0.1,0.5-0.1,0.6c0.1,0.3,0.3,0.1,0.5,0c0.1,0,0.2,0.1,0.3,0.2
		c0.1,0.2,0.2,0.4,0.3,0.7c-0.1,0.1-0.3,0.2-0.6,0.4c0.2,0,0.4,0.1,0.6,0.1c0.3,0.2-0.1,0.9,0.4,0.7c0.2,0.8,0.4,1.5,0.7,2.3
		c0.1,0,0.3,0,0.5-0.1c0.1,0.5,0.2,1.1,0.3,1.8c0.4,0,0.9,0.1,1.3,0.1c0.5,0,0.3-0.4,0.3-0.8c0-0.6-0.2-1.3-0.1-1.9
		c0.1-0.5,0-0.7-0.2-1.1c-0.4,0.4-0.8,0.7-0.3,1.3c0.1,0.1-0.1,0.6-0.2,0.8c0,0.1-0.2,0-0.3,0.1c0.1-0.4,0.1-0.7,0.2-1
		c-0.2-0.5-0.5-1-0.8-1.6c-0.3,0-0.4-0.3-0.7-0.7c-0.4-0.4-0.2-0.7-0.1-1.1c0-0.1,0-0.3-0.1-0.3c-0.2,0-0.4,0-0.7,0c0-0.3,0-0.6,0-1
		c-0.3,0.1-0.5,0.1-0.8,0.2C35.3,49.2,35.5,48.7,35.7,48.1z M10.1,48.9c-0.2-0.8,0-0.9,0.7-0.8c0.1,0,0.2,0,0.2,0
		c0.2-0.1,0.4-1,0.3-1.2c-0.3-0.6-0.3-1.1,0-1.7c0-0.1,0-0.2,0-0.3c0-0.2,0-0.5-0.1-0.7c0,0,0.1-0.1,0.1-0.1c-0.5-0.5-0.2-1,0.3-1.5
		c-0.1,0-0.1-0.1-0.2-0.1c-0.2,0.1-0.4,0.2-0.6,0.3c-0.5,0.3-0.8,0.3-1.2-0.2c-0.2-0.3-0.4-0.2-0.5,0.1C9.1,43,8.8,43.5,9,44
		c0.1,0.4,0,0.9,0.1,1.3c0.1,0.7,0,1.4,0.3,2.1c0.2,0.4,0.2,1,0.3,1.5C9.9,48.9,10,48.9,10.1,48.9z M31.3,50.9
		c0.2,0.2,0.5,0.4,0.7,0.7c-0.2,0.2-0.3,0.3-0.5,0.5c0.6,0,0.8,0.2,0.7,0.7c0,0.1,0.1,0.3,0.3,0.5c0.4,0.4,0.5,0.8,0.3,1.3
		c-0.1,0.2,0.1,0.7,0.3,0.7c0.7,0.1,0.6,0.4,0.3,0.8c0.2,0.8,1,1,1.6,1.2c0.4,0.1,1-0.5,1.6-0.7c0-0.1,0-0.1-0.1-0.2
		c-0.2,0-0.3,0-0.6-0.1c0.4-0.7,0.2-1.1-0.5-1.2c0,0-0.1,0.1-0.2,0.2c-0.1-0.5-0.4-0.6-0.7-0.2c0-0.1,0.1-0.1,0.1-0.2
		c0.4-0.8,0.4-1.2-0.3-1.7c-0.2-0.2-0.3-0.4-0.5-0.6c-0.2-0.2-0.4-0.3-0.5-0.5c-0.2-0.3-0.3-0.6-0.5-0.9c-0.1,0.1-0.2,0.3-0.3,0.4
		c0,0-0.1,0-0.1,0c0-0.2,0.1-0.4,0.1-0.6c0-0.2-0.1-0.4-0.2-0.5C31.9,50.7,31.6,50.8,31.3,50.9z M35.9,46.7c-0.4-0.7-0.3-1.2,0.4-2
		c0,0.3,0,0.5,0.1,0.6c0.1,0.2,0.2,0.4,0.3,0.6c0.4-1,0.2-2-0.5-2.3c-0.1,0.2-0.1,0.3-0.2,0.6c-0.3-0.4-0.8-0.6-0.4-1.1
		c-0.1-0.3-0.3-0.5-0.4-0.8c-1.4-0.1-1.4-0.1-1.7,0.5c0.2,0,0.5-0.1,0.6-0.1c0.1,0.4,0.2,0.7,0.3,1c-0.1,0.1-0.3,0.3-0.4,0.6
		c0.5,0,1-0.2,1.1-0.1c0.3,0.3,0.4,0.8,0.6,1.4c-0.4,0-0.7-0.1-0.9-0.1c-0.1,0-0.2,0.2-0.4,0.4c-0.1,0.1-0.2,0.2-0.3,0.3
		c0,0-0.2-0.1-0.2-0.1c0-0.1,0.1-0.3,0.1-0.4c0.1-0.3,0.2-0.6-0.2-0.8c-0.1,0-0.3-0.2-0.3-0.3c-0.1-0.4-0.4-0.4-0.7-0.4
		c-0.3,0.1-0.4,0.3-0.4,0.6c0,0.3,0,0.5,0,0.9c0.2-0.2,0.3-0.3,0.4-0.5c0.1-0.1,0.2-0.2,0.3-0.3c0.1,0.2,0.3,0.3,0.3,0.5
		c0,0.4,0,0.9-0.1,1.2c0.5,0,1-0.1,1.5-0.1c0.1,0,0.2,0.3,0.2,0.5c0.1,0.5,0.3,0.7,0.7,0.5C35.3,46.9,35.4,46.9,35.9,46.7z
		 M72.1,57.8c-0.5-0.1-0.9-0.2-1.3-0.3c-0.3,0.6,0.4,1,0.4,1.6c-0.2,0.2-0.7,0.2-0.3,0.7c-0.4,0.3-1.1,0-1.1,0.8
		c-0.7-0.3-0.7-0.4-0.3-1c0.1-0.2,0.1-0.5,0.1-0.8c-0.1,0-0.1,0-0.2-0.1c-0.1,0.1-0.2,0.3-0.3,0.4c-0.4-0.2-0.7-0.3-1.2-0.5
		c0,0.2,0,0.5,0,0.8c0,0.1,0,0.2,0,0.3c-0.3,0.4,0,0.4,0.3,0.4c0.6,0,0.7,0.2,0.5,0.7c-0.2,0.4-0.2,0.4,0.2,0.5
		c0,0.1-0.1,0.3-0.1,0.4c0.3,0.4,2.1-0.4,2.6-1.2c0.1,0.1,0.1,0.2,0.2,0.3c0,0,0.1,0,0.1,0c0-0.3-0.1-0.6-0.1-1c0,0,0.1,0,0.2,0
		c0.1-0.2,0.1-0.3,0.2-0.5c0.1-0.1,0.2-0.2,0.4-0.5C71.4,58.6,72.1,58.1,72.1,57.8z M59.4,26.3c0.3-0.5,0.1-0.7-0.4-1
		c-0.2-0.1-0.3-0.6-0.4-0.9c-0.1-0.1-0.1-0.3-0.1-0.4c-0.1,0-0.1,0-0.2,0c-0.1,0.3-0.1,0.6-0.2,0.8c-0.3-0.2-0.6-0.4-0.9-0.6
		c-0.1,0-0.1,0.1-0.2,0.1c0.1,0.6,0.3,1.2,0.4,1.9c0.3-0.1,0.6-0.2,0.8-0.2c0.4,0.3,0.2,1,0.9,1.2c0.1,0,0.1,0.3,0.2,0.5
		c0.2,0.1,0.5,0.1,0.7,0.2c-0.2,0.2-0.4,0.5-0.6,0.7c0,0,0.1,0.1,0.1,0.1c0.4-0.1,0.8-0.3,1.1-0.4c0.1-0.5,0.1-1-0.4-1.3
		c-0.1-0.1-0.4,0.1-0.6,0.1c0.1-0.3,0.2-0.7,0.3-1c-0.1,0-0.1-0.1-0.2-0.1C59.7,26.1,59.5,26.2,59.4,26.3z M15.1,44.2
		c-0.2-0.3-0.5-0.6-0.8-1.1c-0.1,0.3-0.1,0.6-0.1,0.8c-0.1,0-0.1,0-0.2,0.1c-0.1-0.2-0.1-0.5-0.2-0.7c-0.1-0.2-0.2-0.4-0.3-0.6
		c-0.2-0.4-0.4-0.8-0.6-1.1c-0.1-0.1-0.2-0.2-0.4-0.2c-0.1,0.1-0.2,0.3-0.2,0.4c0,0.6,0,1.2,0.1,1.9c0,0.3,0.1,0.6,0.6,0.6
		c0.2,0,0.5,0.3,0.7,0.5C14.2,44.6,14.6,44.4,15.1,44.2z M62.2,45.1c0,0.2-0.1,0.4-0.2,0.6c0.2,0.5,0.3,0.9,0.5,1.4
		c0.1,0.3,0.3,0.4,0.6,0.2c0.5-0.4,0.9-0.7,0.5-1.4c0-0.1,0.3-0.4,0.5-0.6c-0.3-0.3-0.4-0.9-1.1-0.5c-0.1,0-0.3-0.2-0.5-0.4
		C62.3,44.7,62.2,44.9,62.2,45.1z M15.2,51.5c-0.2,0-0.2,0-0.9,0.8c0.1,0.1,0.3,0.1,0.4,0.2c0.2,0.2,0.6,0.4,0.6,0.6
		c-0.1,1.3,0.8,2,1.6,2.9c-0.1-0.7-0.1-1.3-0.2-1.8c-0.1-0.5-0.4-0.2-0.6-0.1c-0.6-0.8,0.2-1.5,0.2-2.2c-0.4,0-0.7,0-1.1,0
		C15.2,51.8,15.2,51.7,15.2,51.5z M30.7,45.4c0-0.1,0-0.1,0-0.2c0.4,0,0.7-0.1,1-0.1c0.2-0.3,0.6-0.7,0.5-0.9
		c-0.3-0.8,0.5-0.7,0.8-1.1c-0.4-0.1-0.8-0.3-1.2-0.4c-0.1,0-0.4,0.1-0.4,0.2c0,0.2,0.1,0.5,0.2,0.8c-0.2,0.1-0.5,0.2-0.8,0.3
		c0,0.1,0.1,0.4,0.2,0.7c-0.3,0-0.5,0.1-0.7,0.1c0-0.3,0-0.5,0.1-0.8c-0.1-0.1-0.3-0.2-0.4-0.3c-0.2,0.2-0.4,0.4-0.5,0.6
		C29.8,44.7,30.2,45,30.7,45.4z M41.2,55.9c0.1,0.2,0.4,0.3,0.6,0.5c0.3,0.2,0.5,0,0.5-0.3c0-0.3,0-0.5,0-0.9
		c-0.2,0.1-0.4,0.2-0.6,0.4c0.1-0.2,0.1-0.4,0.2-0.5c-0.2-0.1-0.3-0.2-0.5-0.3c0.1-0.2,0.1-0.3,0.2-0.5c-0.3-0.1-0.5-0.2-0.9-0.3
		c0.5-0.6,0-1.1-0.3-1.6c-0.3,0.2-0.3,0.4-0.1,1c0.1,0.3,0.1,0.6,0.2,1.1C40.6,54.9,40.9,55.4,41.2,55.9z M10.8,56
		c0-0.5-0.2-0.7-0.7-0.6c-0.4,0-0.8,0.2-0.7,0.7c0,0.3,0,0.7,0,1c0,0.2,0.3,0.4,0.5,0.4c0.4-0.1,0.8-0.3,1.1-0.3
		C10.9,56.7,10.8,56.3,10.8,56z M74.8,55.7c0.3-0.7,0.3-1.4-0.1-2.2c0,0.1-0.1,0.3-0.1,0.4c-0.7,0-1,0.6-0.6,1.2
		c0.2,0.4,0.5,0.8,0.8,1.2c0.1,0.2,0.2,0.3,0.3,0.5c0.1,0.6,0.2,0.6,0.9,0.4C75.5,56.7,75.1,56.2,74.8,55.7z M81,52.4
		c0.1,0.2,0.3,0.3,0.4,0.4c0,0.1,0,0.4-0.1,0.5c-0.2,0.2-0.5,0.3-0.7,0.5c-0.1,0.2-0.3,0.4-0.3,0.6c0,0.2,0.2,0.5,0.4,0.5
		c0.3,0,0.7-0.1,0.9-0.3c0.3-0.3,0.6-0.8,0.2-1.3c-0.2-0.3-0.1-0.7-0.1-1c0-0.1,0-0.3-0.1-0.5C81.4,52,81.2,52.2,81,52.4z
		 M29.8,45.7c-0.1,0-0.2,0.2-0.3,0.3c-0.2,0.4,0.3,1.4,0.6,1.5c0.5,0.2,1-0.2,0.9-0.8c-0.1-0.4,0-0.6,0.4-0.6
		c-0.2-0.5-0.9-0.6-1.3-0.2C30,45.8,29.9,45.7,29.8,45.7z M87.8,49.7c0.1,0.5,0.3,0.9,0.5,1.4c0.1,0.1,0.3,0.2,0.3,0.4
		c0.1,0.2,0.2,0.4,0.4,0.7c0.6,0.1,0.5,0,0.6-0.6c0.1-0.9-0.4-1.2-1-1.5c-0.3-0.1-0.5-0.4-0.8-0.7C87.8,49.6,87.8,49.6,87.8,49.7z
		 M58.2,45.8c0,0.4,0.3,0.6,0.7,0.5c0.1,0,0.2,0,0.3,0c0.2,0.1,0.4,0.1,0.6,0.2c0,0,0.1-0.1,0.1-0.1c-0.2-0.4-0.3-0.8-0.5-1.2
		c-0.2-0.3-0.6-0.5-1-0.8C58.3,45,58.2,45.4,58.2,45.8z M16.5,47.6c-0.4-0.5-0.7-0.8-0.6-1.3c0-0.2-0.2-0.4-0.4-0.6
		c-0.4,0.6-0.4,1,0.1,1.4c0.1,0.1,0.3,0.3,0.4,0.4c0.1,0.8,0.4,0.5,0.9,0.3c0.6-0.3,0.1-0.7,0.1-1c0-0.2-0.1-0.4-0.2-0.5
		C16.3,46.5,16.3,46.7,16.5,47.6z M43.1,44.2c-0.1,0.4-0.2,0.7-0.3,1.3c0.3-0.2,0.4-0.3,0.5-0.3c0.2,0.4,0.3,0.7,0.5,1
		c0.1,0.1,0.2,0.1,0.3,0.2c0.1-0.1,0.1-0.2,0.2-0.3c0.1-0.3,0.1-0.7,0.2-1.1C44,44.7,43.6,44.5,43.1,44.2z M23.6,51.5
		c-0.1,0-0.1,0-0.2-0.1c-0.1,0.3-0.3,0.6-0.4,0.9c0,0,0.1,0.1,0.1,0.1c0.4-0.4,0.6-0.3,0.7,0.2c0,0.3,0.3,0.7,0.5,1.1
		c0,0,0.2,0,0.3,0c0-0.3,0.1-0.6,0.1-0.8c0-0.3,0.1-0.6,0-0.8C24.6,52,24.2,52,23.9,52c0,0.1-0.1,0.1-0.1,0.2
		C23.7,51.9,23.7,51.7,23.6,51.5z M30.5,55.8c-0.1,0.2-0.2,0.5-0.3,0.7c0,0,0.1,0.1,0.1,0.1c0.2-0.1,0.3-0.1,0.4-0.1
		c0.4,0.2,0.7,0.4,1.1,0.6c0.2-1.3-0.9-1.4-1.4-2c-0.1,0-0.1,0.1-0.2,0.1C30.4,55.4,30.5,55.6,30.5,55.8z M39.2,52
		c0.1,0.5,0.1,0.5,0.6,0.5c0.1-0.3,0.3-0.7,0.3-1c0-0.1-0.2-0.4-0.2-0.4c-0.5,0.2-0.6-0.1-0.8-0.5c0-0.1-0.2-0.1-0.4-0.2
		C38.9,51,39.1,51.5,39.2,52z M17,43.2c0.4,0.1,0.7,0.2,1,0.4c0-0.5,0.1-0.8-0.5-0.7c-0.2,0-0.4-0.1-0.5-0.2c-0.8-0.2-1,0-1,1
		C16.4,43.5,16.8,43.3,17,43.2z M71.1,31.4c-0.1,0-0.1,0-0.2,0c0,0.3-0.1,0.6-0.1,1c0.3-0.1,0.4-0.2,0.6-0.2c0.1,0.3,0.3,0.7,0.4,1
		c0.2-0.2,0.7,0.5,0.9-0.3c-0.4-0.1-0.7-0.2-0.7-0.7c0-0.1-0.4-0.2-0.7-0.4C71.2,31.8,71.1,31.6,71.1,31.4z M44.2,56.2
		c-0.2,0.1-0.3,0.1-0.6,0.2c0.2-0.3,0.4-0.6,0.6-0.9c-0.4,0.1-0.8,0.1-1,0.1c0,0.5-0.1,0.8-0.1,1.2C43.8,57.1,43.9,57.1,44.2,56.2z
		 M48.5,45.4c0.1,0,0.1,0.1,0.1,0.2c0.1,0.4,0.2,0.8,0.3,1.2c0.2,0,0.2,0,0.2,0c0-0.6,0.1-1.1,0-1.6c0-0.2-0.5-0.4-0.8-0.6
		C48.3,44.8,48,45.2,48.5,45.4z M63.1,31.6c0.1,0.3,0.1,0.4,0.2,0.6c0,0,0.1,0,0.1,0c0.1-0.3,0.2-0.6,0.3-1c-0.2,0-0.4,0-0.6,0
		c-0.1-0.2-0.2-0.4-0.3-0.7c-0.2,0.4-0.7,0.6-0.2,1.2c0.2,0.2,0,0.6,0,0.9c0,0,0.1,0,0.1,0.1C62.9,32.4,63,32,63.1,31.6z M49.1,54.2
		c0-0.1,0.1-0.1,0.1-0.2c0-0.2,0.1-0.6,0-0.7c-0.2-0.1-0.5-0.1-0.8-0.1c0,0.2,0.1,0.5,0.1,0.7c0,0,0,0.1,0,0.1
		c-0.1,0.1-0.2,0.2-0.3,0.3C48.8,54.8,48.9,54.7,49.1,54.2z M24.9,56.6c0.1,0,0.2,0,0.2,0.1c0.1-0.6,0.3-1.2,0.4-1.9
		c-0.7,0.4-1.2,0.7-1.9,1.1c0.6,0,1,0,1.5,0C25,56.3,24.9,56.5,24.9,56.6z M63.7,55.7c0.6-0.3,0.8-0.8,0.6-1.3
		c-0.1-0.2-0.4-0.3-0.5-0.5c-0.1,0-0.1,0.1-0.2,0.1C63.6,54.6,63.7,55.1,63.7,55.7z M71.3,35.5c0.1-0.1,0.1-0.1,0.1-0.1
		c-0.2-0.4-0.3-0.9-0.6-1.3c0.1,0.7-0.6,0.7-1,1c0.4,0.1,0.7,0.7,1.1,0C71.1,35.3,71.2,35.4,71.3,35.5z M10.5,50.5
		c0.2-0.1,0.4-0.2,0.7-0.3c0-0.2,0.1-0.5,0-0.7c-0.1-0.2-0.3-0.3-0.5-0.5c-0.1,0.1-0.1,0.3-0.2,0.4c-0.1,0.2-0.2,0.3-0.3,0.5
		C10.2,50.2,10.4,50.4,10.5,50.5z M49.9,50.4c0.9-0.3,1.1-1.3,0.4-2C50.2,49.1,50.1,49.7,49.9,50.4z M22.1,53.6
		c-0.2,0.8,0,1.2,0.8,1.3c0.1,0,0.2,0,0.3-0.1c0,0,0-0.2,0-0.2c-0.6-0.2-0.3-0.8-0.4-1.2C22.5,53.5,22.3,53.5,22.1,53.6z M38.7,50.2
		c0-0.6-0.1-1-0.8-1.2C37.6,49.8,38,50.3,38.7,50.2z M52.8,53.1c-0.3-0.1-0.7-0.2-0.9-0.2c-0.2,0.1-0.3,0.4-0.4,0.7
		c0,0,0.1,0.2,0.1,0.2c0,0,0.1,0,0.2-0.1c0.1,0,0.3-0.1,0.6-0.2C52.4,53.6,52.6,53.4,52.8,53.1z M56,51.9c-0.1,0.5-0.3,0.9-0.4,1.3
		c0,0.1,0.2,0.3,0.4,0.5c0.2-0.5,0.3-0.9,0.5-1.3C56.3,52.3,56.2,52.1,56,51.9z M13.7,54.8c0-0.1-0.2-0.2-0.4-0.3
		c0,0-0.2,0.2-0.2,0.3c0,0.4,0.1,0.7,0.1,1.1C14,55.7,13.8,55.2,13.7,54.8z M68.1,55.7c-0.2-0.2-0.3-0.4-0.4-0.5
		c-0.2,0.5,0,1.1,0.6,1.6C68.7,56.3,68.4,56,68.1,55.7z M29.4,53.3c0.7,0.1,0.7-0.3,0.8-0.6c0.2-0.7-0.5-0.6-0.8-0.8
		C29.9,52.3,29.9,52.8,29.4,53.3z M26.6,49.5c-0.2,0.7-0.3,1.4-0.4,2C27,51.2,27,50.6,26.6,49.5z M14.3,41.3c0.3,0,0.6,0,0.9,0.1
		c-0.1-0.2-0.2-0.3-0.2-0.4c-0.2-0.8-0.2-0.8-1-0.2c0.2,0,0.3,0,0.4-0.1C14.3,41,14.3,41.2,14.3,41.3z M21.9,48.5
		c0.4-0.2,0.4-0.6,0.4-0.9c0-0.1-0.5-0.1-0.7-0.1c0,0.1,0,0.1,0,0.2C21.6,47.9,21.7,48.2,21.9,48.5z M21.3,57.1
		c0.2,0.1,0.3,0.1,0.5,0.2c0.1,0,0.3,0.1,0.4,0c0.1,0,0.2-0.2,0.2-0.3c0-0.1-0.2-0.2-0.3-0.3c-0.2-0.1-0.4-0.2-0.6-0.2
		C21.4,56.6,21.3,56.8,21.3,57.1z M49,55.3c0,0-0.3-0.3-0.5-0.3c-0.4-0.1-0.4,0-0.3,0.6C48.6,55.8,48.9,55.6,49,55.3z M62.9,34.2
		c0-0.1-0.1-0.3-0.1-0.4c0,0-0.3,0-0.3,0c-0.1,0.1-0.3,0.3-0.3,0.4c0,0.2,0.2,0.5,0.3,0.8C62.6,34.7,62.8,34.5,62.9,34.2z
		 M69.5,55.3c0.7,0.4,1.4,0.4,1.6,0C70.5,55.4,70,54.7,69.5,55.3z M38.3,44c-0.1-0.3-0.2-0.6-0.4-0.9c0,0-0.2,0-0.3,0
		c0,0.4,0,0.8,0.1,1.4C38,44.2,38.1,44.1,38.3,44z M68.3,51.4c-0.1-0.3-0.3-0.7-0.5-1.2c-0.2,0.6-0.3,1.1-0.4,1.7
		C67.8,51.7,68.1,51.5,68.3,51.4z M54.8,55.3c0.1,0.2,0.3,0.3,0.4,0.4c0.1-0.2,0.3-0.3,0.3-0.5c0-0.1-0.2-0.3-0.4-0.6
		C54.9,55,54.8,55.2,54.8,55.3z M73.1,51.5c-0.7,0.2-0.8,0.3-0.4,1.1c0.2-0.1,0.4-0.2,0.6-0.4C73.3,51.9,73.2,51.7,73.1,51.5z
		 M62,33.6c-0.1-0.6-0.4-0.8-0.9-0.8C60.9,33.6,61.5,33.4,62,33.6z M17.9,44.4c0-0.1,0.1-0.1,0.1-0.2c-0.3-0.1-0.6-0.3-0.9-0.4
		c-0.2,0-0.3,0.2-0.5,0.4c0,0.1,0.1,0.1,0.1,0.2C17,44.3,17.5,44.4,17.9,44.4z M28.3,43c-0.1,0,0,0.2,0,0.3c0,0,0.2,0.1,0.3,0
		c0.3-0.3,0.6-0.5,0.9-0.8c0,0,0-0.1,0-0.2c0,0-0.1-0.1-0.1-0.1C29,42.5,28.7,42.7,28.3,43z M38.8,45.6c0.1,0.3,0.1,0.5,0.2,0.7
		c0.1,0.2,0.3,0.3,0.4,0.6C39.7,46.5,39.5,46,38.8,45.6z M11,52.5c0.4-0.3,0.4-0.6,0-1.3c-0.1,0.2-0.3,0.3-0.3,0.4
		C10.7,51.9,10.9,52.2,11,52.5z M54.4,48.4c0.1,0,0.1-0.1,0.2-0.1c-0.2-0.4-0.4-0.9-0.5-1.3c-0.1,0-0.2,0.1-0.3,0.1
		C54.1,47.5,53.8,48.1,54.4,48.4z M46.1,49.6c-0.1,0.5-0.1,1-0.2,1.4c0.1,0,0.1,0,0.2,0C46.7,50.2,46.7,50.1,46.1,49.6z M65.9,34.7
		c0.1,0.1,0.3,0.2,0.4,0.3c-0.1,0.2-0.2,0.3-0.3,0.5c0,0,0.1,0.1,0.1,0.1c0.2-0.2,0.4-0.4,0.6-0.6C66.3,34.5,66.3,34.5,65.9,34.7z
		 M60.7,29.4c-0.1,0.4,0.2,0.5,0.5,0.5c-0.1-0.3-0.1-0.6-0.1-0.9c-0.1-0.5-0.3-0.5-0.5-0.3C60.6,29.1,60.7,29.3,60.7,29.4z
		 M28.2,48.4c-0.1,0-0.1,0-0.2,0c0,0.4-0.3,0.9,0.3,1.4C28.3,49.2,28.2,48.8,28.2,48.4z M48.3,57c0.1-0.2,0.2-0.4,0.3-0.6
		c-0.4,0-0.7,0-1.1,0C47.4,56.8,47.4,56.8,48.3,57z M71.2,53c-0.1,0-0.1,0.1-0.2,0.1c0.1,0.2,0.2,0.4,0.3,0.6
		c0.2-0.2,0.4-0.3,0.6-0.5c0,0-0.1-0.1-0.1-0.1c-0.1,0.1-0.3,0.2-0.4,0.3C71.3,53.2,71.3,53.1,71.2,53z M63.2,62
		c0.6-0.2,0.7-0.4,0.5-1.2C63,61.1,63.5,61.6,63.2,62z M77.1,39.5c-0.3-0.1-0.6-0.2-1-0.3c0.3,0.4,0.5,0.7,0.7,1.1
		C76.9,39.9,77,39.7,77.1,39.5z M72.5,56.3c0.1,0.2,0.2,0.3,0.4,0.4c0,0,0.3-0.2,0.3-0.2c-0.1-0.2-0.2-0.3-0.4-0.6
		C72.7,56.1,72.5,56.3,72.5,56.3z M44,42.2c-0.1,0-0.1,0-0.2,0c0,0.3-0.1,0.6,0,0.9c0,0.1,0.2,0.2,0.4,0.2c0.1,0,0.1-0.1,0.2-0.1
		C44.2,42.9,44.1,42.5,44,42.2z M85.8,49.6c-0.1,0.4-0.3,0.6-0.3,0.8c0,0.2,0.3,0.3,0.5,0.4c0,0,0.1-0.1,0.1-0.1
		C86,50.4,85.9,50.1,85.8,49.6z M42.3,43.8c0.6,0.3,0.9,0.1,0.9-0.7C42.9,43.4,42.6,43.6,42.3,43.8z M85,55.4c-0.1,0-0.2,0-0.3,0
		c-0.1,0.2-0.2,0.4-0.1,0.7c0,0.1,0.2,0.2,0.5,0.3C85,56,85,55.7,85,55.4z M31.1,53.9c0-0.1,0.1-0.2,0.1-0.3c-0.2-0.2-0.4-0.5-1-0.1
		C30.6,53.7,30.9,53.8,31.1,53.9z M41.2,44.4c0.1,0,0.1,0,0.2,0c0-0.4,0.4-0.8-0.4-1.1C41.1,43.7,41.2,44,41.2,44.4z M34.5,52.1
		c-0.3,0.6-0.1,0.8,0.6,0.9C34.8,52.7,34.7,52.5,34.5,52.1z M50.9,52c0.2,0.2,0.3,0.3,0.6,0.5c0-0.4,0.1-0.6,0.1-0.9
		c-0.1,0-0.2,0-0.2,0C51.2,51.7,51.1,51.8,50.9,52z M11.6,54c0,0.1,0.1,0.3,0.2,0.5c0.2-0.4,0.3-0.7,0.5-1c-0.1,0-0.1-0.1-0.2-0.1
		C12,53.6,11.8,53.7,11.6,54z M11.4,52.6c0,0.2,0.1,0.4,0.2,0.6c0,0,0.1,0,0.2,0c0-0.1,0-0.2-0.1-0.4c0-0.1,0-0.3,0-0.4
		c0,0-0.1,0-0.1,0C11.6,52.5,11.4,52.6,11.4,52.6z M69,34.7c0.3-0.1,0.5-0.2,0.5-0.3c0.1-0.3,0.2-0.6,0.3-0.8c-0.1,0-0.1,0-0.2,0
		C69.5,33.8,69.3,34.2,69,34.7z M68.5,65.9c-0.1-0.2-0.1-0.4-0.2-0.6c-0.2,0.3-0.3,0.4-0.5,0.6c0,0.1,0,0.1,0.1,0.2
		C68,66,68.2,65.9,68.5,65.9z M61.3,30.5c-0.2,0.6,0.4,0.4,0.6,0.5c0.1,0,0.2-0.1,0.4-0.2C61.9,30.7,61.6,30.6,61.3,30.5z M39.7,48
		c0.2-0.3,0.3-0.5,0.4-0.8c-0.3,0-0.5,0-0.9,0C39.4,47.5,39.5,47.7,39.7,48z M78.5,59.2c0.5,0.1,0.7-0.2,0.5-1
		C78.8,58.6,78.6,58.9,78.5,59.2z M37,42.7c-0.3,0-0.5-0.1-0.8-0.1c0,0.3,0,0.5-0.1,0.9C36.5,43.2,36.7,43,37,42.7z M86.9,52.4
		c0,0.7,0,0.7,0.8,0.2C87.4,52.6,87.1,52.5,86.9,52.4z M64.8,33.6c0.1,0.3,0.2,0.6,0.2,0.8c0,0.1,0.1,0.1,0.2,0.1
		c0.1,0,0.2-0.1,0.2-0.1c0-0.2,0-0.3,0-0.5C65.2,33.8,65,33.7,64.8,33.6z M9.2,58.9c0.2,0.1,0.3,0.2,0.4,0.2
		c0.1-0.3,0.2-0.5,0.2-0.8c-0.1,0-0.1-0.1-0.2-0.1C9.5,58.5,9.4,58.7,9.2,58.9z M47.6,44.5c0.1-0.3,0.1-0.6-0.3-0.6
		c-0.1,0.3-0.1,0.5-0.2,0.9C47.3,44.7,47.6,44.6,47.6,44.5z M49.8,45c0.3-0.1,0.6-0.1,0.9-0.2C50,44.4,50,44.4,49.8,45z M33.1,43
		c0,0.2,0,0.5,0,0.8c0.2-0.1,0.4-0.2,0.6-0.3C33.5,43.3,33.3,43.2,33.1,43z M57.3,44.7c0,0-0.1-0.2-0.2-0.3
		c-0.1,0.2-0.2,0.4-0.4,0.6c0.1,0,0.1,0.1,0.2,0.1C57,45,57.1,44.9,57.3,44.7z"/>
	<path class="st0" d="M74.6,61.5c-0.1,0.2-0.2,0.4-0.3,0.6c0.3,0.3,0.6,0.6,1,0.8c0.1,0.1,0.6-0.3,0.7-0.5c0.2-0.5,0.2-1,0.3-1.6
		c-0.3,0.3-0.9,0.2-1,0.7C75.3,61.6,74.9,61.5,74.6,61.5z"/>
	<path class="st0" d="M23.3,40.2c0-0.1,0.1-0.2,0.1-0.3c0.1-0.2,0.1-0.4,0.2-0.7c-0.3,0.2-0.6,0.3-0.8,0.4c0,0,0,0,0,0
		c0,0.3,0,0.6,0,1C23.1,40.4,23.2,40.3,23.3,40.2z"/>
	<path class="st0" d="M23,61.1c0.2-0.1,0.3-0.2,0.5-0.4c-0.1-0.1-0.2-0.2-0.2-0.2c-0.2,0.1-0.3,0.2-0.5,0.3C22.9,60.9,23,61,23,61.1
		z"/>
	<path class="st0" d="M70.5,64.5c0,0.7,0,0.7,0.3,0.9c0.1-0.2,0.1-0.5,0.2-0.8C70.9,64.6,70.7,64.5,70.5,64.5
		C70.5,64.5,70.5,64.5,70.5,64.5z"/>
	<path class="st0" d="M7.4,61.1c-0.4,0-0.8,0-1.2,0c0,0,0,0.1-0.1,0.1c0.2,0.1,0.3,0.2,0.5,0.2C6.8,61.4,7.1,61.2,7.4,61.1
		C7.4,61.1,7.4,61.1,7.4,61.1z"/>
	<path class="st0" d="M12.4,61.4c-0.3,0-0.6-0.1-0.8-0.1C11.8,61.8,11.9,61.9,12.4,61.4z"/>
	<path class="st0" d="M81.3,40.7c0.1-0.2,0.2-0.3,0.3-0.5c0,0,0.1,0,0.1,0.1c-0.1-0.2-0.1-0.3-0.2-0.5C81,40,81,40.2,81.3,40.7
		C81.3,40.7,81.3,40.7,81.3,40.7z"/>
	<path class="st0" d="M22.1,43.6c0.2-0.1,0.4-0.2,0.7-0.3c0,0,0.1,0.1,0.1,0.1c-0.1,0.2-0.1,0.4-0.2,0.6c0.2,0.1,0.5,0.3,0.7,0.4
		c0.1-0.1,0.2-0.3,0.3-0.3c0.2,0,0.3,0.2,0.5,0.3c0.2-0.1,0.5-0.3,0.8-0.4c-0.1-0.1-0.1-0.3-0.2-0.4c-0.1,0-0.1-0.1-0.2,0
		c-0.5,0.2-0.8,0.1-1.2-0.3c-0.2-0.2-0.5-0.3-0.7-0.2c-0.3,0.1-0.5,0.3-0.8,0.4C22,43.5,22,43.5,22.1,43.6z"/>
	<path class="st0" d="M24.7,46.4c0.2,0.2,0.3,0.3,0.4,0.3c0.1,0,0.2-0.2,0.3-0.3c-0.1-0.1-0.2-0.3-0.3-0.3
		C25.1,46.1,24.9,46.3,24.7,46.4z"/>
	<path class="st0" d="M24.2,47.1c0.2,0,0.4,0,0.8-0.1c-0.3-0.2-0.4-0.3-0.6-0.5C24.3,46.7,24.2,46.9,24.2,47.1
		C24.2,47.1,24.2,47.1,24.2,47.1z"/>
	<path class="st0" d="M24,45.4c0.2,0.1,0.4,0.2,0.6,0.3c0-0.1,0.1-0.1,0.1-0.2c-0.2-0.1-0.4-0.2-0.6-0.3C24.1,45.2,24,45.3,24,45.4z
		"/>
	<path class="st0" d="M32.2,49.1c0-0.1-0.1-0.2-0.1-0.2c0.3-0.3,0.5-0.5,0.8-0.7c0-0.1-0.1-0.1-0.1-0.2c-0.1,0.1-0.2,0.2-0.3,0.2
		c-0.2-0.2-0.4-0.3-0.8-0.6c-0.1,0.2-0.3,0.3-0.4,0.5c0.4,0.2,0.7,0.4,0.3,0.9C31.9,49.1,32.1,49.1,32.2,49.1
		C32.2,49.1,32.2,49.1,32.2,49.1z"/>
</g>
</svg>
