<?xml version="1.0" encoding="utf-8"?>
<!-- Generator: Adobe Illustrator 27.8.0, SVG Export Plug-In . SVG Version: 6.00 Build 0)  -->
<svg version="1.1" id="Layer_1" xmlns="http://www.w3.org/2000/svg" xmlns:xlink="http://www.w3.org/1999/xlink" x="0px" y="0px"
	 viewBox="0 0 1920 1003.1" style="enable-background:new 0 0 1920 1003.1;" xml:space="preserve">
<style type="text/css">
	.st0{fill:#D37B32;}
</style>
<g>
	<path d="M473.9,224.3c-1.3-13.8-6.9-24.6-16.8-32.3c-9.9-7.7-24-11.6-42.3-11.6c-12.1,0-22.2,1.6-30.3,4.7
		c-8.1,3.1-14.1,7.4-18.2,12.9c-4,5.5-6.1,11.7-6.3,18.7c-0.3,5.8,0.9,10.9,3.5,15.3c2.6,4.4,6.4,8.3,11.4,11.6
		c5,3.3,11,6.2,18.1,8.8c7.1,2.5,15,4.7,23.9,6.6l33.3,7.5c19.2,4.1,36.2,9.7,50.9,16.6c14.7,6.9,27.1,15.1,37.1,24.7
		c10,9.5,17.7,20.5,22.8,33c5.2,12.4,7.8,26.4,8,41.8c-0.1,24.4-6.3,45.3-18.6,62.7c-12.3,17.5-29.8,30.8-52.8,40.1
		c-22.9,9.3-50.6,13.9-82.9,13.9c-32.5,0-60.8-4.8-84.9-14.5c-24.1-9.7-42.9-24.4-56.3-44.1C260.3,421,253.4,396,253,365.9h89.8
		c0.8,12.4,4.1,22.8,10,31.1c5.9,8.3,14.1,14.6,24.5,18.8c10.4,4.3,22.5,6.4,36.3,6.4c12.6,0,23.4-1.7,32.3-5.1
		c8.9-3.4,15.8-8.1,20.6-14.1c4.8-6,7.3-12.9,7.4-20.7c-0.1-7.3-2.4-13.5-6.8-18.7c-4.4-5.2-11.2-9.7-20.4-13.6
		c-9.2-3.8-20.8-7.4-35-10.6l-40.5-9.4c-33.6-7.7-60.1-20.1-79.4-37.2c-19.3-17.1-28.9-40.3-28.8-69.6c-0.1-23.8,6.3-44.8,19.3-62.7
		c13-18,31-31.9,54-42c23-10,49.2-15.1,78.6-15.1c30.1,0,56.2,5.1,78.3,15.2c22.2,10.1,39.4,24.3,51.6,42.5
		c12.2,18.2,18.5,39.3,18.8,63.3H473.9z"/>
	<path d="M656.3,494.3L543.4,108.7H647l58.5,252.7h3.2l66.9-252.7h84.5L927,361.9h3.2L989,108.7h103.4L979.7,494.3h-90.4
		l-69.9-233.9h-3l-69.9,233.9H656.3z"/>
	<path d="M1098.1,494.3H997.3l130.9-385.6h124.9L1384,494.3h-100.8L1192,205.8h-3L1098.1,494.3z M1084.6,342.6h210.7v70.8h-210.7
		V342.6z"/>
	<path d="M1388.5,494.3V108.7h160.3c29.1,0,54.2,5.6,75.3,16.9c21.2,11.2,37.5,26.9,49,46.9c11.5,20,17.2,43.3,17.2,69.8
		c0,26.6-5.8,49.9-17.5,69.8c-11.7,19.9-28.3,35.3-49.9,46.2c-21.6,10.9-47.2,16.4-76.9,16.4H1447v-73.4h81.5
		c14.1,0,26-2.4,35.5-7.3c9.5-4.9,16.8-11.8,21.7-20.6c4.9-8.9,7.4-19.2,7.4-31c0-11.9-2.5-22.2-7.4-31
		c-4.9-8.7-12.2-15.5-21.8-20.2c-9.6-4.8-21.4-7.2-35.4-7.2h-46.2v310.5H1388.5z"/>
</g>
<g>
	<path class="st0" d="M1107.2,798.7c-1.7-0.4-3.7-0.5-5.2-1.3c-4.4-2.2-4.3-3-0.5-5.5c0.7-0.5,1.4-1.7,1.3-2.4
		c-0.1-0.6-1.4-1.1-2.2-1.6c-2.9-1.8-5.5-0.4-8,1c-2.4,1.3-4.4,1.5-6.4-0.9c-1.1-1.4-3.1-2.1-4.6-3.1c0.1-0.3,0.3-0.6,0.4-0.9
		c-0.2,0-0.5-0.1-0.7,0c-4.3,3-5.8,2.6-7.7-2c-0.5-1.2-0.8-2.9-1.6-3.3c-2.1-1.1-4.5-1.7-6.9-2.1c-0.6-0.1-1.8,1.2-2,2.1
		c-0.7,3.1-1.1,6.3-1.5,9.4c-0.4,0-0.8,0-1.2-0.1c0-2.8,0.7-5.9-0.2-8.5c-1.4-4-4.9-1.9-8-1.7c0,1.3,0,2.6,0,3.8c-0.1,0-0.3,0-0.4,0
		c-0.8-3.1-1.4-6.3-2.5-9.3c-0.3-0.8-2-1-2.8-1.7c-2.9-2.9-6.3-3.1-9.8-1.4c-0.9-3.9,0-6,3.4-8.1c3.2-2,3.6-6.1,1.2-9.5
		c-2.1-2.9-0.9-4.9,1-6.7c9.8-9,19.7-18,29.6-26.9c7.3-6.5,14.6-13,22.4-18.9c9.8-7.6,19.9-14.7,30-21.9
		c7.8-5.6,15.5-11.1,23.4-16.4c3-2,6.2-3.7,9.4-5.2c0.8-0.4,2.3,0.7,3.8,1.2c1.6-6,6.4-7.8,11.8-9.9c4.6-1.7,8.3-6,12.6-8.9
		c3.1-2.1,6.5-3.6,9.9-5.5c0.8,1.5,1.5,2.7,2.5,4.6c0.9-2.7,1.5-4.6,2.3-6.4c0.3-0.8,0.9-1.7,1.6-2.1c3.5-2.2,7.2-4.3,10.7-6.5
		c2.3-1.5,5-2.9,6.6-5c2.8-3.6,7.2-3.3,10.7-5.3c0.5-0.3,1.8,0.9,3,1.6c0.3-0.7,0.8-1.2,0.6-1.5c-2.1-5,2.4-6,5-7.9
		c3.9-2.9,8-5.5,11.9-8.3c4-2.9,7.9-5.8,11.8-8.8c2.8-2.1,5.3-4.5,8.2-6.5c3.3-2.3,6.8-4.3,10.4-6.6c0.4,1.3,0.7,2.4,1,3.4
		c0.3,0.1,0.6,0.2,1,0.3c0.5-1,1.3-1.9,1.3-2.9c0.3-6.3,2.5-9,8.9-10.6c1-0.3,1.8-1.4,2.7-2.1c1.5-1.2,3-2.3,4.6-3.4
		c0.6-0.5,1.2-0.9,1.9-1.3c1.7-1.1,3.5-2.1,5.3-2.9c1.7-1.2,3.4-2.5,5.4-4c0.4-4.2,3.9-7.2,8.7-6.8c0.8,0.1,1.6-0.4,2.4-0.3
		c1,0,2,0.3,3,0.5c-0.3,1-0.7,2.1-1,3.1c-0.1,0.4-0.6,0.6-0.7,1c-0.8,5.3-1.7,10.7-2.3,16.1c-0.1,1,0.5,2.3,1,3.3
		c1.7,3.3,2.3,6.3-0.9,9.1c-2,1.7-1.8,3.5-1.4,6.1c0.5,3.7-0.4,7.6-0.9,11.4c-0.9,6.1-1.8,12.2-3,18.3c-1,5.5-2.4,11-3.6,16.5
		c0.4,0,0.8,0.1,1.2,0.1c-0.1,1.1-0.2,2.3-0.2,3.4c-0.2,6.7-4.2,12.4-5.3,18.8c-0.8,4.5-0.6,9.2-1.1,13.8c-0.3,2.3,0.2,5.5-3.9,5.2
		c-0.3,0-1,1.5-1,2.4c0,4.3,1,8.8,0.1,12.9c-0.7,3.3,0.4,6.1,0,9.1c-0.3,2.7,1.2,3.7,3.7,3.4c4.1-0.5,8.2-0.8,10.6-5.1
		c0.4-0.8,2-0.9,3.5-1.5c-1.2-0.8-2.1-1.4-2.6-1.8c1.1-2.4,2-4.6,2.8-6.4c2.8,2.4,6,5.3,9.7,8.5c-0.7,3.3,1.3,5.3,5.9,4.3
		c2.9-0.6,5.8-1.6,8.7-2.3c0.9-0.2,2.1-0.7,2.6-0.3c3.2,2.5,5.9,0,8.4-1c4.3-1.8,8.3-4.2,12.8-0.7c0.3,0.2,1,0,1.5-0.1
		c1.5-0.1,2.9-0.3,5.3-0.5c0,0,1-1.4,1.7-1.3c3.3,0.7,5.9-0.5,8.8-1.7c2.5-1.1,4.7-1.3,7.4,0.8c1.3,1,4.8-1.2,7.2-1.2
		c5.5,0.2,10.3-5.2,16.2-1.7c0.9,0.5,2.8-0.6,4.2-1c0-0.5,0.1-1.1,0.1-1.6c1.5,1.1,3,2.2,4.8,3.4c3-3.5,6.6-2,10.5,0
		c0-1.4,0-2.7,0-4.4c1.8,0.3,3.3,0.5,4.8,0.7c0.3,1.3,0.3,2.6,0.8,3.6c1.5,3.1,3.5,3.2,6,0.9c1.3-1.1,3.3-1.4,5-2.1
		c1.7-0.7,3.4-1.5,5.1-2.2c1.4-0.6,2.8-1.2,4.2-1.4c3.3-0.6,6.6-1,9.7-1.4c0.9,1.8,1.5,3,2.5,4.9c0.6-1.6,0.7-2.5,1.1-3.2
		c1.3-2.7,4.3-3.2,6.2-1c0.9,1,2.1,1.9,3.1,2.8c0.5-1.4,0.9-2.8,1.5-4.4c4.7-1.3,5-1.1,6.6,4.9c3.7,0,3.5-2.3,2.8-4.8
		c4.2,0.6,9,0.2,9.3,5.5c2.2,0.2,3.9,0.7,5.6,0.5c0.9-0.1,1.7-1.4,2.6-2c1.2-0.8,3.1-2.3,3.8-2c2.8,1.5,5.2,3.7,7.9,5.5
		c0.9,0.6,2.7,1.1,3.3,0.6c1.7-1.3,2.9-3.4,4.6-4.8c2.3-2,4.9-3.7,7.3-5.5c0.6,0.4,1.1,0.9,1.7,1.3c-0.7,1.8-1.5,3.5-2.3,5.5
		c0.7,0.4,1.9,1,3,1.6c1.2-1.1,2.3-2.1,3.4-3c0.3,0.6,0.6,1.3,1,1.9c-0.3,2.2-0.7,4.5-1.1,7.3c2.6-0.9,4.4-1.1,5.5-2.1
		c1.8-1.7,4.4-3.8,4.5-5.8c0.1-2.6-2.8-3.9-5.7-3.7l0.1,0.1c2.9-4.6,2.9-4.6,10.8-0.1c2.8-5,5.5-2.5,8.7,1.9
		c-0.2-2.8-0.3-3.9-0.4-5.9c4.1,0.8,8,1.6,12.1,2.5c-1.1,1.8,4.9,4.3-0.3,6.6c0-0.9,0-1.8,0-2.8c-2.4,0.7-4.4,1.2-6.8,1.9
		c-0.4-0.3-1.3-1.3-2.3-2.2c-0.5,1.8-0.3,3.1,0,4.3c0.3,1.2,0.4,2.5,1,3.6c1.2,2.2,2.7,4.3,4.1,6.5c-0.3,1-0.7,2-1,2.9
		c2.8,0.9,0.6,2.2,0.3,3.4c-0.4,1.5-0.5,3.1-0.7,4.7c-2.1,1.3-4.3,2.6-6.8,4.1c0,0.2,0.1,1.1,0.1,2.1c-1.1-0.3-2.1-0.7-3.2-1
		c-1-3.7-2.1-7.4-3-10.4c-2.2,0.3-4.7,1.4-6.3,0.7c-1.8-0.8-2.8-3.4-4.3-5.2c-2.1,1.4-4.4,3-6.5,4.4c-1-1-1.5-2-2.3-2.4
		c-2.1-0.9-4.2-2-6.4-2.3c-1.3-0.1-4,1.1-4.1,1.9c-0.4,4.4-1.5,5.5-5.7,4.5c-3.6-0.8-4.6-0.5-5.6,1.4c1.8,1.2,3.6,2.4,5.5,3.7
		c-2.1,1.5-3.6,2.5-5.1,3.6c-1.6-1.8-3.3-3.6-5.4-5.9c-0.7,0.4-2.3,1-3.4,2.1c-1.2,1.2-3.1,3.2-2.8,4.3c0.9,3.7,1.1,6.6-3,8.8
		c1.7,0,2.6-0.8,3.7-1.1c1.9-0.6,4-1.7,5.7-1.3c1.4,0.4,3.4,3.7,3.1,4c-2.6,3.3,0.6,4.7,1.9,6.7c0.2,0.3,0.6,0.7,0.5,1
		c-0.9,4.6,2.3,5.7,6,6.5c-0.7,4.1,3.8,7.1,1.8,11.6c-0.3,0.6,2.3,2.5,3.6,3.8c0-4.6-1.7-8.4-1.4-12.1c0.3-4.4,3.3-5.7,8.5-5.2
		c0.2-1.4,0.3-2.9,0.5-4.3c0,0-0.1,0.1-0.1,0.1c5.3,0.7,6.5-0.2,7.5-6c0.2-1.5-1.1-3.3-1.8-5.4c5.3-3.5,5.3-3.5,7.7,1.1
		c-0.9,0.7-1.7,1.4-2.8,2.4c0.9,0.2,1.4,0.5,1.6,0.4c2.5-2.2,4.9-4.4,7.4-6.6c1.6-1.5,3.2-2.9,4.8-4.4c0,2.8,0,5.6,0,8.3
		c0.5,0,1,0.1,1.5,0.1c0.7-2.6,1.3-5.2,2-7.8c1.4,1.3,2.7,2.7,4.1,4c2.5-5.3,5-10.5,7.6-16.1c-0.5-1.4-1.2-3.2-1.9-5.1
		c0.8-1.1,1.7-2.3,2.5-3.4c-3.2-3.5-3.2-5-0.1-8c1,2.1,1.9,4.2,3.1,6.8c1.3-1,2.8-2.2,4.9-3.8c-1.8-0.5-3-0.8-5.3-1.4
		c1.5-1.2,2.6-2,3.6-2.8c1-0.8,2.2-1.5,2.7-2.5c0.3-0.6-0.5-1.8-1.2-3.7c2.9,1,5.3,1.8,8.1,2.8c0.7-6,5-3.7,8.8-3.5
		c0.2,1.4,0.3,2.8,0.5,4.3c-0.9,0.1-2.1,0-2.7,0.5c-3.2,2.9-6.1,3.6-8.6-0.9c-1.6,3-3.1,5.6-4.3,7.9c1,2,2.1,4.1,3.1,6.1
		c1.2-0.7,2.7-1.6,4.2-2.6c1.4-1,2.7-2.1,3.9-3c1.3-1.9,2.7-3.8,3.9-5.8c0.4-0.6,0.3-1.5,0.4-2.3c1.1,0.7,2.2,1.5,3.7,2.5
		c0.1-0.1,0.9-0.5,1.6-1.1c1.5-1.4,3.1-4.2,4.4-4c3,0.4,6.3,1.7,8.6,3.6c1.8,1.6,2.4,4.7,3.4,7.2c0.9,2.4,1.6,4.8,2.5,7.3
		c11.1,0.7,13.1-1.2,13.4-5c0.5-5.1,5.9-9.9,0.2-15.3c0.3-0.3,0.6-0.6,0.9-0.9c1.5,0.6,3.6,0.8,4.4,1.9c1.8,2.7,2.9,5.9,4.2,8.9
		c0.5,1.1,1.1,2.2,1.4,3.3c1.9,5.9,3.7,11.8,5.6,17.7c1.6,5.1,3.6,10.1,5,15.3c1.8,6.6,3.2,13.3,4.9,19.9c0.4,1.7,1.3,3.4,1.7,5.1
		c0.6,2.5,1.5,5.2-1.9,6.4c3.2,7.1,6.7,13.9,4.2,22.2c0.4,0,0.9,0,1.3,0c0.7-0.8,1.4-1.6,2.9-3.3c0,3.3,0,5.6,0,8.2
		c3.8,0.3,3.6,4.3,4.4,7.1c0.8,2.8,0.5,5.9,0.8,8.9c0.1,1,0.6,2,1.2,2.8c1.6,2.2,1.9,3.9-1.2,4.8c1.2,5.1,0.2,6.9-4.5,9.1
		c-0.9,0.5-1.3,2-2,3.1c-4-1.9-5.7-1.4-9,2.8c-0.4-1-0.9-2-1.5-3.5c-3.5,7.6-6.3-1-10.4,0.7c0,3.5,0,7.4,0,11.3l-0.1,0
		c-0.2,1.7-0.1,3.6-0.7,5.2c-0.8,2.1-0.2,2.6,1.3,4.3c1.5,1.7,1.2,6,0.3,8.7c-0.6,2-0.5,2.7,0.5,4.5c1.2,2.1,0.7,5.1,1.1,7.7
		c0.3,2.3,0.8,4.6,1.3,6.9c0.1,0.7,0.5,1.4,0.6,2.1c0.1,3.8,0.2,7.6-0.1,11.5c-0.1,1.1-1.3,2-2.3,3.3c-1.7-6.1-3.1-11.7-4.8-17.2
		c-0.9-2.9-2.4-5.5-3.1-8.4c-0.8-3-1-6.1-1.5-9.2c-0.1-0.7-0.1-1.4-0.3-2c-1.3-5.1-2.7-10.2-3.9-15.4c-0.3-1.1-0.4-2.5,0-3.6
		c1.5-5,1.6-4.9-3.8-4.4c-0.4-3.6-1.2-4.1-5.5-2.7c-6.7,2.2-12.1,4.8-15.3,11.3c-1,2.1-5.5,2.3-7.7,1c-1.5-0.9-3.2-1.7-4.8-1.8
		c-4.9-0.3-6.7-3.4-4.4-7.7c0.8-1.6,1.2-3.5,1.8-5.3c-0.3-0.2-0.7-0.3-1-0.5c-0.8,1-1.5,2-2.4,2.9c-0.8,0.8-1.8,1.5-2.4,1.9
		c-1.3-0.5-2.4-0.9-3.5-1.3c-2-1.4-4-2.7-5.9-4.1c-0.2,1.7-0.5,3.5-0.8,5.4c2.3-0.3,4.3-0.6,6.3-0.8c-0.3,2.6-4.6,4.1-2,7.5
		c-0.8,0.5-1.6,1.4-2.4,1.3c-1.9-0.1-3.9-0.5-5.7-1.1c-2.6-1-5.2-2.2-7.6-3.6c-0.4-0.2-0.3-1.6-0.4-3.1c1.4,0.9,2.2,1.6,3.1,1.9
		c1,0.3,2.2,0.3,3.2,0.4c-0.1-0.9-0.5-1.8-0.4-2.6c0.1-0.7,0.5-1.4,0.8-2c-4.6-1-9.2-3.2-13.7-2.8c-3.9,0.3-7.6,3.4-11.3,5.3
		c0.1,0.4,0.2,0.8,0.4,1.2c-0.4-0.3-1.1-0.5-1.2-0.8c-1.4-4.4-5.9-3.9-9-5.7c-0.4-0.2-1.2,0.3-1.8,0.5c-1,0.4-2.1,1-3.1,1.1
		c-2.2,0.1-5.1-1.6-5.2,2.7c0,0.3-2,0.4-2.9,0.8c-2.1,0.8-4,1.9-6.1,2.6c-0.7,0.2-1.7-0.4-2.6-0.7c1.7-1.7,5.7-1.5,4.7-5.3
		c-3-1-5.6-1.8-8.3-2.7c-2,4.5,0.3,6.5,3.7,8c-3.4,0.5-6.7,1.2-7.7-3.8c-0.3-1.4-1.8-2.6-2.8-3.9c-0.4,0.2-0.8,0.4-1.2,0.7
		c0.4,1.2,0.9,2.4,1.4,3.7c-6.5,1.7-12.9,2.8-19.6,0.9c-2.4-0.7-5.1-1.1-7.6-0.9c-3.5,0.2-5-1.2-4.7-4.6c-5.1,0.7-10,1.5-15.3,2.2
		c-3.1-2-6.7-2.6-11-2c-4.1,0.6-8.4-0.1-12.6-0.8c-1.1-0.2-2-2.1-2.7-2.9c-2.3,2.1-4.2,3.8-5.3,4.8c-2.4-0.4-3.9-0.8-5.4-0.9
		c-3.2-0.1-6.4,0.3-9.5,0c-1.4-0.1-2.7-1.5-3.7-2.9c-2-0.3-3.9-0.5-5.9-0.8c-0.6,1.7-1.2,3.4-1.8,5.1c-0.5,0-1,0.1-1.5,0.1
		c-0.4-2-0.8-4-1.4-6.9c-2.8,2.3-5.3,4.4-7.8,6.4c-6.4-5.8-6.4-5.8-16.1-3.5c0.5-1.2,0.9-2.2,1.7-4.1c-2.5,0-4.4-0.2-6.2,0.2
		c-0.4,0.1-0.4,2.2-0.7,3.9c-1.7-1.4-3.3-2.7-5.3-4.3c-0.8,1.5-1.7,3.1-2.6,4.8c-0.2,0-0.3-0.1-0.5-0.1c0.3-1.5,0.7-3,1.1-4.9
		c-2.2,0.3-3.7,0.6-5.6,0.9c0,1.7,0,3.4,0,5.8c-1.7-1.3-2.9-2.1-4.1-3c-0.3,0.6-0.6,1.3-1,2c-0.5-0.1-0.8-0.1-1-0.3
		c-1.1-0.7-2.6-2.4-3.3-2.1c-1.4,0.5-2.8,2-3.4,3.4c-1.3,3-2.2,3.2-4.7,1.3c-1.7-1.3-3.9-2.1-6-3.2c-3.5,4-8.1,2.1-12,1.7
		c-3.9-0.5-5.2,1.7-5.6,3.9c-0.7,4.5-1.4,9.4-0.2,13.6c2.8,10.2,1.8,20.4,2.1,30.7c0.3,8.9,1.1,17.8,1.6,26.8
		c0.1,2.4-0.5,4.8-0.7,7.3c-0.1,2,0,4,0.1,6c0.3,5.5,0.9,11,0.9,16.5c0,4,1.8,4.6,5,3.5c0.3,2.8,0.7,5.5,1,8.3
		c-4.5,1.7-8.6,6.3-8.3,8.5c-2.5,3-4.6,5.6-6.9,8.3c-3.6-4.8-6-9.6-5.8-15.5c0.1-2.1-0.3-4.3-0.9-6.4c-0.3-1-1.4-1.8-2.3-2.5
		c-1.1-0.9-2.5-1.4-3.4-2.4c-1.5-1.6-3.3-2.3-4.9-0.8c-0.6,0.6-0.1,2.4,0,3.6c0,0.8-0.1,1.7,0.3,2.3c0.8,1,1.8,1.8,3.5,3.2
		c0.1,2.1-6.4,5-0.6,9c-0.4,0.5-0.8,1.2-1.3,1.9c0.7,1,1.5,1.8,2,2.9c2.8,5.9,4,11.7-2.6,17.1c-1.3-3.2-3.3-6-3.7-9.1
		c-1.1-8.6-5.6-16.2-6.9-24.7c-0.5-3.1-0.7-6.2-1.2-9.2c-0.7-4-0.8-8.2-2.5-11.8c-1.5-3.3-4.6-5.8-7.1-8.5c-2.2-2.4-4.5-4.7-6.7-7.1
		c-0.4-0.4-0.5-1.1-0.9-1.3c-5.5-3.1-10.9-6.2-16.5-9.1c-0.9-0.5-2.4-0.2-3.6,0.1c-1.9,0.5-3.6,2.1-5.4-0.3
		c-0.3-0.4-2.2,0.3-3.7,0.5c-1.8-1-4.1-2.4-6.5-3.8c0.7-0.5,1.4-1,2.2-1.4c0.5-1.6,1.8-3.6,1.3-4.7c-0.6-1.3-2.7-2.5-4.3-2.7
		c-7.7-1-11.2-4-12.9-11.6c1.1,0.6,2.9,1.7,3,1.6c1.3-1.7,2.3-3.6,3.4-5.5c-2.5-1.2-4.3-1.7-5.7-2.8c-2.2-1.8-3.3-0.6-4.4,1.2
		l0.1,0.1c-1.8-1.5-3.6-3-5.6-4.6c-0.9,2-1.4,3-2.4,5c-2.3-4.1-4.2-7.6-6.2-10.9c-0.5-0.9-1.2-1.9-2-2.2c-3.2-1.3-6.6-2.4-9.9-3.5
		c-0.8-1.3-1.6-2.6-2.3-3.9c-2-1.8-3.8-3.5-0.5-5.9c0.8-0.6,0.7-2.2,1.1-3.3c-1.1-0.3-2.1-0.8-3.2-0.9c-1.2-0.2-2.4,0-3.9,0
		c0,1.5,0,2.7,0,3.9c-0.2,0.1-0.5,0.2-0.7,0.3c-0.6-1-1.1-2.2-1.9-3.1c-0.5-0.6-1.9-1.4-2.2-1.2c-3.6,2.6-3.9-0.2-4.6-2.6
		c-0.2-0.6-0.6-1.1-0.9-1.7c-5.1,3.8-4.6,8.8-3.1,14.4c-1.3-3.4-3-3.5-5.9-2.5c-2.9,1-4.9-1-6.4-3.5c-1.3-2.2-2-5.6-7-3.8
		c0.9-2,1.5-3.1,2.1-4.4c-4.2-0.2-9.1-1.9-12.3-0.3c-5,2.6-7-1-10.2-2.5c-2.1-1-4.4-1.5-6.7-1.8c-3.8-0.4-6.6-2.5-5.8-5
		c0.4-1.2,1.9-2.3,3.1-2.8c2.8-1.1,5.8-1.8,8.9-2.8c0.6,2.1,2.3,3.5,5.9,3.1c3.4-0.4,2.9,2.8,3.3,4.9c0.4,1.8,0.5,3.7,1,6.6
		c2.7-3.4,4.2-5.5,2.6-8.8c-0.5-1.1,0-3,0.6-4.2c1-2,2.7-3.7-0.9-5c-0.9-0.3-1.2-2-2.4-4.3c-0.5,1.6-0.9,2.7-1.2,3.9
		c-0.4-0.2-0.8-0.4-1.2-0.6c-0.6-1.4-1.2-2.8-1.7-3.9c-2.4-0.2-4.6-0.3-7.1-0.5c0.2,3.4-2,3.5-4.6,2.4c-1.2,5.9-1.5,6.2-5.6,4.6
		c-0.7,0.8-1.4,1.6-2.8,3.2c-0.3-1.8-0.4-2.9-0.7-4.4c-4.4,5-9,5.1-13.7,0.8c1.2-4.2,0.4-5.4-4.1-6.1
		C1104.9,795,1106.1,796.9,1107.2,798.7z M1249.9,622.4c-1.6-1.1-3.2-2.3-4.9-3.5c-1.3,2.1-2.3,3.6-3.5,5.6c2.9,0,4.8,0.2,6.8-0.1
		C1248.8,624.3,1249.3,623.1,1249.9,622.4c4.6-0.2,3-3.5,2.7-6.2c-1.1,0.7-1.9,1.7-2.3,2.7C1249.9,620.1,1250,621.3,1249.9,622.4z
		 M1362.1,796.5c1.4,1.2,2.8,2.3,4.2,3.5c2.5-4.1,2-5.5-3.4-9C1362.6,793,1362.4,794.8,1362.1,796.5c-0.8-1-1.7-2-3.2-3.8
		c-0.2,3.4-2.5,6,1.4,9.4C1361,799.8,1361.6,798.1,1362.1,796.5z M1290.4,685.1c-0.2,1.1,0.1,2.7-0.5,3.1c-2.6,1.6-1.4,3.7-1.1,5.6
		c0.4,3,1.8,6.2-3.1,7.3c2.2,2.1,3.7,2.4,5-0.2c2.5-5,2.2-10.2,1.8-15.5c0.5-2.7,1-5.5,1.4-8.2c0.1-1.1,0-2.4-0.4-3.4
		c-0.1-0.3-2.1-0.4-2.5,0c-1,1.2-2.2,2.7-2.1,4.1C1288.9,680.3,1289.8,682.7,1290.4,685.1z M1618.5,737.1c-1.4,1.7-2.8,3.4-4.3,5.2
		c-0.4-0.4-0.9-1-1.2-1.3c-0.6,2.1-1.1,4.1-1.6,6c0.2-0.1,0.5-0.1,0.7-0.2c0.2,1.1,0.4,2.2,0.6,3.3c-1.4,1.2-3.7,2.3-3.9,3.7
		c-0.3,1.7,1.1,3.8,1.8,5.7c0.8-0.5,2.3-0.9,2.3-1.5c0.1-2.6-0.1-5.3-0.3-7.9c2.9,2.4,4.8,0.5,5.3-2
		C1618.6,744.5,1618.3,740.7,1618.5,737.1c0.9-0.7,2.1-1.3,2.7-2.2c0.2-0.3-0.8-2-1.6-2.3c-0.9-0.4-2.1,0-3.4,0.1
		C1617.1,734.6,1617.8,735.9,1618.5,737.1z M1137.5,738.6c-2.7,1.8-5.5,3.6-7.8,5.1c0.8,3.7,1.4,6.5,2.1,9.8
		c0.9-2.8,1.5-4.7,2.3-7.2c-1.6-3-1.1-4.3,3.8-6.6c0.2,0.5,0.4,1,0.5,1.5c0.6-0.7,1.4-1.4,1.8-2.2c1.1-2.2,1.9-4.6,3.1-6.7
		c0.9-1.5,2.5-2.7,4.6-4.8c-2.7-0.1-4.5-0.8-5.4-0.2c-2,1.3-3.6,3.4-5.1,4.9C1137.5,734.4,1137.5,736.5,1137.5,738.6z M1522.4,764
		c0.2,1.2,0.5,2.4,0.7,3.7c0.3,1.5,0.6,3,0.9,4.5c-1,0.5-2.1,1-3.2,1.6c-1-1.2-1.7-2.2-2.5-3.2c-0.7,2-0.7,3.9-0.2,5.5
		c1.8,5.7,1.5,6.1-4.2,7.8c-0.9,0.3-1.5,2-2,3.1c-0.1,0.2,0.7,0.9,1,1.4c0.4-0.6,0.8-1.2,1.3-1.9c0.5,0.7,1.3,1.6,1.2,1.7
		c-3,3.4-6.1,6.8-9.2,10.1c0.8-0.8,1.6-1.5,2.4-2.3c0.6,2,0.9,4.1,1.8,5.9c0.3,0.6,2.1,1.1,2.6,0.8c3.2-2.4,6.7-4.3,5.9-9.5
		c-0.3-2.3,0.3-5.7,4.4-5.2c0.6,2.7,1.2,5.3,1.9,8c2.6-3.1,2.2-5.9,0.3-8.8c-0.8-1.3-1-2.9-1.3-4.4c-0.5-2.1-1-4.2-1.5-6.3
		c-0.3,0-0.5,0.1-0.8,0.1c0.7-1.4,1.3-2.9,2-4.3c2.7,4.4,4.8-2,7.4,0c0.2-0.3,0.4-0.7,0.6-1c-1.1-1.1-2.2-2.2-3.1-3.1
		c0.7-1.2,1.5-2.4,2-3.3c-2.7-0.7-4.9-1.4-7-1.8C1523.4,762.8,1522.9,763.5,1522.4,764c-1.5,0.1-3.1,0-4.5,0.4
		c-0.7,0.2-1.8,1.2-1.7,1.8c0.1,0.9,0.8,2,1.6,2.5c0.6,0.3,2.1,0.1,2.5-0.4C1521.2,767,1521.7,765.4,1522.4,764z M1178.3,767.2
		c-3.6,0.4-5.4,1.7-4.8,6c0.3,2.1-1.6,5.3-3.4,6.5c-2.3,1.4-2.7,0.7-0.8,3.5c-1.1-0.1-2.1-0.2-3.7-0.3c0.6,3.3,1.1,6.2,1.8,10
		c4.6-4.3,6.7-8.6,7.7-13.5c0.3-1.4,1.6-2.6,2.9-4.4C1178,773,1178.1,770.1,1178.3,767.2c2.4-1,2-6.2,6.3-4.5
		c0.1-0.9,0.5-1.8,0.3-2.6c-0.4-1.6-1.2-3.2-2.2-5.7c-1.4,1.6-3.2,3-3.8,4.8C1178.2,761.7,1178.4,764.5,1178.3,767.2z M1487.4,745.2
		L1487.4,745.2c-0.7,1.4-1.4,2.8-2.6,5.3c2.9,1.4,5.9,2.8,10.1,4.8c0.6-4.1,1.1-7.5,1.7-11.4c0.8-0.6,2.5-1.5,3.5-3
		c0.7-1.1,0.4-2.8,0.6-4.3c-0.9,0.9-1.8,1.8-2.7,2.7c-0.3,0.3-0.6,0.4-0.8,0.5c-2.9-3.7-5.8-7.4-8.7-11.1c-0.6,0.7-0.8,0.8-0.7,0.9
		c0.2,0.9,0.5,1.7,0.7,2.6c-7.7,0.5-8.8,4.1-3.9,13.4C1485.5,745.4,1486.5,745.3,1487.4,745.2z M1281.3,676.2
		c-2.6,5.3-5.3,10.6-8,16c-3.2-1.6,0.8-9.1-6.2-7.6c-0.3,1.3-0.6,2.6-0.9,3.7c1,1,2.6,1.7,2.7,2.7c0.4,3.6,2.7,7.1-0.3,10.9
		c-1.6,2.1-2,5.1-2.9,7.8c-1,3-0.3,4.5,2.6,5.4c0.1-1.2,0.3-2.4,0.4-3.6c0.2-2.2,5.2-5.6,7-4.3c3.4,2.4,4.5-2.2,7.1-1.8
		c0-2,0.5-4.2-0.2-5.8c-3.5-7.8-1.5-14.7,2.6-21.4c-0.8-0.7-1.6-1.5-2.5-2.3c-0.4-4.5-0.8-9-1.2-13.6c-0.5,0-1,0-1.6,0
		c-0.3,2.6-0.6,5.2-0.9,7.9c-0.4-0.7-0.8-1.5-1.4-2.2c-0.7-0.8-1.5-1.5-2.2-2.3c-0.5,0.7-1.5,1.5-1.4,2c0.2,1.3,0.9,3.3,1.6,3.5
		C1278.9,671.6,1280.2,673.7,1281.3,676.2z M1585.8,802.2c1,2.3,2.4,5.9,4.9,3.7c1.5-1.3,4.3-2.1,4.7-4.2c0.5-2.5,0.7-5.8-0.5-7.6
		c-1.6-2.4-4.1-0.3-5,1.6c-0.6,1.3,0.4,3.3,0.7,5.6c-1.4,0.2-3,0.4-4.6,0.7c-0.6-2.2-0.5-5.3-4.3-4.4c-1.8,0.4-3.6,1.1-6,1.8
		c1-4.5-0.8-8.8,4.2-10c0.3-0.1,0.2-1.5,0.3-2.3c0.1-1.2,0.4-2.4,0.4-3.6c0-1.4-0.3-2.7-0.5-5c0.9-1.4,2.6-3.7,4.1-5.9
		c1.9-0.5,3.8-1,6-1.5c-1.5-2.5-2.6-4.4-3.6-6.1c-2.2,2.5-4.3,4.9-6.5,7.3c-0.4-0.4-0.8-0.8-1.2-1.1c-0.5-6.4,4.1-7.5,10-7.7
		c-1.7-1.3-2.7-2.1-4.1-3.2c2.5-0.9,4.5-1.7,6.2-2.4c-0.6-2.2-1.7-3.9-1.2-4.8c2.6-4.5-0.4-5.2-3.8-6.3c0.1,4.3-0.5,7.9-5,9.3
		c-0.3,0.1-0.5,0.6-0.7,0.9c-1.6,4.6-2.9,9.2-4.7,13.7c-1.2,3-2.3,6.7-4.6,8.5c-3,2.2-3.4,3.2,0.2,5.4c-1.1,0.2-1.7,0.3-2.2,0.4
		c-1.1,0.3-2.1,0.7-3.1,1.1c0.8,0.6,1.7,1.1,2.3,1.9c0.9,1.1,1.5,2.4,2.2,3.7c-1.1,0.5-2.2,1.1-3.3,1.6c-0.3,0.2-0.5,0.5-0.4,0.4
		c1.4,2.9,2.9,5.5,4,8.2c1,2.5,3,3.5,4.6,1.9c3.4-3.2,4.8-1.4,6,2.1C1583.2,804.5,1584.5,803.3,1585.8,802.2z M1302.6,897.5
		c0.3-1.3,0.7-2.6,1-3.8c0.2-0.8,0.4-1.6,0.6-2.4c-0.7-0.1-1.7-0.5-2.2-0.2c-0.8,0.5-1.8,1.7-1.6,2.3
		C1300.8,894.8,1301.9,896.1,1302.6,897.5c1.7,0.4,3.3,0.8,5.1,1.3c1.4,1.7,3,3.7,4.6,5.7c0.4,0,0.7-0.1,1.1-0.1
		c0.2-2.3,0.1-4.7,0.8-6.9c0.8-2.2,2.4-4.2,4-6.6c-5.3-0.5-4.5-4.5-4.6-8.2c-0.1-3.2,0.4-6.7-0.6-9.7c-1.4-4.1-2.3-7.3,1.9-8.6
		c-1-2.9-2.1-5.5-2.9-8.1c-0.9-3-0.4-5.7,0.4-8.8c0.9-3.4-0.9-7.4-1.2-11.2c-0.7-6.8-1-13.6-1.8-20.4c-0.3-2.7-1.2-5.5-2.6-7.8
		c-0.6-1-3.2-0.9-4.8-1.2c-0.2,0-0.5,0.5-1.1,1.2c1,0.5,1.9,1.1,3,1.7c-5.5,3.6-8.3,8.6-8.3,13.9c-0.1,6.8,1.7,13.7,2.4,20.6
		c0.3,2.7,2.5,6-1.9,7.7c-0.3,0.1-0.5,1.2-0.4,1.8c0.2,2.2-1,4.4,1.9,6.3c1.7,1.1,1.9,4.3,2.9,6.8c-0.5,0.4-1.3,1.1-1.9,1.6
		c1.7,3.6,3.3,7,4.7,10.5c0.2,0.5-0.4,1.2-0.6,1.9c-0.3,1.4-0.7,2.9-0.7,4.3c0,1.1,0.5,2.2,0.7,3.2c0.9-0.5,1.9-0.9,3-1.5
		C1305.5,890.9,1307.2,895.2,1302.6,897.5z M1150.7,687.6L1150.7,687.6c-0.1,1.5-0.1,3-0.1,4.8c1.9-1.5,3.4-2.7,5.5-4.3
		c0.1-0.8,0.4-2.7,0.6-4.7c0.4,0.7,0.7,1.3,1.1,2.1c2.3-7.1,2.3-7.1,5.5-6.5c0.1,1.5,0.3,3.1,0.4,4.6c1.8-3.6,1.4-9.9,8.7-6.5
		c-0.8-0.9-1.9-1.2-2.9-1.7c-1-0.5-1.8-1.2-2.7-1.8c0.2-0.3,0.5-0.6,0.7-0.9c1.5,0.1,3.1,0.3,4.3,0.4c0.8-1.8,1-3.6,2-4.4
		c3.3-2.7,6.9-5.2,10.4-7.7c0.3,0.7,0.6,1.4,1.1,2.5c1.5-4.4,2.3-8.7,8-9c1.3-0.1,2.6-1.9,3.8-3c0.6-0.5,0.9-1.6,1.5-1.8
		c3.9-1.2,4.1-4.6,4.9-6.5c-2.6-1.8-4.5-3.1-6.7-4.6c-0.2,0.7-0.4,1.2-0.5,1.7c-0.1,0.6,0,1.2,0,1.9c-0.3-0.3-0.6-0.6-0.9-0.8
		c-1.2,0.8-3.2,1.4-3.5,2.5c-1.1,4.1-3.1,6.2-7.5,6c-3.4-0.2-5.5,0.8-7,4c-0.8,1.7-2.4,4.5-5.1,1.2c-0.3-0.4-2.6-0.1-3,0.5
		c-1.1,1.9-2.4,4.1-2.2,6c0.3,2.7-0.8,3.3-2.8,3.8c-1.4,0.3-3.1,0.2-4.3,0.8c-2.1,1.1-3.9,2.6-5.8,4c-1.2,0.9-2.4,1.8-3.8,2.5
		c-3.1,1.5-6.3,2.9-9.3,4.5c-0.3,0.2,0,1.4,0,2.2c-4-1.4-3.9-1.4-6.5,2.6c-0.9,1.3-2.7,2.1-4,3c-1.4,1-3.4,1.8-4.2,3.2
		c-1.7,3.2-6.5,4.8-10.2,2.7c0.1,1.8,0.2,3.5,0.3,4.3c-3,1.7-5.5,3.2-8.3,4.8c-0.2-0.3-0.8-1.2-1-1.5c-2.8,2.7-5.6,5.2-8.2,7.9
		c-2.4,2.5-4.7,4.7-8.5,4.8c-0.4,0-0.9,1.1-1.2,1.8c-2.6,5.3-4.3,6-9.3,3.4c0,1.7,0,3.2,0,3.8c-2.5,1.6-5.4,2.4-6.2,4.2
		c-1.8,3.8-5,4.6-8.2,5.8c-0.8,0.3-1.6,0.7-2.1,1.3c-1.3,1.5-2.2,3.3-3.7,4.5c-4.6,3.8-9.5,7.4-14.2,11.1c-1.1,0.8-1.8,2.1-2.7,3.1
		c1.3,0.9,2.6,2,4,2.6c1.3,0.5,3,0.2,4.3,0.7c1.1,0.4,2.6,1.5,2.6,2.3c0,2.4,0.4,4.4,2.8,5.1c2,0.5,4.1,0.6,6.1,0.5
		c0.4,0,1.1-1.6,1.1-2.4c0.3-4.7,4.2-8.6,8.3-8.4c0.2,0,0.5-0.2,0.8-0.4c-0.1-1-0.2-2-0.2-2.5c2.1-0.7,3.9-1.3,6.6-2.2
		c-2.4-1.2-4.1-2.1-6.4-3.4c3-2.1,6-3.6,7.9-5.9c1.9-2.3,2.7-5.5,3.9-8.1c1.5,1.8,2.3,2.7,3,3.6c1.1-1,2.6-1.9,3.3-3.2
		c0.7-1.3,0.6-3,1-5c0.8,1.1,1.4,1.9,2,2.7c0.3-1.2,0.6-2.1,0.8-3c0.4,0.2,0.8,0.4,1.3,0.6c-0.9,1.6-1.8,3.1-3,5c1.7,0,3.5,0,5.3,0
		c-2.2,1.5-4.5,3-6.8,4.6c1.9-0.2,3.7-0.3,5.7-0.5c-0.5-1.2,4.4-1.6,1.1-4.1c2-2,4-3.9,6.1-6c-1.5-3.8-0.9-4.7,3.4-4.5
		c1.9,0.1,3.9,0.3,5.8,0.7c3.6,0.9,4.4,0.2,4-3.5c-2.7,0.6-5.5,1.3-8.3,2c-0.1-0.4-0.2-0.8-0.3-1.2c1.7-0.6,3.4-1.3,5.1-1.9
		c-0.1-0.4-0.2-0.7-0.2-1.1c-1.7-0.1-3.3-0.3-5.3-0.4c2.3-3.1,4.8-2.5,7.4-1c0.7,0.4,1.3,1.1,2,1.1c2.7-0.2,5.3-0.5,8.8-0.9
		c-0.1-1.4-0.3-3-0.2-4.7c0.1-1.2,0.4-3.2,1.1-3.4c1.5-0.5,3.3-0.2,5.4-0.2c-0.5,1.4-0.9,2.3-1.3,3.1c0.2,0.2,0.5,0.5,0.7,0.7
		c3.6-3,7.2-5.9,10-8.2c0.6-4.2,0.9-7.7,1.7-11c0.2-0.7,2-1.4,3.1-1.6C1148.5,687,1149.6,687.4,1150.7,687.6z M1680.6,791.8
		c-2.3-3.4-5.1-6.1-6.1-9.4c-1.5-5.1-1.8-10.5-2.6-15.8c-0.2-1.5-0.3-3.2-0.8-4.6c-1.3-3.5-2.9-6.8-4.3-10.2c0.5,0,0.9,0,1.4,0
		c1.1-0.8,2.3-1.5,3.4-2.3c-1.6-0.5-3.2-1.1-5.4-1.8c-0.3-0.8-1.6-3-1-3.7c2.1-2.8,2.4-5.4,1-8.5c-0.8-1.9-0.9-4.2-1.3-6.3
		c-0.3,0.3-0.6,0.5-0.8,0.8c-1.4-1.1-2.8-2.2-4.1-3.4c-3-2.8-2.1-6.4-2.2-9.8c0-1.3-0.9-2.6-1.4-3.9c-0.6,0.2-1.2,0.3-1.8,0.5
		c0.6,5,1.2,10,1.8,15c0.1,1,0,2,0,3c0,3.3-0.3,6.6,0,9.9c0.3,3.1,2,6.3,1.5,9c-1.5,7.2,1.3,14.9-2.9,21.6c-0.2,0.4,0,1.1,0,1.6
		c0,2.1-0.1,4.3,0.1,6.4c0.3,4.1,0.8,8.2,1.3,12.4c0.1,1.2,0.5,2.3,0.9,4c0.8,1.7,1.8,4.1,2.8,6.4c-1.8,1-3.1,1.8-5,2.9
		c8.5,1.3,15.9,2.5,23.7,3.7c0.7-4.3,1.3-8,2-12C1679.1,795.7,1677.3,793.8,1680.6,791.8z M1400.1,791.3c5.3-3.1-1.1-6.4,0.6-9.6
		c2.6,0.6,8.7-2.7,7.9-4.5c-2.3-4.8,1.8-4.8,3.8-6.5c1.6-1.4,3.7-3,0.2-4.6c-0.5,0.9-0.9,1.7-1.4,2.5c-1.2-0.7-2.3-1.4-3.3-2
		c1.4-2.7,2.5-4.9,3.8-7c1.2-2.1,2.6-4,4-6.3c0.2-1,0.2-2.5,0.9-3.8c0.9-2,3.5-4.1,3.2-5.6c-0.7-3.2,1.7-4.4,2.7-6.5
		c0.3-0.7,1.2-1.6,1-2c-1.8-3.2,0.9-5.2,1.8-7.7c0.8-2.3,1.6-5.2,0.8-7.3c-1.4-3.8-4.2-3.4-6.7-0.5c-0.8,0.9-1.7,1.8-2.6,2.6
		c1.1,0.6,2.3,1.1,4.1,2c0-0.2,0.3,1.2,0.1,1.3c-1.9,0.9-3.9,1.5-5.5,2.1c0.5,4.1,0.9,7.8,1.3,11.5c0.3,0,0.7,0.1,1,0.1
		c-1.6,2.2-3.2,4.4-4.9,6.7c-1.2-1.6-2.1-2.7-2.9-3.7c-0.6,2-0.6,4.2-1.7,5.2c-4.2,3.7-6.5,7.9-4.7,14.3c-0.8-0.7-1.3-1-1.6-1.3
		c-1.2-1.6-2.2-1.6-2.6,0.4c-0.5,2.8-0.8,5.6-1.1,8.7c-1.4-0.4-2.6-1.2-3.4-0.9c-1.2,0.4-3.2,1.9-3.1,2.2c1.5,4-1.4,7.1-1.7,10.7
		c-0.3,3.8-1.5,6.1-5.6,4.5c-0.2,2-0.3,3.7-0.5,6.5c-0.7-2.2-1.1-3.3-1.4-4.4c-3.3,5.1,3.7,5.3,4.1,8.8c0.1,0.7,3.1,1.1,4.8,1.5
		c0.3,0.1,0.7-0.5,1-0.5c2-0.5,4.3-1.7,5.9-1.1c3.6,1.3,4.4-1,6.1-3.3C1403.2,792.9,1401.8,792.2,1400.1,791.3z M1286.8,875.5
		c0.5-1.3,1.4-2.5,1.2-3.6c-1-7.2-2.8-14.3-3.2-21.4c-0.3-5.2-3-10.8,0.6-16c0.3-0.5,0.2-1.6-0.1-2.2c-1.4-3.2-3-6.3-5-10.3
		c-0.6,2.8-1.8,5.2-1.5,7.5c0.7,5.4-3,9.1-6.1,11.6c-3.4,2.8-3.9,5.5-3.8,9.2c0.1,2,0.2,4.3-0.6,5.9c-2.9,5.4-3,5.5,2.6,7.9
		c-0.4,2.5-0.9,5.1,3.3,3.7c0.6-0.2,2.5,1.6,2.4,1.9c-2,5,2.1,6.3,5,7.1c2.8,0.7,4.3,2.3,5.6,4.4c0.5,0.8,0.9,1.6,1.4,2.5
		c0.3-0.1,0.6-0.3,0.9-0.4C1288.7,880.5,1287.7,877.8,1286.8,875.5z M1467.5,750.2c-2.5-0.6-4-0.9-5.8-1.4c0,2.6,0,4.9,0,7
		c-1.8-0.1-3.3-0.3-4.8-0.3c-0.2,0-0.7,1.6-0.5,2.1c1.2,2.6,2,4.4-0.5,7.4c-1.8,2.2-2.8,4.5-4.6,4.5c-2.1,4.1-3.8,7.5-5.4,10.7
		c0.3,2,0.7,4.3,1.2,6.9c-0.9-0.2-2.1-0.1-2.3-0.4c-0.8-1.9-2.4-4.8-1.7-5.7c3.4-4.3,0.1-6.3-2.3-9.2c-1.3,2.7-2,4.6-1.1,7.8
		c1.1,4-0.2,8.7-0.5,13.1c-0.2,2.2-1.2,5,2.2,5.2c3.1,0.2,6.3-0.4,9-0.7c0.9-4.6,1.7-8.6,2.3-12.2c1.6,0.2,2.9,0.5,3.4,0.5
		c1.7-5.6,3.2-10.5,4.8-15.7c3.9,1.2,1.3-3.6,3.1-4.8c1.3-0.2,2.5-0.3,4.1-0.5c-1.7-1.2-3-2.1-3.9-2.7c0.9-1.8,1.5-3.4,2.3-4.7
		c0.4-0.7,1.5-1.5,2-1.4c1.3,0.4,2.7,1.7,3.5-0.3c0.4-1.1-0.2-2.6-0.4-4.3c0.6-0.5,1.5-1.2,2.5-2.1c-1.2-0.8-2.2-1.5-3.4-2.4
		c3.3-2.3,1.4-5-0.2-6.3c-1.5-1.3-4.3-1.1-7-1.7C1464.9,742.6,1466,746,1467.5,750.2z M1642,744.6c0.6-3.9,0.4-7.6,1.9-10.6
		c2.3-4.8,1.7-9.8,2.2-14.8c0.3-2.9-0.3-6.1,0.6-8.8c1.3-3.7-0.5-6.7-1.4-9.8c-0.6-1.9-2.1-2.3-3.6-0.4c-2.4,3.2-4.5,3.4-7.9,1.2
		c-1.3-0.8-2.8-1.3-4.2-1.9c-0.4,0.3-0.7,0.6-1.1,0.8c3.5,3,5.1,6.2,1.8,10c-0.1,0.1,0.5,0.7,0.5,1c-0.1,1.7-0.3,3.3-0.4,5
		c-0.1,0.7-0.3,1.6,0,2c2.3,3.8,2.1,7.5,0.2,11.4c-0.8,1.6,0.8,7.3,2.3,8.2c0.4,0.2,1,0.4,1.5,0.3c5.1-1,6.2,0.1,4.9,5.4
		C1640.1,744,1640.8,744.3,1642,744.6z M1487,755.2c-0.3,0.8-1.2,2.1-1.3,3.4c-0.1,1.3,0.5,2.6,0.8,3.9c-0.3,0-0.5,0-0.8,0.1
		c-0.8-1-1.6-1.9-2.3-2.7c-1.2,2.5-2,4.6-3.3,6.5c-1,1.4-2.5,2.5-3.7,3.8c-1.1,1.2-2,2.7-3.3,3.8c-4.5,3.9-5,6.8-1.9,11.9
		c0.2,0.4,0.4,0.7,0.7,1.1c-2.4-2.5-3.9-2-4.9,1.3c-0.7-0.9-1.1-1.4-1.2-1.6c-5.1,0.8-6.4,3.7-3.8,8.1c-1.8,0.2-2.9,0.4-4,0.5
		c-0.2,0.4-0.3,0.8-0.5,1.2c3.6,1.9,7.8,5.8,10.8,5c3.8-0.9,9.3-2.3,10.9-7.9c-2.3-2.5-3.3-4.7,1.8-5.3c0.9-0.1,2.3-3.4,1.9-4.7
		c-1.3-3.8-0.4-6.6,2.3-9.3c0.9-0.9,2-2.3,1.9-3.2c-0.6-3.5,1-4.9,4.8-5c-1.2-1.3-1.9-2.1-3.2-3.6c1.9-1.6,3.6-3.2,5.1-4.5
		C1491.9,757.1,1489.9,756.3,1487,755.2z M1463.8,735.5c3,1.5,4.6,0.4,5.1-3.1c0.2-1.3,0.9-3.7,1.3-3.7c3.5,0,7,0.5,10.4,0.8
		c-0.1-2.4-0.5-5.4-0.4-8.4c0.1-1.1,1.3-2.2,2-3.2c0.8,0.6,1.7,1.1,2.4,1.7c0.9,0.9,1.7,1.9,2.9,3.2c-0.1-2.4-0.4-4.2-0.3-6.1
		c0.1-2.2-0.6-3.6-2.9-4c-2.3-0.4-4.3-0.3-5.1,2.5c-0.3,0.8-1.2,1.7-2,2.1c-3,1.1-1.9,3.2-1.4,5.2c0.3,1,0.7,1.9,0.7,2.9
		c0,0.3-1.3,1.1-1.4,0.9c-0.8-0.7-1.5-1.6-2.3-2.4c-0.8-0.9-1.6-2.3-2.5-2.5c-1.6-0.3-3.3,0.2-6.2,0.4c1.5-4.1,2-7.6,3.9-9.8
		c0.9-1.1,4.6,0.1,7.8,0.4c-1.3-1.6-2.5-3.1-3-3.8c0.6-2.1,1.1-4,1.9-6.6c0.8,0.1,2.4,0.4,4.1,0.7c-1.9-4.3-2.1-4.3-11.8-3.5
		c-0.9,1.8-1.8,3.4-2.7,5.3c2.4,3.3-1,4.8-2.7,7.7c-0.6-1.8-0.9-2.8-1.3-3.9c-4.9,2.4-6.4,8.6-3.5,15.8c0.8-1.8,1.5-3,1.9-4.3
		c0.4-1.3,0.4-2.7,0.6-4.4c5,5.4,5.6,8.8,2.7,13.7C1465.6,730.3,1466.4,730.5,1463.8,735.5z M1211.4,812.2c1.3,1.5,2.1,2.3,2.7,3.2
		c0.6,0.9,1.1,2,1.7,3.2c0.3,0,1.1,0,1.3,0c-0.2,2.4-0.4,4.6-0.6,6.8c0.3,0,0.7,0.1,1,0.1c0.5-0.7,0.9-1.4,1.5-2.2
		c3.8,5.8,15.8,11.4,18,8.4c-0.3-0.9-0.6-1.8-0.9-2.8c3-0.3,3.1-0.3,1.6-3.2c-1.7-3.4-0.6-5,3.2-4.9c1.8,0.1,3.5-0.1,1.8-2.6
		c-0.3-0.5-0.1-1.4-0.1-2.2c0.1-2,0.2-4,0.3-5.4c-3,1.2-5.5,2.3-8,3.3c-0.6-0.7-1.3-1.7-2.1-2.7c-0.5,0.1-1,0.3-1.5,0.4
		c0.3,1.9,0,4.1,0.9,5.5c2.6,4.1,2.5,5.3-2.3,7.2c0.2-5.4-4.9-3.1-7.6-5.4c2.6-3-1-3.4-2.1-4.5c-0.5-4.3,4.8-7,2.4-11.1
		c-3.2,0.7-6,1.4-9.3,2.1C1214,807.2,1218.8,810.6,1211.4,812.2z M1298,587c-0.4,0.2-0.7,0.4-1.1,0.6c0.7,2.5,1.3,4.9,1.9,7
		c-1.6-0.4-3.1-1.3-4-0.8c-3.7,1.9-3.3,5.4-2.7,8.8c2.7,1,5.3,1.9,7.8,2.8c0.3-0.3,0.7-0.6,1-0.9c-1.3-1.6-2.6-3.3-4-5
		c1.4-0.3,2.9-0.7,4.5-1c0.4-1.2,0.6-3.5,1.2-3.6c4.5-0.9,3.6-5.6,6-7.9c1.5,0.5,3.1,1,5.4,1.7c1.1-4.8,2-9,3-13.3
		c-0.5-0.3-1-0.6-1.4-0.9c-2,1.4-4.1,2.8-6.1,4.2c-0.5-1.9-0.9-3.8-1.4-5.7c-0.4,0.1-0.8,0.1-1.2,0.2c-0.2,1-0.4,2.1-0.7,3.1
		c-0.8,2.1-1.2,5.1-2.7,6c-3.1,1.8-4.5,3.3-2.5,6.8C1300,588.3,1299,587.7,1298,587z M1614.4,715.2c1.4-1.2,2.9-3.5,4.5-3.5
		c3.1-0.2,3.8-1.9,4-4.1c0.3-4.2,0.4-8.5,0.3-12.8c0-0.9-0.9-1.8-1.4-2.6c-0.8,0.5-2,0.9-2.4,1.6c-1.5,2.5-2.8,5.1-4.2,7.6
		c-0.7,1.3-1.2,2.7-1.7,4.1c-0.5,1.5-1,3.1-1.4,4.7c-0.4-0.1-0.7-0.2-1.1-0.3c-0.3-1.6-0.5-3.3-0.9-5.5c-2.2,3-3.8,5.3-5.4,7.4
		C1608.3,713.1,1611.5,714.2,1614.4,715.2z M1280.7,712.6c-1.8,1.3-3.2,2.8-3.6,2.6c-4.7-2.5-5.9,1.3-7.8,3.5c1.4,1.7,3.8,4,3.5,4.4
		c-3.2,4.8,0,7,3.1,9.7c2.2,1.9,3.3,1.1,4.1-1.1c1.2-3.1,2.2-6.3,3.3-9.5c-1.2-1.3-1.4-2.7-1.7-4.1
		C1281.3,716.5,1281,714.9,1280.7,712.6z M1604.5,764.9c-2.4-0.1-4.7-0.2-7.5-0.3c-0.3,5.2,5.2,9.9,1.1,15.2c-1.5-0.4-3.5-2.7-4,0.9
		c-0.5,3.8-0.8,7.6-1.3,12.4c5.5-6.3,11.3-11.3,10.8-20.1c-0.1-1.3,2.6-2.9,4.2-4.2c0.7-0.6,1.7-0.8,2.7-1.2
		c-4.5-5.9-4.5-5.9-6.1-5.8C1604.5,763,1604.5,764.2,1604.5,764.9z M1507.1,713.2c-1-1.3-2.1-2.7-3.4-4.4c-1.1,0.6-2.1,1.2-3.1,1.7
		c0.2,1.9,0.3,3.5,0.5,5.6c-1.9-0.3-3.3-0.6-5-0.9c0.5-2.2,0.9-3.9,1.1-4.8c-2.4-0.9-4.4-1.6-5.7-2.1c0.6-2.3,1.3-3.9,1.4-5.5
		c0-0.5-1.8-1.6-2.5-1.4c-2.7,0.7-5.3,1.8-7.9,2.8c1.7,2.6,7.3,2,5.2,7.5c-0.5,1.4,2.1,4,3.3,6.1c2.2,0.2,4.7,0.3,7.2,0.5
		c0,0.4,0.1,0.8,0.1,1.2C1501.1,717.5,1504,715.4,1507.1,713.2z M1431.8,783c0.5-3.2,0.5-5.4,1.2-7.4c1.3-3.7,1.2-5.7-1-6.8
		c-1.8,3.4-5.4,6.4-2,10.8c-2.4,0.7-4.1,1.2-6.1,1.8c0.5,1.2,1,2.2,1.4,3.2c-1.3,0.7-2.4,1.2-3.5,1.8c0.4,1,0.7,1.9,1.4,3.5
		c-1.8-1.1-3-1.8-4.3-2.7c-0.1,2.2-0.4,4.1-0.3,5.9c0.1,2,1.1,3.4,3.3,2.1c1.4-0.8,2.9-1.9,3.9-3.2
		C1428.1,788.9,1430.2,785.4,1431.8,783z M1632.8,800.4c2,0.7,4.8,1.9,7.7,2.4c0.9,0.1,2.9-1.6,3.2-2.8c0.5-2.2-0.1-4.6,0.2-6.8
		c0.6-3.8-1.6-4.7-4.6-4.9c-3.2-0.2-4.5,1.2-4.6,4.4C1634.6,795,1633.6,797.3,1632.8,800.4z M1188.1,800.7c4.4,1.8,5.2,1.3,6-2.7
		c0.2-1.2,1-2.3,1.7-3.4c1.7-2.7,3.8-5.2,5.2-8c2.3-4.3,0.1-8-4.3-8.3c-0.3-1.1-0.6-2.1-0.9-3.1c-2.8,5.5-2.6,10.7-0.5,15.2
		C1192.9,794,1190.6,797.3,1188.1,800.7z M1148.1,764.1c-0.3,1.5-0.5,2.5-0.6,3.5c-0.3,2.4,0.3,5.3-0.9,7.1c-2.3,3.8-0.8,6.7,1.5,9
		c1.3,1.4,4,1.8,6.1,1.7c1,0,2.5-2.2,2.6-3.5c0.2-1.4-0.7-3.2-1.7-4.3c-1.4-1.5-3.4-2.3-4.8-3.7c-0.7-0.7-0.9-2.3-0.6-3.2
		c0.4-1.1,1.6-1.9,2.7-3.1C1151,766.6,1149.8,765.6,1148.1,764.1z M1501.9,723.5c-2.5-2.8-7.4-2.3-8.7,1.1c2.5,0.4,3.2,1.6,2.6,4.2
		c-0.9,4,2.6,6.8,6.1,5.4c2.4-0.9,5.4-7.9,4.3-10.3c-0.4-0.9-1.2-1.9-2-2.1C1503.5,721.8,1502.7,722.9,1501.9,723.5z M1105.9,747.3
		c-2,1.8-3.3,3.6-5.2,4.6c-4.1,2.3-7.7,4.2-7,10.2c0.5,3.9-0.1,4.4,4,3.9c0.9-1.7,1.6-3.2,2.6-4.7c0.6-1,2-1.5,2.4-2.5
		c1.2-3,2.2-6.2,3.2-9.3C1106.2,749.1,1106,748.5,1105.9,747.3z M1307.4,713.3c-2.8,2.1-5.3,3.3-6.8,5.3c-1.7,2.3-2.5,5.4-3.7,8.1
		c0.3,0.3,0.6,0.5,0.8,0.8c1.5-0.4,2.9-0.9,4.4-1.3c0.7-0.2,1.6-0.5,2.2-0.3c2.9,0.8,4.8-0.3,4.7-3.3
		C1309,719.9,1308.2,717.3,1307.4,713.3z M1593.7,726.4c-0.5,1.3-1.5,2.6-1.3,3.8c0.5,2.2-2.9,4.6,1,6.6c3.2,1.7,5.3,3.4,6.3-1.8
		c0.2-1.1,1.6-2,2.5-3c3-3.1,3.3-5.7,0.5-9.7c-1,1.4-2.8,2.7-2.7,3.9c0.2,3.6-1.7,5.7-4.3,8.8C1597,728.7,1596.5,727.3,1593.7,726.4
		z M1403.6,717c0.4,2.7,0.7,5,1.2,7.4c0.2,0.8,0.7,1.5,1.1,2.3c0.6-0.5,1.5-0.9,1.9-1.5c1.2-2.3,2.3-4.6,3.4-7.1
		c0.5,0.3,1.3,0.8,3.3,2.1c-0.7-3.6-1.2-6-1.8-8.7C1409.3,713.6,1406.4,715.4,1403.6,717z M1545.4,766.2c-0.3-0.4-0.6-0.8-0.8-1.2
		c-1.8,0.5-4.5,0.4-5.3,1.6c-0.9,1.3-0.1,3.8,0.1,5.7c0.1,1.7,0.4,3.3,0.6,5.5c0.5,0.1,1.6,0.2,1.8,0.2c1.4-2.9,3.2-5,3.5-7.4
		c0.5-3.6,1.6-4.1,4.6-1.6c0.3-0.3,0.5-0.7,0.8-1c-1-2.1-1.9-4.2-2.9-6.4c-0.4,0.1-0.7,0.3-1.1,0.4
		C1546.2,763.5,1545.8,764.8,1545.4,766.2z M1500.8,787.4c-0.5-0.3-0.9-0.6-1.4-0.8c-3.2,4-10.8,4.6-9.3,13.5
		c2.7-1.5,4.8-2.8,7.4-4.2c0.4,0.1,1.4,0.5,2.5,0.9c0.3-0.2,0.6-0.4,1-0.7c-0.6-1.6-1.3-3.2-1.9-4.8
		C1499.5,790.1,1500.2,788.7,1500.8,787.4z M1442.7,754.7c-1.6,0.7-2.7,0.8-2.9,1.2c-1,2.4-1.9,4.6-5.2,3.3c-0.1,0-1.5,1.8-1.3,2.5
		c0.5,2.4,1.5,4.7,2.3,7c3.5-0.4,3.4-0.4,4-3.6C1440.4,761.9,1441.5,758.7,1442.7,754.7z M1599,708.1c-0.2-6.8-1.8-8.1-7-6.8
		c-1.3,0.3-2.5,1.1-3.7,1c-3.6-0.3-3.4,1.8-3.1,4.9c2.4-0.9,4.4-1.6,6.9-2.5C1593.6,705.4,1596,706.6,1599,708.1z M1219.6,626.8
		c-2,1.2-4.6,2-4.6,2.9c-0.1,3.4-2.5,4-5,4.9c1.2,5.2,4.5,0.4,6,1.8c1-2.5,1.9-4.8,2.8-7.1c1.2,0.4,2.1,0.8,4.1,1.6
		c-0.3-2.7-0.4-4.7-0.6-6.7c-0.5,0-1,0-1.4,0C1220.3,625.2,1219.8,626.4,1219.6,626.8z M1413,798.6c-0.2-2.6-0.5-5-0.8-8.3
		c-1.6-0.2-4-0.6-6.9-1c1.6,2.3,2.6,3.8,4.2,6c-1.8-0.6-2.8-0.9-4-1.3C1407.1,800.1,1407.9,800.5,1413,798.6z M1376.3,713.7
		c-2.2,1.7-5.1,2.7-5.4,4.2c-0.8,3.6-0.3,7.5-0.3,11.3c0,0,0.5,0.1,1.7,0.3c0.8-2.6,1.6-5.3,2.4-8.1c0.1-0.5,0.4-1.1,0.7-1.3
		C1378.9,718.5,1376.8,716.1,1376.3,713.7z M1278,632.6c0.3-0.1,0.6-0.3,0.9-0.4c0-2.1-0.9-5.1,0.2-6.3c3.3-3.6,0.1-5.2-1.6-8.1
		c-0.8,2.1-1.4,3.6-1.9,4.9c-1.3-0.1-2.5-0.2-4.1-0.3c0.7,2.6,1.3,4.7,1.9,6.8c0.3-0.1,0.5-0.1,0.8-0.2c0.3-1,0.6-2.1,1.1-4.1
		C1276.3,628.2,1277.2,630.4,1278,632.6z M1377.5,781.9c-0.8-0.7-1.5-1.4-2.1-2c0.1-0.4,0.1-0.7,0.1-1c0.3-1.7,0.6-3.4,0.8-5.1
		c-1.8,0.1-3.8-0.2-5.3,0.6c-0.6,0.3-0.1,2.9,0,4.5c0,0.5,0.5,0.9,0.6,1.4C1372.6,784.1,1373.6,784.4,1377.5,781.9z M1536.3,792.6
		c3.2,0,6,0,10.1,0c-4.6-2.7-8.4-5-13.1-7.8c1.1,4.5,2,8.6,3,12.7c0.5-0.2,1.1-0.3,1.6-0.5C1537.5,795.9,1537.1,794.8,1536.3,792.6z
		 M1272.3,779.2c-0.5-0.3-1-0.6-1.5-1c-1.3,1.1-3.1,1.9-3.7,3.3c-1.7,3.8-0.3,6.8,4,9.2C1271.6,786.6,1272,782.9,1272.3,779.2z
		 M1221.4,649.5c2.8,4.8,4.7,0.5,7.4-0.3c-2.5-2.3-7.2-1.9-6.6-6.9c-1.7,2.9-2.8,5.9-3.8,8.9c0,0.1,0.4,0.3,0.9,0.7
		C1219.9,651.2,1220.6,650.5,1221.4,649.5z M1639,751.8c-0.8-1.2-1.6-2.3-2.3-3.4c-0.5-0.9-1-1.9-1.4-2.9c-1.1,1-2.6,1.8-3.1,3.1
		c-0.5,1.4-0.1,3.1-0.1,4.5c1.6,0.8,3.1,1.4,4.6,2.1C1637.5,754.1,1638.3,752.8,1639,751.8z M1363.1,740.5c-5,5-3.5,11.8,2.7,13.6
		C1364.9,749.7,1364.1,745.5,1363.1,740.5z M1552.7,775.3c-0.8,2.5,1.5,6.4-2.8,7.9c-0.2,0.1-0.2,1.2,0,1.4c0.5,0.4,1.2,0.6,1.8,0.5
		c5.4-1,6.7-3.5,5.2-9.2C1555.7,775.8,1554.4,775.6,1552.7,775.3z M1448.4,744.8c-4.4,1.4-5.4,4.6-5.2,8.5
		C1447.8,753.9,1450.2,750.3,1448.4,744.8z M1349.2,776.4c1.8,0.5,2.8,0.8,3.8,1.1c0.5,0.1,1.2,0.6,1.5,0.4c0.4-0.3,1-1.2,0.8-1.5
		c-0.9-1.7-1.6-4.1-3-4.6c-1.7-0.6-3.9,0.6-6.2,1.1C1347.9,774.9,1348.8,776,1349.2,776.4z M1321.2,768.1c1,2.9,1.9,5.6,3.2,9.2
		c1.2-1.7,2.6-2.8,2.4-3.7c-0.6-2.9-1.7-5.8-2.7-9C1323,765.9,1322,767.1,1321.2,768.1z M1617.8,792.6c0.3-2.9,0.8-5.3,0.8-7.8
		c0-0.8-1.2-2.3-1.5-2.2c-1,0.2-2.5,1-2.6,1.7C1613.9,787.3,1612.8,790.6,1617.8,792.6z M1239.6,798c4-3.3,5.3-7.4,4.1-11
		c-0.7,0.9-1.7,2.3-2.8,3.5C1239.1,792.7,1237,794.7,1239.6,798z M1507.2,764.3c-2.4,1.7-6.9,1.3-5.7,5.8c0.5,2,0.6,5.3,5.2,4.4
		C1503.2,770.8,1503.1,767.4,1507.2,764.3z M1528.8,762.2c-1-4.7-1.9-9.1-3-14.1C1523.4,755.9,1523.6,759.9,1528.8,762.2z
		 M1610.2,688.3c0.7,0.1,1.5,0.2,2.9,0.4c-5.4-4.7-5.5-4.7-7.1,1.1c-0.2,0.8-0.8,1.6-1.5,3c2.4-0.2,4.4-0.3,6.3-0.5
		C1610.6,690.9,1610.4,689.6,1610.2,688.3z M1561.1,735.5c-0.1-0.5-0.2-1-0.2-1.5c-1.7,0.2-4.7,0.3-4.8,0.7
		c-0.3,2.3-0.4,4.9,2.5,6.5C1559.5,739.1,1560.3,737.3,1561.1,735.5z M1561.2,795.5c-1.4,0.6-2.7,1-3.8,1.6
		c-0.8,0.5-1.9,1.1-2.2,1.9c-0.2,0.6,0.5,1.9,1.1,2.3c0.8,0.4,1.9,0.1,2.8-0.1c1.2-0.3,2.3-0.7,3.5-1.1
		C1562.1,798.5,1561.6,796.8,1561.2,795.5z M1377.9,789.7c0.1-4.7,0.1-4.9-2.3-4.4c-1.4,0.3-3.7,2.2-3.6,2.3
		C1373.2,790,1375.1,791.2,1377.9,789.7z M1280,649c0.9-2.3,1.8-3.9,1.9-5.5c0.1-1-0.9-2.2-1.8-3c-0.5-0.5-2.1-0.6-2.3-0.3
		c-0.6,0.9-1.2,2.2-1,3.1C1277.5,645.1,1278.7,646.7,1280,649z M1220.6,787.5c1.4,3.1,6.5,3,11.2,0.2
		C1228,783.5,1224.4,788.3,1220.6,787.5z M1449.7,713.6c0.2-3.8,0.4-6.5,0.5-9.4c-0.8-0.1-1.9-0.4-2-0.3c-0.9,2.1-1.6,4.2-2.5,6.5
		C1446.8,711.2,1447.8,712,1449.7,713.6z M1245.8,764.5c-1-4.1-1.9-7.5-3-11.8c-1.3,3.5-2.3,5.9-3.1,8.3
		C1241.4,761.9,1243.3,763,1245.8,764.5z M1330.4,783.3c-1.5,2.1-2.9,3.2-2.9,4.2c0,1.2,1.2,2.3,1.9,3.5c1-1,2.5-1.8,2.9-3
		C1332.6,787.1,1331.5,785.7,1330.4,783.3z M1205.3,766.7c1.4,0.9,2.7,1.7,4,2.4c2.4-5.3,2-6.5-2.8-7.6
		C1206.1,763.2,1205.7,764.8,1205.3,766.7z M1289.6,633.1c-3.9,0.2-6,1.7-6.3,5.7C1286.4,637.8,1290.6,638.8,1289.6,633.1z
		 M1594.5,712.6c0.2-0.4,0.4-0.7,0.6-1.1c-1.2-0.9-2.6-2.7-3.6-2.5c-2.1,0.3-4.1,1.7-6.2,2.7c0.2,0.5,0.4,0.9,0.6,1.4
		C1588.8,712.9,1591.7,712.7,1594.5,712.6z M1507.2,698.2c-0.3,0.2-0.6,0.4-0.8,0.7c0.1,0.5-0.1,1.2,0.2,1.5
		c1.9,1.9,3.8,3.8,5.9,5.5c0.3,0.3,1.6,0.1,1.7-0.1c0.2-0.6,0.3-1.7,0-2.1C1511.9,701.8,1509.5,700,1507.2,698.2z M1438.5,730.2
		c1.1-1.4,2.3-2.5,2.9-3.8c0.6-1.4,0.7-3.1,1.1-5.1C1437.2,723.8,1435.9,727.5,1438.5,730.2z M1635.8,762.4c-0.5-0.7-1.3-1.8-2.2-3
		c-3.1,4.6-3,6.9-0.3,9C1634,766.6,1634.8,764.7,1635.8,762.4z M1339.6,731.7c-0.6-0.3-1.3-0.5-1.9-0.8c-1.2,3-2.4,6-3.7,9
		c0.5,0.2,0.9,0.4,1.4,0.6C1339.2,738.6,1337.4,734.3,1339.6,731.7z M1392,759c0.4-0.1,0.9-0.1,1.3-0.2c-0.4-3.2-0.8-6.5-1.2-9.8
		C1388.1,752.1,1388.1,753.3,1392,759z M1250.2,649c1.6,1.4,3,2.7,4.4,4c0.3-0.3,0.6-0.6,0.9-0.9c-0.7-1-1.5-2.1-2.4-3.4
		c1-0.7,1.9-1.3,2.9-2C1253.7,645.3,1253.7,645.3,1250.2,649z M1293.2,606.3c-1.6-1.7-3.1-1.7-3.6,1.7c-0.3,2-0.7,3.9-1,6.2
		c2.1-0.5,3.9-0.8,3.5-3.7C1291.8,609.3,1292.7,608,1293.2,606.3z M1514.3,750.2c4.7-3.1,2.6-6.5,2.3-9.5c-0.5-0.1-1-0.1-1.5-0.2
		C1514.8,743.4,1514.6,746.3,1514.3,750.2z M1382.8,795.9c-2.7,0-5,0-7.7,0c0.5,1.1,1.2,2.6,1.9,4
		C1383.3,798.3,1383.3,798.3,1382.8,795.9z M1218.4,774.3c-0.9-0.6-1.8-1.2-2.7-1.8c-0.3,0.3-0.6,0.7-0.9,1c1.3,1.1,2.6,2.3,3.9,3.4
		c0.8-1.5,1.6-3,2.4-4.4c-0.4-0.2-0.8-0.4-1.3-0.6C1219.4,772.7,1218.9,773.5,1218.4,774.3z M1271.4,825.8c-1.3,5.4-0.9,6.8,3.2,8
		C1272.7,831.1,1275.9,827.4,1271.4,825.8z M1181.6,684.3c1.7-2.6,3-4.6,4.8-7.5c-2.9,1-4.7,1.6-6.8,2.3
		C1180.2,680.7,1180.7,682,1181.6,684.3z M1208.7,792.2c-1.2,1.7-2.1,2.7-2.6,3.9c-0.1,0.3,1.7,1.8,2,1.7c1.1-0.7,2.1-1.7,2.7-2.7
		C1211,794.7,1209.8,793.6,1208.7,792.2z M1404.7,704.8c0.4,0.3,0.7,0.7,1.1,1c0.9-0.5,2.4-1,2.5-1.6c0.2-2.1-0.2-4.2-0.3-6.2
		c-0.4,0-0.8,0-1.2-0.1C1406.1,700.2,1405.4,702.5,1404.7,704.8z M1117.4,757c0.2,0.2,0.5,0.4,0.7,0.7c1.2-1,3.1-1.9,3.3-3
		c0.2-1.6-1-3.3-1.8-5.8C1118.6,752.3,1118,754.6,1117.4,757z M1412,704.4c0.3,5.1,2.2,6.5,6.3,4.7
		C1416.2,707.5,1414.2,706,1412,704.4z M1124.4,795.7c2-1.2,3.6-1.8,3.7-2.4c0-1.5-0.6-3-1-4.5c-0.6,0-1.2,0-1.8,0
		C1125.1,790.7,1124.8,792.5,1124.4,795.7z M1500.7,775.9c-3.9-2.8-5.3-0.9-6.6,0.7c-0.2,0.2,0.5,1.3,0.8,1.9
		C1496.6,777.8,1498.3,777,1500.7,775.9z M1426.7,705c-5.2,2.3-2.6,5.1-2.5,7.6c0.4,0.1,0.9,0.2,1.3,0.2
		C1425.9,710.5,1426.3,708.2,1426.7,705z M1467.9,772.6c4.6-0.7,6.1-2.1,4.1-6.5C1470.5,768.5,1469.5,770.1,1467.9,772.6z
		 M1356.1,762.5c-0.5,0.1-1,0.2-1.5,0.3c0.2,1.8,0.4,3.6,0.7,6.1c1.8-1.7,2.8-2.6,3.9-3.7C1358,764.2,1357,763.4,1356.1,762.5z
		 M1625.4,774.6c-0.4,0.3-0.8,0.6-1.2,0.9c0.9,1.9,1.8,3.8,3.1,6.7c0.8-1.6,1.8-2.9,1.6-3.4C1628,777.3,1626.6,776,1625.4,774.6z
		 M1628.8,767.9c-0.3,0.1-0.6,0.1-0.9,0.2c0,1,0.1,2,0,3c-0.1,0.9-0.2,1.7-0.4,2.6c0.5,0,1.4,0.1,1.4-0.1c0.5-1.3,1-2.6,1.1-3.9
		C1630.1,769.1,1629.3,768.5,1628.8,767.9z M1230.6,638.3c-0.5,0.1-1,0.2-1.5,0.3c0.7,1.9,1.1,3.9,2.1,5.7c0.4,0.8,1.8,1,3.6,2
		C1233,642.8,1231.8,640.6,1230.6,638.3z M1242.9,861.6c0.2-0.4,0.3-0.7,0.5-1.1c-1-1.3-1.9-2.5-3.3-4.3c-0.6,1.8-1.1,2.9-1.5,4.2
		C1240.3,860.9,1241.6,861.3,1242.9,861.6z M1280.5,619.6c1.3,0.8,2.4,1.9,2.9,1.7c1.6-0.7,5.3,0.6,4.1-3.4
		C1285.7,618.3,1283.8,618.7,1280.5,619.6z M1439.8,732.2c-2.4,0-4.2,0-6.1,0c1,2,1.7,3.5,2.7,5.6
		C1437.5,736,1438.5,734.5,1439.8,732.2z M1166.4,807.8c-1.1,5.5,0.1,7.6,3.6,6.7C1168.9,812.4,1167.7,810.3,1166.4,807.8z
		 M1460.6,706.9c-0.2-2.5-0.4-4-0.5-5.8c-1.9,0.2-3.3,0.4-5.5,0.6C1456.7,703.5,1458.2,704.8,1460.6,706.9z M1107,769.5
		c5.5,3.3,5.5,3.3,5.4-1.2C1110.5,768.7,1108.7,769.1,1107,769.5z M1259.9,640.8c0,1.4-0.1,2.5,0.1,3.5c0.1,0.4,0.7,0.9,1.1,0.9
		c0.4,0,1.1-0.3,1.3-0.7c0.6-1.8,1.1-3.6,1.7-5.7C1262.6,639.6,1261.3,640.2,1259.9,640.8z M1642.1,808.4c-0.5,0.2-0.9,0.5-1.4,0.7
		c0.5,1.8,1.1,3.5,1.6,5.3c0.9-0.5,1.9-1,3-1.6C1644,811.1,1643.1,809.7,1642.1,808.4z M1385.2,715.6c-0.6-2.8-1-4.5-1.4-6.2
		c-2.9,0.4-2.6,2.6-2,4.4C1382,714.6,1383.6,714.9,1385.2,715.6z M1360.4,715.7c2,0.4,4.1,0.9,6.1,1.3
		C1365.5,713.3,1365.5,713.3,1360.4,715.7z M1477,707c1.8,0.8,2.9,1.4,4.3,2c0-2.1,0-3.5,0-5.2C1479.8,704.9,1478.8,705.7,1477,707z
		 M1318.4,718.5c0.4-0.3,0.7-0.7,1.1-1c-0.8-1.3-1.7-2.6-2.5-4c-0.5,0.7-1.6,1.8-1.5,2C1316.3,716.6,1317.4,717.5,1318.4,718.5z"/>
	<path class="st0" d="M1196.3,830.8c0.8,1.3,1.6,2.6,2.3,3.9c-2.2,1.9-4.2,4.3-6.7,5.4c-0.9,0.4-4-1.9-4.6-3.5
		c-1.3-3.2-1.5-6.9-2.3-11c2.4,2,6,1.2,6.9,5C1192,831,1194.7,830.8,1196.3,830.8z"/>
	<path class="st0" d="M1548.5,684.4c-0.3-0.6-0.6-1.3-1-1.9c-0.4-1.3-0.7-2.7-1.3-5c2.3,1.1,3.9,1.9,5.5,2.7c0,0-0.1-0.1-0.1-0.1
		c0,2.2,0,4.4,0,6.6C1550.3,685.7,1549.4,685.1,1548.5,684.4z"/>
	<path class="st0" d="M1550.6,827.4c-1.2-0.8-2.3-1.7-3.5-2.5c0.5-0.5,1.3-1.5,1.5-1.4c1.2,0.5,2.2,1.4,3.3,2.1
		C1551.4,826.3,1551,826.8,1550.6,827.4z"/>
	<path class="st0" d="M1224.6,850.9c0,5.1,0,5.1-2,6.3c-0.5-1.6-0.9-3.2-1.5-5.2C1222.2,851.6,1223.5,851.3,1224.6,850.9
		C1224.7,851,1224.6,850.9,1224.6,850.9z"/>
	<path class="st0" d="M1658.1,828c2.8,0,5.7,0,8.5,0c0.1,0.2,0.3,0.4,0.4,0.6c-1.1,0.4-2.3,1.3-3.4,1.2
		C1661.7,829.5,1659.9,828.6,1658.1,828C1658,828,1658.1,828,1658.1,828z"/>
	<path class="st0" d="M1623.5,830c2.4-0.2,4-0.4,5.8-0.5C1627.8,832.9,1626.7,833.1,1623.5,830z"/>
	<path class="st0" d="M1150.7,687.6c-0.8-1.1-1.5-2.3-2.3-3.4c-0.3,0.1-0.7,0.2-1,0.4c0.4-1.1,0.9-2.1,1.3-3.2
		C1152.5,683,1152.8,684,1150.7,687.6C1150.6,687.5,1150.7,687.6,1150.7,687.6z"/>
	<path class="st0" d="M1557,707.5c-1.5-0.8-3.1-1.5-4.6-2.3c-0.3,0.3-0.5,0.5-0.8,0.8c0.5,1.3,1,2.5,1.6,4.2c-1.6,1-3.2,2.1-4.8,3
		c-0.7-0.8-1.6-2.4-2.1-2.3c-1.2,0.3-2.1,1.4-3.4,2.4c-1.5-0.8-3.3-1.8-5.4-2.9c0.4-1,0.8-2.1,1.2-3c0.6-0.2,0.9-0.4,1-0.3
		c3.2,1.5,5.7,0.6,8.1-1.9c1.1-1.1,3.3-1.9,4.8-1.6c2,0.4,3.7,1.9,5.6,2.9C1557.8,706.8,1557.4,707.1,1557,707.5z"/>
	<path class="st0" d="M1538.9,726.9c-1.4,1.1-2.1,2.1-2.8,2c-0.8-0.1-1.5-1.1-2.2-1.7c0.7-0.8,1.2-1.9,2.1-2.2
		C1536.4,724.8,1537.4,725.9,1538.9,726.9z"/>
	<path class="st0" d="M1542.8,731.4c-1.4-0.2-2.8-0.3-5.5-0.6c1.8-1.5,2.8-2.3,3.8-3.2C1541.6,728.9,1542.2,730.2,1542.8,731.4
		C1542.7,731.5,1542.8,731.4,1542.8,731.4z"/>
	<path class="st0" d="M1544.2,720c-1.4,0.6-2.8,1.2-4.3,1.9c-0.3-0.5-0.5-1-0.8-1.4c1.3-0.8,2.6-1.6,3.9-2.4
		C1543.5,718.7,1543.8,719.4,1544.2,720z"/>
	<path class="st0" d="M1487.4,745.2c0.2-0.6,0.5-1.3,0.4-1.1c-2-1.8-3.8-3.4-5.5-5c0.3-0.4,0.6-0.7,0.9-1.1c0.8,0.7,1.6,1.4,1.7,1.5
		c1.5-1.1,2.9-2.2,5.3-4c0.9,1.2,1.8,2.2,3,3.7c-2.7,1.4-4.9,2.7-2.3,5.9C1489.3,745.2,1488.3,745.2,1487.4,745.2
		C1487.4,745.2,1487.4,745.2,1487.4,745.2z"/>
</g>
<g>
	<path class="st0" d="M847.4,793c-4.5,0.7-5.3,1.9-4.1,6.1c-4.7,4.3-9.3,4.2-13.7-0.8c-0.2,1.6-0.4,2.6-0.7,4.4
		c-1.3-1.6-2.1-2.4-2.8-3.2c-4.1,1.6-4.4,1.3-5.6-4.6c-2.6,1-4.7,0.9-4.6-2.4c-2.5,0.2-4.8,0.4-7.1,0.5c-0.5,1.1-1.1,2.5-1.7,3.9
		c-0.4,0.2-0.8,0.4-1.2,0.6c-0.4-1.2-0.7-2.3-1.2-3.9c-1.2,2.3-1.6,4-2.4,4.3c-3.5,1.3-1.8,3-0.9,5c0.6,1.3,1.1,3.2,0.6,4.2
		c-1.6,3.3-0.1,5.4,2.6,8.8c0.4-2.9,0.6-4.8,1-6.6c0.4-2.1,0-5.3,3.3-4.9c3.5,0.4,5.3-1,5.9-3.1c3.1,0.9,6.1,1.7,8.9,2.8
		c1.2,0.5,2.7,1.6,3.1,2.8c0.8,2.5-2,4.5-5.8,5c-2.3,0.3-4.7,0.8-6.7,1.8c-3.2,1.5-5.2,5.1-10.2,2.5c-3.2-1.6-8.1,0.1-12.3,0.3
		c0.6,1.3,1.1,2.4,2.1,4.4c-5-1.8-5.6,1.6-7,3.8c-1.5,2.5-3.5,4.6-6.4,3.5c-2.9-1-4.5-0.9-5.9,2.5c1.6-5.6,2-10.6-3.1-14.4
		c-0.3,0.6-0.7,1.1-0.9,1.7c-0.7,2.3-1.1,5.2-4.6,2.6c-0.3-0.2-1.6,0.6-2.2,1.2c-0.8,0.9-1.3,2-1.9,3.1c-0.2-0.1-0.5-0.2-0.7-0.3
		c0-1.2,0-2.4,0-3.9c-1.5,0-2.7-0.1-3.9,0c-1.1,0.1-2.1,0.6-3.2,0.9c0.3,1.1,0.3,2.7,1.1,3.3c3.3,2.4,1.4,4.1-0.5,5.9
		c-0.8,1.3-1.6,2.6-2.3,3.9c-3.3,1.2-6.6,2.2-9.9,3.5c-0.8,0.3-1.5,1.3-2,2.2c-2,3.4-3.9,6.8-6.2,10.9c-1-2-1.5-3.1-2.4-5
		c-2,1.7-3.8,3.1-5.6,4.6l0.1-0.1c-1.1-1.8-2.1-3-4.4-1.2c-1.4,1.1-3.3,1.6-5.7,2.8c1.1,1.9,2.1,3.8,3.4,5.5c0.1,0.1,2-1,3-1.6
		c-1.7,7.6-5.2,10.6-12.9,11.6c-1.6,0.2-3.7,1.4-4.3,2.7c-0.5,1.1,0.8,3.1,1.3,4.7c0.7,0.5,1.4,1,2.2,1.4c-2.3,1.4-4.7,2.7-6.5,3.8
		c-1.5-0.2-3.3-1-3.7-0.5c-1.8,2.4-3.5,0.8-5.4,0.3c-1.1-0.3-2.6-0.6-3.6-0.1c-5.6,2.9-11,6-16.5,9.1c-0.4,0.2-0.5,0.9-0.9,1.3
		c-2.2,2.4-4.5,4.6-6.7,7.1c-2.5,2.8-5.6,5.3-7.1,8.5c-1.6,3.6-1.8,7.8-2.5,11.8c-0.5,3.1-0.7,6.2-1.2,9.2
		c-1.3,8.5-5.8,16.1-6.9,24.7c-0.4,3.1-2.4,5.9-3.7,9.1c-6.6-5.5-5.4-11.2-2.6-17.1c0.5-1,1.3-1.9,2-2.9c-0.4-0.7-0.9-1.4-1.3-1.9
		c5.8-4-0.7-7-0.6-9c1.6-1.5,2.7-2.2,3.5-3.2c0.4-0.5,0.3-1.5,0.3-2.3c0.1-1.2,0.6-3.1,0-3.6c-1.6-1.5-3.4-0.8-4.9,0.8
		c-0.9,1-2.3,1.5-3.4,2.4c-0.9,0.7-2,1.5-2.3,2.5c-0.6,2-0.9,4.2-0.9,6.4c0.2,5.9-2.2,10.7-5.8,15.5c-2.3-2.7-4.4-5.3-6.9-8.3
		c0.3-2.2-3.8-6.8-8.3-8.5c0.3-2.8,0.7-5.5,1-8.3c3.2,1.1,5,0.6,5-3.5c0-5.5,0.6-11,0.9-16.5c0.1-2,0.2-4,0.1-6
		c-0.1-2.4-0.8-4.9-0.7-7.3c0.4-8.9,1.3-17.8,1.6-26.8c0.3-10.2-0.7-20.5,2.1-30.7c1.2-4.2,0.4-9.1-0.2-13.6
		c-0.3-2.2-1.7-4.4-5.6-3.9c-3.9,0.5-8.5,2.3-12-1.7c-2.1,1.1-4.2,1.9-6,3.2c-2.5,1.9-3.4,1.7-4.7-1.3c-0.6-1.4-2-2.8-3.4-3.4
		c-0.7-0.3-2.2,1.3-3.3,2.1c-0.2,0.1-0.5,0.1-1,0.3c-0.3-0.7-0.7-1.5-1-2c-1.3,0.9-2.4,1.7-4.1,3c0-2.5,0-4.1,0-5.8
		c-1.9-0.3-3.4-0.5-5.6-0.9c0.4,1.9,0.8,3.4,1.1,4.9c-0.2,0-0.3,0.1-0.5,0.1c-0.9-1.6-1.8-3.3-2.6-4.8c-2,1.6-3.6,3-5.3,4.3
		c-0.3-1.8-0.3-3.8-0.7-3.9c-1.8-0.4-3.7-0.2-6.2-0.2c0.8,2,1.2,2.9,1.7,4.1c-9.6-2.3-9.6-2.3-16.1,3.5c-2.5-2.1-5-4.1-7.8-6.4
		c-0.6,2.9-1,4.9-1.4,6.9c-0.5,0-1-0.1-1.5-0.1c-0.6-1.7-1.2-3.4-1.8-5.1c-2,0.3-4,0.6-5.9,0.8c-1,1.3-2.3,2.7-3.7,2.9
		c-3.1,0.3-6.3-0.1-9.5,0c-1.5,0-3,0.5-5.4,0.9c-1.1-1-3-2.7-5.3-4.8c-0.7,0.8-1.6,2.7-2.7,2.9c-4.2,0.6-8.5,1.3-12.6,0.8
		c-4.3-0.6-7.9,0-11,2c-5.3-0.8-10.2-1.5-15.3-2.2c0.3,3.5-1.2,4.8-4.7,4.6c-2.5-0.1-5.2,0.2-7.6,0.9c-6.7,1.9-13.1,0.8-19.6-0.9
		c0.5-1.3,0.9-2.5,1.4-3.7c-0.4-0.2-0.8-0.4-1.2-0.7c-1,1.3-2.6,2.5-2.8,3.9c-0.9,4.9-4.3,4.3-7.7,3.8c3.4-1.5,5.7-3.6,3.7-8
		c-2.7,0.9-5.4,1.7-8.3,2.7c-0.9,3.7,3.1,3.6,4.7,5.3c-0.9,0.2-1.9,0.9-2.6,0.7c-2.1-0.7-4.1-1.8-6.1-2.6c-1-0.4-2.9-0.6-2.9-0.8
		c0-4.3-3-2.6-5.2-2.7c-1.1-0.1-2.1-0.7-3.1-1.1c-0.6-0.2-1.4-0.7-1.8-0.5c-3,1.8-7.6,1.3-9,5.7c-0.1,0.4-0.8,0.6-1.2,0.8
		c0.1-0.4,0.2-0.8,0.4-1.2c-3.8-1.9-7.4-5-11.3-5.3c-4.5-0.3-9.2,1.8-13.7,2.8c0.2,0.6,0.7,1.3,0.8,2c0.1,0.9-0.2,1.8-0.4,2.6
		c1.1-0.1,2.2-0.1,3.2-0.4c0.9-0.3,1.7-1,3.1-1.9c-0.2,1.5,0,2.9-0.4,3.1c-2.5,1.4-5,2.6-7.6,3.6c-1.8,0.7-3.8,1-5.7,1.1
		c-0.8,0.1-1.6-0.9-2.4-1.3c2.6-3.4-1.7-4.9-2-7.5c2,0.3,4,0.5,6.3,0.8c-0.3-1.9-0.5-3.6-0.8-5.4c-2,1.4-3.9,2.7-5.9,4.1
		c-1.1,0.4-2.2,0.8-3.5,1.3c-0.5-0.4-1.5-1.1-2.4-1.9c-0.9-0.9-1.6-1.9-2.4-2.9c-0.3,0.2-0.7,0.3-1,0.5c0.6,1.8,0.9,3.6,1.8,5.3
		c2.3,4.3,0.5,7.4-4.4,7.7c-1.6,0.1-3.4,1-4.8,1.8c-2.2,1.3-6.6,1.2-7.7-1c-3.2-6.6-8.5-9.1-15.3-11.3c-4.3-1.4-5-0.9-5.5,2.7
		c-5.4-0.5-5.3-0.5-3.8,4.4c0.3,1.1,0.2,2.4,0,3.6c-1.2,5.1-2.6,10.2-3.9,15.4c-0.2,0.7-0.2,1.3-0.3,2c-0.5,3.1-0.7,6.2-1.5,9.2
		c-0.8,2.9-2.3,5.5-3.1,8.4c-1.7,5.5-3.1,11.1-4.8,17.2c-0.9-1.3-2.2-2.2-2.3-3.3c-0.3-3.8-0.1-7.6-0.1-11.5c0-0.7,0.4-1.4,0.6-2.1
		c0.5-2.3,1-4.6,1.3-6.9c0.4-2.6-0.1-5.6,1.1-7.7c1-1.8,1.1-2.5,0.5-4.5c-0.9-2.7-1.2-7,0.3-8.7c1.5-1.7,2.2-2.1,1.3-4.3
		c-0.6-1.6-0.5-3.4-0.7-5.2l-0.1,0c0-3.9,0-7.8,0-11.3c-4.1-1.7-6.9,6.8-10.4-0.7c-0.7,1.5-1.1,2.5-1.5,3.5c-3.3-4.3-5-4.7-9-2.8
		c-0.7-1.1-1-2.6-2-3.1c-4.6-2.3-5.6-4-4.5-9.1c-3.1-0.9-2.8-2.6-1.2-4.8c0.6-0.8,1.1-1.9,1.2-2.8c0.4-3,0-6.1,0.8-8.9
		c0.8-2.8,0.6-6.8,4.4-7.1c0-2.6,0-5,0-8.2c1.5,1.7,2.2,2.5,2.9,3.3c0.4,0,0.9,0,1.3,0c-2.5-8.2,1.1-15,4.2-22.2
		c-3.4-1.2-2.5-3.9-1.9-6.4c0.4-1.7,1.3-3.4,1.7-5.1c1.7-6.6,3-13.3,4.9-19.9c1.4-5.2,3.4-10.2,5-15.3c1.9-5.9,3.7-11.8,5.6-17.7
		c0.4-1.1,1-2.2,1.4-3.3c1.4-3,2.5-6.2,4.2-8.9c0.7-1.1,2.9-1.3,4.4-1.9c0.3,0.3,0.6,0.6,0.9,0.9c-5.7,5.3-0.2,10.2,0.2,15.3
		c0.3,3.8,2.3,5.7,13.4,5c0.8-2.5,1.6-4.9,2.5-7.3c1-2.5,1.5-5.6,3.4-7.2c2.3-2,5.6-3.2,8.6-3.6c1.2-0.2,2.9,2.6,4.4,4
		c0.7,0.6,1.5,1.1,1.6,1.1c1.5-1.1,2.6-1.8,3.7-2.5c0.1,0.8,0.1,1.7,0.4,2.3c1.2,2,2.6,3.8,3.9,5.8c1.2,0.9,2.5,2,3.9,3
		c1.5,1,3,1.9,4.2,2.6c1-2,2.1-4,3.1-6.1c-1.3-2.3-2.7-4.9-4.3-7.9c-2.5,4.6-5.4,3.8-8.6,0.9c-0.6-0.5-1.8-0.4-2.7-0.5
		c0.2-1.4,0.3-2.9,0.5-4.3c3.8-0.2,8.1-2.5,8.8,3.5c2.8-1,5.3-1.8,8.1-2.8c-0.7,1.9-1.5,3.1-1.2,3.7c0.5,1,1.7,1.7,2.7,2.5
		c1,0.8,2,1.6,3.6,2.8c-2.3,0.6-3.5,0.9-5.3,1.4c2.1,1.6,3.6,2.8,4.9,3.8c1.2-2.6,2.2-4.7,3.1-6.8c3.2,2.9,3.2,4.5-0.1,8
		c0.8,1.1,1.7,2.3,2.5,3.4c-0.7,1.8-1.3,3.7-1.9,5.1c2.6,5.5,5.1,10.8,7.6,16.1c1.3-1.3,2.7-2.7,4.1-4c0.7,2.6,1.3,5.2,2,7.8
		c0.5,0,1-0.1,1.5-0.1c0-2.8,0-5.6,0-8.3c1.6,1.5,3.2,3,4.8,4.4c2.4,2.2,4.9,4.5,7.4,6.6c0.2,0.1,0.7-0.2,1.6-0.4
		c-1.1-0.9-2-1.7-2.9-2.4c2.4-4.5,2.4-4.5,7.7-1.1c-0.8,2.1-2.1,3.9-1.8,5.4c0.9,5.8,2.2,6.6,7.5,6c0,0-0.1-0.1-0.1-0.1
		c0.2,1.4,0.3,2.9,0.5,4.3c5.3-0.5,8.2,0.8,8.5,5.2c0.3,3.7-1.4,7.5-1.4,12.1c1.3-1.3,3.8-3.2,3.6-3.8c-2-4.5,2.5-7.5,1.8-11.6
		c3.7-0.8,6.9-1.9,6-6.5c-0.1-0.3,0.3-0.7,0.5-1c1.3-2,4.5-3.3,1.9-6.7c-0.3-0.4,1.7-3.7,3.1-4c1.7-0.5,3.8,0.6,5.7,1.3
		c1.1,0.4,2,1.1,3.7,1.1c-4.1-2.2-3.9-5.2-3-8.8c0.3-1.2-1.5-3.1-2.8-4.3c-1.1-1.1-2.7-1.6-3.4-2.1c-2.1,2.3-3.8,4.2-5.4,5.9
		c-1.6-1.1-3-2.1-5.1-3.6c1.8-1.2,3.6-2.5,5.5-3.7c-1-1.9-1.9-2.2-5.6-1.4c-4.2,0.9-5.3-0.2-5.7-4.5c-0.1-0.8-2.7-2.1-4.1-1.9
		c-2.2,0.2-4.3,1.3-6.4,2.3c-0.8,0.4-1.4,1.4-2.3,2.4c-2.1-1.4-4.4-3-6.5-4.4c-1.4,1.9-2.4,4.4-4.3,5.2c-1.6,0.7-4.1-0.4-6.3-0.7
		c-0.9,3.1-1.9,6.8-3,10.4c-1.1,0.3-2.1,0.7-3.2,1c0.1-0.9,0.1-1.9,0.1-2.1c-2.5-1.5-4.6-2.8-6.8-4.1c-0.2-1.6-0.4-3.2-0.7-4.7
		c-0.3-1.2-2.4-2.5,0.3-3.4c-0.3-1-0.7-2-1-2.9c1.4-2.2,2.8-4.3,4.1-6.5c0.6-1.1,0.7-2.4,1-3.6c0.3-1.2,0.5-2.5,0-4.3
		c-1,0.9-2,1.9-2.3,2.2c-2.4-0.7-4.4-1.2-6.8-1.9c0,1,0,1.9,0,2.8c-5.2-2.2,0.8-4.8-0.3-6.6c4.1-0.8,8-1.6,12.1-2.5
		c-0.1,2-0.2,3.1-0.4,5.9c3.2-4.4,5.9-6.8,8.7-1.9c7.9-4.4,7.9-4.4,10.8,0.1l0.1-0.1c-2.9-0.2-5.8,1.1-5.7,3.7
		c0.1,2,2.7,4.1,4.5,5.8c1.1,1,2.9,1.1,5.5,2.1c-0.4-2.8-0.8-5-1.1-7.3c0.3-0.6,0.6-1.3,1-1.9c1.1,1,2.2,1.9,3.4,3
		c1.1-0.6,2.3-1.3,3-1.6c-0.8-2-1.5-3.7-2.3-5.5c0.6-0.4,1.1-0.9,1.7-1.3c2.5,1.8,5,3.5,7.3,5.5c1.7,1.4,2.9,3.5,4.6,4.8
		c0.6,0.5,2.4,0,3.3-0.6c2.7-1.7,5.1-4,7.9-5.5c0.7-0.4,2.5,1.2,3.8,2c0.9,0.6,1.7,1.9,2.6,2c1.7,0.2,3.4-0.2,5.6-0.5
		c0.3-5.3,5.1-4.9,9.3-5.5c-0.7,2.6-0.8,4.9,2.8,4.8c1.5-5.9,1.9-6.2,6.6-4.9c0.5,1.6,1,3,1.5,4.4c1.1-0.9,2.2-1.8,3.1-2.8
		c1.9-2.1,4.9-1.7,6.2,1c0.4,0.7,0.5,1.6,1.1,3.2c1-1.9,1.6-3.1,2.5-4.9c3.1,0.4,6.4,0.8,9.7,1.4c1.4,0.3,2.8,0.9,4.2,1.4
		c1.7,0.7,3.4,1.5,5.1,2.2c1.7,0.7,3.7,1,5,2.1c2.6,2.3,4.5,2.2,6-0.9c0.5-1,0.5-2.3,0.8-3.6c1.5-0.2,3-0.4,4.8-0.7c0,1.7,0,3,0,4.4
		c3.9-2,7.5-3.6,10.5,0c1.8-1.3,3.3-2.4,4.8-3.4c0,0.5,0.1,1.1,0.1,1.6c1.4,0.4,3.3,1.5,4.2,1c5.9-3.4,10.7,1.9,16.2,1.7
		c2.5-0.1,6,2.2,7.2,1.2c2.7-2.2,5-1.9,7.4-0.8c2.9,1.2,5.5,2.4,8.8,1.7c0.7-0.1,1.7,1.3,1.7,1.3c2.4,0.2,3.8,0.4,5.3,0.5
		c0.5,0,1.2,0.3,1.5,0.1c4.5-3.6,8.5-1.1,12.8,0.7c2.5,1,5.2,3.6,8.4,1c0.5-0.4,1.8,0.1,2.6,0.3c2.9,0.7,5.7,1.7,8.7,2.3
		c4.6,1,6.7-1.1,5.9-4.3c3.6-3.2,6.9-6,9.7-8.5c0.8,1.8,1.8,4,2.8,6.4c-0.5,0.4-1.4,0.9-2.6,1.8c1.5,0.6,3.1,0.7,3.5,1.5
		c2.4,4.3,6.5,4.6,10.6,5.1c2.5,0.3,4-0.7,3.7-3.4c-0.3-3,0.8-5.9,0-9.1c-0.9-4.1,0.1-8.6,0.1-12.9c0-0.8-0.7-2.4-1-2.4
		c-4.2,0.4-3.7-2.8-3.9-5.2c-0.5-4.6-0.3-9.3-1.1-13.8c-1.1-6.4-5.1-12.1-5.3-18.8c0-1.1-0.1-2.3-0.2-3.4c0.4,0,0.8-0.1,1.2-0.1
		c-1.2-5.5-2.5-11-3.6-16.5c-1.1-6.1-2.1-12.2-3-18.3c-0.5-3.8-1.4-7.7-0.9-11.4c0.3-2.5,0.5-4.4-1.4-6.1c-3.2-2.7-2.6-5.8-0.9-9.1
		c0.5-1,1.2-2.2,1-3.3c-0.6-5.4-1.5-10.7-2.3-16.1c-0.1-0.4-0.5-0.6-0.7-1c-0.4-1-0.7-2.1-1-3.1c1-0.2,2-0.5,3-0.5
		c0.8,0,1.6,0.4,2.4,0.3c4.8-0.3,8.4,2.7,8.7,6.8c2,1.5,3.7,2.7,5.4,4c1.9,0.8,3.6,1.9,5.3,2.9c0.6,0.4,1.3,0.8,1.9,1.3
		c1.5,1.1,3.1,2.3,4.6,3.4c0.9,0.7,1.7,1.9,2.7,2.1c6.4,1.6,8.6,4.3,8.9,10.6c0,1,0.9,1.9,1.3,2.9c0.3-0.1,0.6-0.2,1-0.3
		c0.3-1.1,0.6-2.1,1-3.4c3.7,2.3,7.2,4.3,10.4,6.6c2.8,2,5.4,4.4,8.2,6.5c3.9,3,7.8,5.9,11.8,8.8c3.9,2.8,8,5.4,11.9,8.3
		c2.6,1.9,7.1,2.9,5,7.9c-0.1,0.3,0.3,0.9,0.6,1.5c1.2-0.7,2.5-1.9,3-1.6c3.4,2,7.9,1.7,10.7,5.3c1.6,2.1,4.3,3.5,6.6,5
		c3.5,2.3,7.2,4.3,10.7,6.5c0.7,0.5,1.3,1.3,1.6,2.1c0.8,1.8,1.4,3.7,2.3,6.4c1.1-1.9,1.7-3.1,2.5-4.6c3.4,1.9,6.8,3.4,9.9,5.5
		c4.3,2.9,7.9,7.1,12.6,8.9c5.5,2,10.2,3.9,11.8,9.9c1.5-0.5,3-1.6,3.8-1.2c3.3,1.5,6.5,3.2,9.4,5.2c7.9,5.4,15.7,10.9,23.4,16.4
		c10.1,7.2,20.2,14.3,30,21.9c7.7,6,15.1,12.5,22.4,18.9c10,8.8,19.8,17.8,29.6,26.9c2,1.8,3.1,3.9,1,6.7c-2.4,3.3-2,7.5,1.2,9.5
		c3.4,2.1,4.3,4.2,3.4,8.1c-3.5-1.7-6.9-1.4-9.8,1.4c-0.8,0.8-2.5,0.9-2.8,1.7c-1.1,3-1.7,6.2-2.5,9.3c-0.1,0-0.3,0-0.4,0
		c0-1.2,0-2.4,0-3.8c-3.1-0.2-6.6-2.2-8,1.7c-0.9,2.6-0.2,5.6-0.2,8.5c-0.4,0-0.8,0-1.2,0.1c-0.5-3.1-0.9-6.3-1.5-9.4
		c-0.2-0.8-1.4-2.2-2-2.1c-2.4,0.4-4.8,1-6.9,2.1c-0.9,0.4-1.2,2.2-1.6,3.3c-1.9,4.6-3.4,5-7.7,2c-0.2-0.1-0.5,0-0.7,0
		c0.1,0.3,0.3,0.6,0.4,0.9c-1.6,1-3.5,1.7-4.6,3.1c-2,2.4-4,2.2-6.4,0.9c-2.5-1.4-5.1-2.8-8-1c-0.8,0.5-2.1,0.9-2.2,1.6
		c-0.1,0.8,0.6,2,1.3,2.4c3.9,2.5,3.9,3.3-0.5,5.5c-1.6,0.8-3.5,0.9-5.2,1.3C844.9,796.9,846.1,795,847.4,793z M700.7,619
		c-0.4-1.1-1.1-2-2.3-2.7c-0.3,2.7-2,6,2.7,6.1c0.5,0.7,1,2,1.6,2.1c1.9,0.3,3.9,0.1,6.8,0.1c-1.2-2-2.2-3.5-3.5-5.6
		c-1.7,1.2-3.3,2.4-4.9,3.5C701,621.3,701.1,620.1,700.7,619z M590.7,802.1c3.9-3.3,1.6-6,1.4-9.4c-1.5,1.8-2.4,2.8-3.2,3.8
		c-0.2-1.8-0.5-3.6-0.7-5.6c-5.4,3.5-5.9,5-3.4,9c1.4-1.2,2.8-2.3,4.2-3.5C589.4,798.1,590,799.8,590.7,802.1z M662.2,677.8
		c0-1.4-1.1-2.9-2.1-4.1c-0.4-0.4-2.3-0.3-2.5,0c-0.4,1-0.5,2.3-0.4,3.4c0.4,2.8,0.9,5.5,1.4,8.2c-0.4,5.3-0.6,10.6,1.8,15.5
		c1.3,2.6,2.7,2.3,5,0.2c-4.9-1.1-3.6-4.3-3.1-7.3c0.3-1.9,1.5-4-1.1-5.6c-0.6-0.3-0.4-2-0.5-3.1
		C661.2,682.7,662.1,680.3,662.2,677.8z M334.9,732.7c-1.3-0.1-2.5-0.5-3.4-0.1c-0.8,0.3-1.8,2-1.6,2.3c0.6,0.9,1.8,1.4,2.7,2.1
		c0.1,3.7-0.2,7.4,0.5,11c0.5,2.5,2.3,4.4,5.3,2c-0.1,2.6-0.4,5.3-0.3,7.9c0,0.5,1.5,1,2.3,1.5c0.7-1.9,2.1-3.9,1.8-5.7
		c-0.2-1.4-2.5-2.5-3.9-3.7c0.2-1.1,0.4-2.2,0.6-3.3c0.2,0.1,0.5,0.1,0.7,0.2c-0.5-2-1.1-3.9-1.6-6c-0.3,0.4-0.8,0.9-1.2,1.3
		c-1.5-1.8-2.9-3.5-4.3-5.2C333.2,735.9,333.8,734.6,334.9,732.7z M813.5,732.1c-1.5-1.5-3.1-3.5-5.1-4.9c-0.9-0.6-2.8,0-5.4,0.2
		c2.1,2.1,3.6,3.3,4.6,4.8c1.3,2.1,2,4.5,3.1,6.7c0.4,0.8,1.2,1.5,1.8,2.2c0.2-0.5,0.4-1,0.5-1.5c4.9,2.3,5.4,3.6,3.8,6.6
		c0.8,2.5,1.4,4.4,2.3,7.2c0.7-3.3,1.3-6.1,2.1-9.8c-2.3-1.5-5-3.3-7.8-5.1C813.5,736.5,813.5,734.4,813.5,732.1z M430.7,768.2
		c0.4,0.5,1.9,0.8,2.5,0.4c0.8-0.5,1.5-1.6,1.6-2.5c0-0.6-1-1.6-1.7-1.8c-1.4-0.4-2.9-0.3-4.4-0.5c-0.5-0.4-1.1-1.1-1.5-1
		c-2.2,0.4-4.3,1.1-7,1.8c0.5,0.8,1.2,2,2,3.3c-0.9,0.9-2,2-3.1,3.1c0.2,0.3,0.4,0.7,0.6,1c2.6-2,4.7,4.5,7.4,0
		c0.7,1.4,1.3,2.9,2,4.3c-0.3,0-0.5-0.1-0.8-0.1c-0.5,2.1-0.9,4.2-1.5,6.3c-0.4,1.5-0.6,3.2-1.3,4.4c-1.8,2.9-2.3,5.7,0.3,8.8
		c0.6-2.6,1.2-5.2,1.9-8c4-0.4,4.7,3,4.4,5.2c-0.7,5.2,2.8,7.2,5.9,9.5c0.5,0.3,2.3-0.2,2.6-0.8c0.8-1.9,1.2-3.9,1.8-5.9
		c0.8,0.8,1.6,1.5,2.4,2.3c-3.1-3.4-6.2-6.7-9.2-10.1c-0.1-0.1,0.7-1,1.2-1.7c0.5,0.8,0.9,1.3,1.3,1.9c0.4-0.5,1.1-1.1,1-1.4
		c-0.5-1.1-1.1-2.8-2-3.1c-5.6-1.7-5.9-2.2-4.2-7.8c0.5-1.7,0.5-3.5-0.2-5.5c-0.8,1-1.6,2-2.5,3.2c-1.1-0.5-2.1-1-3.2-1.6
		c0.3-1.5,0.6-3,0.9-4.5c0.2-1.2,0.5-2.4,0.7-3.7C429.3,765.4,429.8,767,430.7,768.2z M772.1,759.2c-0.5-1.8-2.4-3.2-3.8-4.8
		c-1,2.5-1.8,4.1-2.2,5.7c-0.2,0.8,0.2,1.7,0.3,2.6c4.3-1.7,3.9,3.4,6.3,4.5c0.1,2.9,0.3,5.8,0.3,7.8c1.2,1.8,2.6,3,2.9,4.4
		c1.1,4.9,3.1,9.2,7.7,13.5c0.7-3.8,1.2-6.7,1.8-10c-1.6,0.1-2.6,0.2-3.7,0.3c1.9-2.8,1.5-2.1-0.8-3.5c-1.9-1.2-3.7-4.4-3.4-6.5
		c0.6-4.3-1.2-5.6-4.8-6C772.5,764.5,772.8,761.7,772.1,759.2z M466.4,745.5c4.9-9.3,3.8-12.9-3.9-13.4c0.2-0.9,0.5-1.7,0.7-2.6
		c0-0.1-0.2-0.2-0.7-0.9c-2.9,3.7-5.8,7.4-8.7,11.1c-0.1-0.1-0.5-0.2-0.8-0.5c-0.9-0.9-1.8-1.8-2.7-2.7c0.1,1.5-0.2,3.2,0.6,4.3
		c0.9,1.4,2.7,2.3,3.5,3c0.6,3.9,1.1,7.3,1.7,11.4c4.2-2,7.2-3.4,10.1-4.8c-1.2-2.5-1.8-3.9-2.5-5.3l-0.1,0.1
		C464.5,745.3,465.4,745.4,466.4,745.5z M675.3,671c0.7-0.1,1.4-2.2,1.6-3.5c0.1-0.6-0.9-1.3-1.4-2c-0.7,0.8-1.5,1.5-2.2,2.3
		c-0.5,0.7-0.9,1.5-1.4,2.2c-0.3-2.7-0.6-5.3-0.9-7.9c-0.5,0-1,0-1.6,0c-0.4,4.5-0.8,9-1.2,13.6c-0.9,0.8-1.7,1.6-2.5,2.3
		c4.2,6.7,6.1,13.7,2.6,21.4c-0.7,1.7-0.2,3.9-0.2,5.8c2.6-0.4,3.7,4.3,7.1,1.8c1.8-1.3,6.7,2.1,7,4.3c0.1,1.2,0.3,2.4,0.4,3.6
		c2.9-0.9,3.6-2.4,2.6-5.4c-0.9-2.6-1.2-5.7-2.9-7.8c-3-3.8-0.7-7.3-0.3-10.9c0.1-1,1.7-1.7,2.7-2.7c-0.3-1.1-0.6-2.4-0.9-3.7
		c-7-1.4-2.9,6-6.2,7.6c-2.7-5.5-5.4-10.8-8-16C670.8,673.7,672.1,671.6,675.3,671z M369.4,805.8c1.2-3.5,2.6-5.3,6-2.1
		c1.7,1.6,3.7,0.6,4.6-1.9c1.1-2.7,2.5-5.3,4-8.2c0.1,0.2-0.1-0.2-0.4-0.4c-1.1-0.6-2.2-1.1-3.3-1.6c0.7-1.2,1.3-2.6,2.2-3.7
		c0.6-0.8,1.6-1.3,2.3-1.9c-1-0.4-2.1-0.8-3.1-1.1c-0.5-0.2-1-0.2-2.2-0.4c3.6-2.2,3.2-3.2,0.2-5.4c-2.4-1.7-3.4-5.4-4.6-8.5
		c-1.8-4.5-3.1-9.1-4.7-13.7c-0.1-0.4-0.4-0.9-0.7-0.9c-4.5-1.4-5.1-5-5-9.3c-3.5,1.1-6.4,1.8-3.8,6.3c0.5,0.8-0.6,2.6-1.2,4.8
		c1.7,0.6,3.7,1.4,6.2,2.4c-1.4,1.1-2.4,1.9-4.1,3.2c5.9,0.2,10.6,1.3,10,7.7c-0.4,0.4-0.8,0.8-1.2,1.1c-2.1-2.4-4.3-4.8-6.5-7.3
		c-1,1.7-2.1,3.6-3.6,6.1c2.2,0.6,4.1,1.1,6,1.5c1.5,2.2,3.2,4.6,4.1,5.9c-0.3,2.3-0.5,3.6-0.5,5c0,1.2,0.2,2.4,0.4,3.6
		c0.1,0.8,0,2.2,0.3,2.3c5.1,1.3,3.3,5.6,4.2,10c-2.4-0.7-4.1-1.4-6-1.8c-3.7-0.9-3.6,2.2-4.3,4.4c-1.6-0.2-3.3-0.5-4.6-0.7
		c0.4-2.3,1.3-4.3,0.7-5.6c-0.8-1.9-3.4-4-5-1.6c-1.2,1.9-1,5.1-0.5,7.6c0.4,2.1,3.2,2.9,4.7,4.2c2.5,2.2,3.9-1.4,4.9-3.7
		C366.5,803.3,367.8,804.5,369.4,805.8z M645.3,887.1c1.1,0.6,2.1,1,3,1.5c0.3-1.1,0.7-2.2,0.7-3.2c0-1.4-0.4-2.9-0.7-4.3
		c-0.1-0.7-0.8-1.4-0.6-1.9c1.5-3.5,3.1-6.9,4.7-10.5c-0.6-0.5-1.4-1.2-1.9-1.6c1-2.5,1.3-5.7,2.9-6.8c2.9-1.9,1.7-4.1,1.9-6.3
		c0.1-0.6-0.1-1.7-0.4-1.8c-4.4-1.7-2.2-5-1.9-7.7c0.7-6.9,2.5-13.7,2.4-20.6c-0.1-5.3-2.9-10.3-8.3-13.9c1.2-0.7,2.1-1.2,3-1.7
		c-0.6-0.7-0.9-1.2-1.1-1.2c-1.7,0.3-4.2,0.2-4.8,1.2c-1.4,2.3-2.3,5.1-2.6,7.8c-0.8,6.8-1.1,13.6-1.8,20.4
		c-0.4,3.8-2.1,7.8-1.2,11.2c0.8,3.1,1.3,5.9,0.4,8.8c-0.8,2.6-1.8,5.2-2.9,8.1c4.2,1.3,3.3,4.5,1.9,8.6c-1,2.9-0.5,6.4-0.6,9.7
		c-0.1,3.7,0.7,7.7-4.6,8.2c1.5,2.5,3.2,4.4,4,6.6c0.7,2.1,0.6,4.6,0.8,6.9c0.4,0,0.7,0.1,1.1,0.1c1.6-2,3.3-4,4.6-5.7
		c1.9-0.5,3.5-0.9,5.1-1.3c0.8-1.4,1.8-2.7,2.2-4.1c0.2-0.6-0.9-1.8-1.6-2.3c-0.5-0.3-1.4,0.1-2.2,0.2c0.2,0.8,0.4,1.6,0.6,2.4
		c0.3,1.3,0.7,2.6,1,3.8C643.7,895.2,645.5,890.9,645.3,887.1z M803.5,687.2c1.1,0.2,2.9,0.8,3.1,1.6c0.8,3.3,1.1,6.8,1.7,11
		c2.8,2.3,6.4,5.2,10,8.2c0.2-0.2,0.5-0.5,0.7-0.7c-0.4-0.9-0.7-1.8-1.3-3.1c2,0,3.8-0.4,5.4,0.2c0.7,0.2,1,2.2,1.1,3.4
		c0.1,1.6-0.1,3.3-0.2,4.7c3.4,0.4,6.1,0.8,8.8,0.9c0.6,0,1.3-0.7,2-1.1c2.6-1.6,5.1-2.2,7.4,1c-2,0.2-3.6,0.3-5.3,0.4
		c-0.1,0.4-0.2,0.7-0.2,1.1c1.7,0.6,3.4,1.3,5.1,1.9c-0.1,0.4-0.2,0.8-0.3,1.2c-2.8-0.7-5.6-1.3-8.3-2c-0.4,3.8,0.4,4.4,4,3.5
		c1.9-0.5,3.9-0.6,5.8-0.7c4.3-0.2,4.9,0.7,3.4,4.5c2.1,2,4.1,4,6.1,6c-3.3,2.5,1.6,2.9,1.1,4.1c2,0.2,3.7,0.3,5.7,0.5
		c-2.4-1.6-4.6-3.1-6.8-4.6c1.8,0,3.6,0,5.3,0c-1.1-1.9-2-3.5-3-5c0.4-0.2,0.8-0.4,1.3-0.6c0.2,0.9,0.5,1.8,0.8,3
		c0.6-0.9,1.2-1.6,2-2.7c0.3,2,0.3,3.8,1,5c0.7,1.3,2.2,2.1,3.3,3.2c0.8-0.9,1.5-1.8,3-3.6c1.2,2.6,2,5.8,3.9,8.1
		c1.9,2.3,4.9,3.7,7.9,5.9c-2.3,1.2-4.1,2.1-6.4,3.4c2.7,0.9,4.6,1.5,6.6,2.2c0,0.5-0.1,1.6-0.2,2.5c0.4,0.2,0.6,0.5,0.8,0.4
		c4.1-0.3,7.9,3.7,8.3,8.4c0.1,0.9,0.7,2.4,1.1,2.4c2,0.1,4.2,0.1,6.1-0.5c2.4-0.7,2.8-2.7,2.8-5.1c0-0.8,1.5-1.9,2.6-2.3
		c1.3-0.5,3-0.2,4.3-0.7c1.5-0.6,2.7-1.7,4-2.6c-0.9-1.1-1.6-2.3-2.7-3.1c-4.7-3.7-9.5-7.3-14.2-11.1c-1.5-1.2-2.4-3.1-3.7-4.5
		c-0.5-0.6-1.3-1-2.1-1.3c-3.2-1.3-6.4-2.1-8.2-5.8c-0.8-1.8-3.7-2.6-6.2-4.2c0-0.6,0-2.2,0-3.8c-5,2.6-6.8,1.9-9.3-3.4
		c-0.3-0.7-0.8-1.8-1.2-1.8c-3.7-0.1-6.1-2.4-8.5-4.8c-2.6-2.7-5.3-5.1-8.2-7.9c-0.2,0.3-0.8,1.2-1,1.5c-2.7-1.6-5.2-3-8.3-4.8
		c0.1-0.8,0.2-2.5,0.3-4.3c-3.7,2-8.4,0.4-10.2-2.7c-0.8-1.4-2.8-2.1-4.2-3.2c-1.4-1-3.2-1.7-4-3c-2.6-3.9-2.4-4-6.5-2.6
		c0-0.8,0.3-2,0-2.2c-3.1-1.6-6.3-2.9-9.3-4.5c-1.3-0.7-2.5-1.6-3.8-2.5c-1.9-1.3-3.8-2.9-5.8-4c-1.2-0.6-2.9-0.5-4.3-0.8
		c-1.9-0.5-3.1-1.1-2.8-3.8c0.2-1.9-1.1-4.1-2.2-6c-0.3-0.6-2.6-0.9-3-0.5c-2.7,3.2-4.3,0.5-5.1-1.2c-1.5-3.2-3.6-4.1-7-4
		c-4.4,0.2-6.4-1.9-7.5-6c-0.3-1.1-2.3-1.7-3.5-2.5c-0.3,0.3-0.6,0.6-0.9,0.8c0-0.6,0.1-1.2,0-1.9c-0.1-0.5-0.3-1-0.5-1.7
		c-2.2,1.5-4.1,2.8-6.7,4.6c0.8,1.9,1,5.3,4.9,6.5c0.6,0.2,0.9,1.3,1.5,1.8c1.2,1.1,2.5,2.9,3.8,3c5.7,0.2,6.4,4.6,8,9
		c0.5-1.1,0.8-1.8,1.1-2.5c3.5,2.5,7,4.9,10.4,7.7c1,0.8,1.2,2.6,2,4.4c1.2-0.1,2.7-0.2,4.3-0.4c0.2,0.3,0.5,0.6,0.7,0.9
		c-0.9,0.6-1.8,1.3-2.7,1.8c-1,0.5-2.1,0.8-2.9,1.7c7.3-3.3,6.9,2.9,8.7,6.5c0.1-1.6,0.3-3.1,0.4-4.6c3.2-0.6,3.2-0.6,5.5,6.5
		c0.4-0.8,0.7-1.4,1.1-2.1c0.3,2,0.5,3.9,0.6,4.7c2.1,1.6,3.5,2.8,5.5,4.3c0-1.8,0-3.3,0-4.9l-0.1,0.1
		C801.4,687.4,802.5,687,803.5,687.2z M270.4,797.3c0.7,4.1,1.3,7.7,2,12c7.8-1.2,15.2-2.4,23.7-3.7c-1.9-1.1-3.2-1.9-5-2.9
		c1-2.3,2.1-4.6,2.8-6.4c0.4-1.7,0.7-2.9,0.9-4c0.5-4.1,0.9-8.2,1.3-12.4c0.2-2.1,0.1-4.2,0.1-6.4c0-0.5,0.2-1.2,0-1.6
		c-4.3-6.7-1.5-14.5-2.9-21.6c-0.6-2.8,1.2-6,1.5-9c0.3-3.3,0-6.6,0-9.9c0-1-0.1-2,0-3c0.6-5,1.2-10,1.8-15
		c-0.6-0.2-1.2-0.3-1.8-0.5c-0.5,1.3-1.4,2.6-1.4,3.9c0,3.5,0.8,7.1-2.2,9.8c-1.3,1.2-2.7,2.3-4.1,3.4c-0.3-0.3-0.6-0.5-0.8-0.8
		c-0.4,2.1-0.5,4.3-1.3,6.3c-1.4,3.2-1.1,5.7,1,8.5c0.6,0.7-0.8,2.9-1,3.7c-2.2,0.8-3.8,1.3-5.4,1.8c1.1,0.8,2.3,1.5,3.4,2.3
		c0.5,0,0.9,0,1.4,0c-1.5,3.4-3,6.8-4.3,10.2c-0.5,1.4-0.6,3.1-0.8,4.6c-0.8,5.3-1,10.7-2.6,15.8c-1,3.3-3.8,6-6.1,9.4
		C273.7,793.8,271.9,795.7,270.4,797.3z M546.2,793.7c1.7,2.4,2.6,4.6,6.1,3.3c1.6-0.6,3.9,0.7,5.9,1.1c0.4,0.1,0.8,0.6,1,0.5
		c1.7-0.4,4.7-0.8,4.8-1.5c0.4-3.6,7.4-3.7,4.1-8.8c-0.4,1.1-0.7,2.2-1.4,4.4c-0.2-2.8-0.4-4.5-0.5-6.5c-4,1.6-5.2-0.7-5.6-4.5
		c-0.3-3.6-3.2-6.7-1.7-10.7c0.1-0.4-1.9-1.8-3.1-2.2c-0.8-0.3-2,0.5-3.4,0.9c-0.4-3.1-0.6-5.9-1.1-8.7c-0.4-2-1.4-2-2.6-0.4
		c-0.3,0.4-0.7,0.6-1.6,1.3c1.8-6.3-0.5-10.5-4.7-14.3c-1.1-1-1.1-3.2-1.7-5.2c-0.7,0.9-1.7,2.1-2.9,3.7c-1.7-2.3-3.3-4.5-4.9-6.7
		c0.3,0,0.7-0.1,1-0.1c0.4-3.7,0.8-7.4,1.3-11.5c-1.6-0.6-3.6-1.2-5.5-2.1c-0.2-0.1,0.2-1.4,0.1-1.3c1.8-0.9,3-1.5,4.1-2
		c-0.9-0.9-1.8-1.7-2.6-2.6c-2.5-2.8-5.3-3.2-6.7,0.5c-0.8,2.1,0,5,0.8,7.3c0.9,2.5,3.6,4.5,1.8,7.7c-0.2,0.4,0.7,1.3,1,2
		c1,2.1,3.4,3.2,2.7,6.5c-0.3,1.6,2.3,3.6,3.2,5.6c0.6,1.3,0.7,2.9,0.9,3.8c1.5,2.3,2.8,4.3,4,6.3c1.2,2.1,2.3,4.4,3.8,7
		c-1,0.6-2.1,1.3-3.3,2c-0.4-0.8-0.9-1.6-1.4-2.5c-3.5,1.6-1.4,3.3,0.2,4.6c2,1.7,6.1,1.7,3.8,6.5c-0.8,1.7,5.3,5.1,7.9,4.5
		c1.7,3.2-4.7,6.5,0.6,9.6C549.1,792.2,547.8,792.9,546.2,793.7z M661.3,883.1c0.3,0.1,0.6,0.3,0.9,0.4c0.5-0.8,0.9-1.7,1.4-2.5
		c1.4-2.1,2.8-3.7,5.6-4.4c2.9-0.8,7-2.1,5-7.1c-0.1-0.3,1.8-2.1,2.4-1.9c4.2,1.3,3.7-1.2,3.3-3.7c5.6-2.4,5.5-2.5,2.6-7.9
		c-0.9-1.6-0.7-3.9-0.6-5.9c0.1-3.7-0.3-6.3-3.8-9.2c-3.1-2.6-6.7-6.2-6.1-11.6c0.3-2.2-0.9-4.7-1.5-7.5c-2,4.1-3.5,7.2-5,10.3
		c-0.3,0.6-0.5,1.7-0.1,2.2c3.6,5.2,0.9,10.7,0.6,16c-0.4,7.2-2.2,14.3-3.2,21.4c-0.1,1.1,0.8,2.3,1.2,3.6
		C663.3,877.8,662.3,880.5,661.3,883.1z M487.4,738.8c-2.7,0.6-5.5,0.4-7,1.7c-1.6,1.4-3.5,4-0.2,6.3c-1.3,0.9-2.2,1.6-3.4,2.4
		c1.1,0.9,2,1.6,2.5,2.1c-0.2,1.7-0.8,3.2-0.4,4.3c0.8,2,2.2,0.8,3.5,0.3c0.5-0.2,1.6,0.7,2,1.4c0.9,1.3,1.5,2.9,2.3,4.7
		c-0.9,0.6-2.3,1.6-3.9,2.7c1.6,0.2,2.8,0.4,4.1,0.5c1.8,1.2-0.8,6,3.1,4.8c1.6,5.2,3.1,10.1,4.8,15.7c0.5-0.1,1.9-0.3,3.4-0.5
		c0.7,3.5,1.4,7.5,2.3,12.2c2.7,0.2,5.9,0.9,9,0.7c3.4-0.2,2.4-3,2.2-5.2c-0.3-4.4-1.6-9.1-0.5-13.1c0.9-3.2,0.2-5.1-1.1-7.8
		c-2.4,2.9-5.7,4.9-2.3,9.2c0.7,0.9-0.9,3.8-1.7,5.7c-0.1,0.4-1.3,0.3-2.3,0.4c0.4-2.6,0.8-4.9,1.2-6.9c-1.6-3.2-3.3-6.6-5.4-10.7
		c-1.8,0-2.8-2.3-4.6-4.5c-2.5-3-1.7-4.8-0.5-7.4c0.3-0.5-0.3-2.1-0.5-2.1c-1.5-0.1-2.9,0.1-4.8,0.3c0-2.1,0-4.4,0-7
		c-1.8,0.4-3.3,0.8-5.8,1.4C485,746,486.1,742.6,487.4,738.8z M311.7,743.8c-1.3-5.3-0.2-6.5,4.9-5.4c0.5,0.1,1.1,0,1.5-0.3
		c1.5-0.9,3.1-6.6,2.3-8.2c-1.9-3.8-2.1-7.6,0.2-11.4c0.3-0.5,0-1.4,0-2c-0.1-1.7-0.3-3.3-0.4-5c0-0.3,0.6-0.9,0.5-1
		c-3.3-3.8-1.6-7,1.8-10c-0.4-0.3-0.7-0.6-1.1-0.8c-1.4,0.6-2.9,1.1-4.2,1.9c-3.4,2.2-5.5,1.9-7.9-1.2c-1.5-1.9-3-1.5-3.6,0.4
		c-0.9,3.1-2.7,6.1-1.4,9.8c0.9,2.7,0.3,5.8,0.6,8.8c0.5,4.9-0.1,9.9,2.2,14.8c1.4,2.9,1.2,6.6,1.9,10.6
		C310.2,744.3,310.9,744,311.7,743.8z M457.2,757.9c1.5,1.4,3.2,2.9,5.1,4.5c-1.3,1.5-2.1,2.3-3.2,3.6c3.8,0.1,5.3,1.6,4.8,5
		c-0.2,1,1,2.4,1.9,3.2c2.7,2.7,3.7,5.4,2.3,9.3c-0.4,1.3,1,4.6,1.9,4.7c5.1,0.7,4,2.8,1.8,5.3c1.6,5.6,7.1,7,10.9,7.9
		c3,0.7,7.2-3.2,10.8-5c-0.2-0.4-0.3-0.8-0.5-1.2c-1.1-0.1-2.2-0.3-4-0.5c2.6-4.5,1.4-7.4-3.8-8.1c-0.2,0.2-0.6,0.7-1.2,1.6
		c-1-3.3-2.5-3.8-4.9-1.3c0.2-0.4,0.5-0.7,0.7-1.1c3.1-5.2,2.6-8-1.9-11.9c-1.3-1.1-2.2-2.6-3.3-3.8c-1.2-1.3-2.7-2.3-3.7-3.8
		c-1.2-1.8-2-4-3.3-6.5c-0.7,0.8-1.5,1.8-2.3,2.7c-0.3,0-0.5,0-0.8-0.1c0.3-1.3,0.9-2.6,0.8-3.9c-0.1-1.3-0.9-2.5-1.3-3.4
		C461.1,756.3,459.1,757.1,457.2,757.9z M489,729c-2.9-4.9-2.3-8.3,2.7-13.7c0.2,1.8,0.2,3.2,0.6,4.4c0.4,1.3,1.1,2.5,1.9,4.3
		c2.9-7.2,1.3-13.4-3.5-15.8c-0.3,1.1-0.7,2.1-1.3,3.9c-1.8-2.9-5.2-4.4-2.7-7.7c-1-1.9-1.8-3.5-2.7-5.3c-9.8-0.8-9.9-0.8-11.8,3.5
		c1.7-0.3,3.3-0.5,4.1-0.7c0.7,2.6,1.3,4.5,1.9,6.6c-0.6,0.7-1.7,2.2-3,3.8c3.2-0.2,6.9-1.5,7.8-0.4c1.9,2.3,2.5,5.8,3.9,9.8
		c-2.8-0.3-4.6-0.7-6.2-0.4c-1,0.2-1.7,1.6-2.5,2.5c-0.7,0.8-1.4,1.7-2.3,2.4c-0.1,0.1-1.4-0.6-1.4-0.9c0.1-1,0.5-1.9,0.7-2.9
		c0.5-2,1.6-4-1.4-5.2c-0.8-0.3-1.8-1.2-2-2.1c-0.9-2.8-2.8-2.9-5.1-2.5c-2.4,0.4-3,1.7-2.9,4c0.1,1.9-0.2,3.7-0.3,6.1
		c1.1-1.3,1.9-2.3,2.9-3.2c0.7-0.7,1.6-1.2,2.4-1.7c0.7,1.1,1.9,2.1,2,3.2c0.1,3-0.2,6-0.4,8.4c3.4-0.3,6.9-0.8,10.4-0.8
		c0.5,0,1.1,2.4,1.3,3.7c0.5,3.5,2.2,4.6,5.1,3.1C484.6,730.5,485.4,730.3,489,729z M737.5,805.4c-3.2-0.7-6.1-1.4-9.3-2.1
		c-2.3,4.1,3,6.8,2.4,11.1c-1.1,1.1-4.7,1.5-2.1,4.5c-2.6,2.3-7.7,0-7.6,5.4c-4.8-1.9-4.9-3.1-2.3-7.2c0.9-1.4,0.6-3.7,0.9-5.5
		c-0.5-0.1-1-0.3-1.5-0.4c-0.8,1-1.5,2-2.1,2.7c-2.5-1-5-2.1-8-3.3c0.1,1.4,0.2,3.4,0.3,5.4c0,0.7,0.3,1.7-0.1,2.2
		c-1.8,2.6,0,2.7,1.8,2.6c3.9-0.1,5,1.5,3.2,4.9c-1.5,2.9-1.5,2.9,1.6,3.2c-0.3,1-0.6,1.9-0.9,2.8c2.2,3,14.2-2.6,18-8.4
		c0.5,0.8,1,1.5,1.5,2.2c0.3,0,0.7-0.1,1-0.1c-0.2-2.2-0.4-4.4-0.6-6.8c0.2,0,1,0,1.3,0c0.6-1.1,1-2.2,1.7-3.2
		c0.6-0.9,1.4-1.7,2.7-3.2C732.2,810.6,737,807.2,737.5,805.4z M649.9,588.9c1.9-3.5,0.5-5-2.5-6.8c-1.5-0.9-1.9-3.9-2.7-6
		c-0.4-1-0.5-2-0.7-3.1c-0.4-0.1-0.8-0.1-1.2-0.2c-0.5,1.9-0.9,3.8-1.4,5.7c-2-1.4-4.1-2.8-6.1-4.2c-0.5,0.3-1,0.6-1.4,0.9
		c1,4.3,1.9,8.5,3,13.3c2.3-0.7,3.9-1.2,5.4-1.7c2.4,2.3,1.5,7,6,7.9c0.6,0.1,0.8,2.4,1.2,3.6c1.6,0.4,3.1,0.7,4.5,1
		c-1.4,1.7-2.7,3.4-4,5c0.3,0.3,0.7,0.6,1,0.9c2.6-0.9,5.2-1.9,7.8-2.8c0.6-3.4,1-6.9-2.7-8.8c-0.9-0.4-2.4,0.5-4,0.8
		c0.6-2,1.2-4.5,1.9-7c-0.4-0.2-0.7-0.4-1.1-0.6C652,587.7,650.9,588.3,649.9,588.9z M346.3,711.8c-1.6-2.2-3.2-4.4-5.4-7.4
		c-0.4,2.2-0.6,3.8-0.9,5.5c-0.4,0.1-0.7,0.2-1.1,0.3c-0.5-1.6-0.9-3.1-1.4-4.7c-0.5-1.4-1.1-2.8-1.7-4.1c-1.3-2.6-2.6-5.2-4.2-7.6
		c-0.5-0.7-1.6-1.1-2.4-1.6c-0.5,0.9-1.4,1.7-1.4,2.6c0,4.3,0,8.5,0.3,12.8c0.2,2.2,0.9,3.9,4,4.1c1.6,0.1,3.1,2.4,4.5,3.5
		C339.5,714.2,342.7,713.1,346.3,711.8z M669.4,718.1c-0.2,1.4-0.5,2.8-1.7,4.1c1.1,3.2,2.1,6.4,3.3,9.5c0.8,2.2,1.9,2.9,4.1,1.1
		c3.1-2.6,6.3-4.9,3.1-9.7c-0.3-0.5,2.1-2.7,3.5-4.4c-1.8-2.2-3.1-6-7.8-3.5c-0.4,0.2-1.8-1.2-3.6-2.6
		C670,714.9,669.7,716.5,669.4,718.1z M346.5,761.8c-1.6-0.2-1.6-0.2-6.1,5.8c1,0.4,2,0.6,2.7,1.2c1.6,1.3,4.3,2.9,4.2,4.2
		c-0.5,8.8,5.4,13.8,10.8,20.1c-0.5-4.8-0.9-8.6-1.3-12.4c-0.4-3.7-2.5-1.4-4-0.9c-4.1-5.3,1.4-10.1,1.1-15.2
		c-2.8,0.1-5.1,0.2-7.5,0.3C346.5,764.2,346.5,763,346.5,761.8z M452.8,719.6c0-0.4,0.1-0.8,0.1-1.2c2.5-0.2,5-0.3,7.2-0.5
		c1.2-2.1,3.9-4.7,3.3-6.1c-2.1-5.5,3.5-4.9,5.2-7.5c-2.7-1-5.3-2.1-7.9-2.8c-0.7-0.2-2.6,0.9-2.5,1.4c0.1,1.6,0.7,3.1,1.4,5.5
		c-1.3,0.5-3.4,1.2-5.7,2.1c0.2,0.9,0.6,2.6,1.1,4.8c-1.8,0.3-3.1,0.6-5,0.9c0.2-2.1,0.3-3.8,0.5-5.6c-0.9-0.5-1.9-1.1-3.1-1.7
		c-1.3,1.6-2.4,3.1-3.4,4.4C447,715.4,449.9,717.5,452.8,719.6z M525.3,792.1c1,1.3,2.4,2.3,3.9,3.2c2.2,1.3,3.2-0.1,3.3-2.1
		c0.1-1.8-0.2-3.7-0.3-5.9c-1.3,0.8-2.5,1.5-4.3,2.7c0.6-1.7,1-2.6,1.4-3.5c-1.1-0.6-2.1-1.1-3.5-1.8c0.5-1,0.9-2,1.4-3.2
		c-2-0.6-3.8-1.1-6.1-1.8c3.4-4.4-0.2-7.4-2-10.8c-2.2,1.1-2.3,3.1-1,6.8c0.7,2,0.7,4.2,1.2,7.4
		C520.8,785.4,522.9,788.9,525.3,792.1z M316.3,792.7c-0.1-3.3-1.4-4.6-4.6-4.4c-3.1,0.2-5.2,1-4.6,4.9c0.3,2.2-0.3,4.7,0.2,6.8
		c0.3,1.2,2.3,3,3.2,2.8c2.9-0.5,5.7-1.7,7.7-2.4C317.4,797.3,316.3,795,316.3,792.7z M755.7,790.5c2.2-4.5,2.3-9.7-0.5-15.2
		c-0.3,1-0.6,2-0.9,3.1c-4.5,0.3-6.6,4-4.3,8.3c1.5,2.8,3.5,5.3,5.2,8c0.7,1.1,1.5,2.2,1.7,3.4c0.8,4,1.6,4.4,6,2.7
		C760.4,797.3,758.1,794,755.7,790.5z M798.7,767.7c1,1.1,2.2,1.9,2.7,3.1c0.3,0.9,0.1,2.5-0.6,3.2c-1.4,1.4-3.5,2.2-4.8,3.7
		c-1,1.1-1.9,2.9-1.7,4.3c0.1,1.3,1.7,3.5,2.6,3.5c2.1,0.1,4.8-0.4,6.1-1.7c2.2-2.4,3.8-5.3,1.5-9c-1.1-1.8-0.6-4.7-0.9-7.1
		c-0.1-1-0.3-1.9-0.6-3.5C801.2,765.6,800,766.6,798.7,767.7z M446.8,721.9c-0.8,0.2-1.6,1.2-2,2.1c-1.1,2.4,1.8,9.4,4.3,10.3
		c3.5,1.4,7-1.5,6.1-5.4c-0.6-2.6,0.1-3.8,2.6-4.2c-1.3-3.4-6.1-3.9-8.7-1.1C448.3,722.9,447.5,721.8,446.8,721.9z M845,749.5
		c1,3.1,2,6.3,3.2,9.3c0.4,1,1.7,1.6,2.4,2.5c1,1.4,1.7,3,2.6,4.7c4.2,0.5,3.6,0,4-3.9c0.7-6-2.8-8-7-10.2c-1.8-1-3.2-2.8-5.2-4.6
		C845,748.5,844.8,749.1,845,749.5z M641.9,722.7c-0.1,3,1.8,4.1,4.7,3.3c0.7-0.2,1.5,0.1,2.2,0.3c1.5,0.4,2.9,0.8,4.4,1.3
		c0.3-0.3,0.6-0.5,0.8-0.8c-1.2-2.7-2-5.7-3.7-8.1c-1.5-2-4-3.2-6.8-5.3C642.8,717.3,642,719.9,641.9,722.7z M355.3,734.9
		c-2.6-3.1-4.5-5.2-4.3-8.8c0.1-1.2-1.7-2.5-2.7-3.9c-2.8,4-2.5,6.6,0.5,9.7c0.9,0.9,2.3,1.9,2.5,3c1,5.2,3.1,3.5,6.3,1.8
		c3.9-2,0.6-4.5,1-6.6c0.2-1.1-0.8-2.5-1.3-3.8C354.5,727.3,354,728.7,355.3,734.9z M538.3,711.5c-0.6,2.7-1.1,5.1-1.8,8.7
		c2-1.3,2.8-1.8,3.3-2.1c1.2,2.5,2.2,4.8,3.4,7.1c0.4,0.7,1.2,1,1.9,1.5c0.4-0.8,1-1.5,1.1-2.3c0.5-2.3,0.8-4.7,1.2-7.4
		C544.6,715.4,541.7,713.6,538.3,711.5z M404.3,762.1c-0.4-0.1-0.7-0.3-1.1-0.4c-1,2.1-1.9,4.2-2.9,6.4c0.3,0.3,0.5,0.7,0.8,1
		c3-2.5,4.1-1.9,4.6,1.6c0.3,2.3,2,4.5,3.5,7.4c0.1,0,1.2-0.1,1.8-0.2c0.3-2.1,0.5-3.8,0.6-5.5c0.2-2,1-4.4,0.1-5.7
		c-0.8-1.2-3.4-1.1-5.3-1.6c-0.3,0.4-0.6,0.8-0.8,1.2C405.2,764.8,404.8,763.5,404.3,762.1z M452,791.2c-0.6,1.6-1.3,3.2-1.9,4.8
		c0.3,0.2,0.6,0.4,1,0.7c1-0.4,2.1-0.8,2.5-0.9c2.5,1.5,4.7,2.7,7.4,4.2c1.5-8.9-6.1-9.4-9.3-13.5c-0.5,0.3-0.9,0.6-1.4,0.8
		C450.8,788.7,451.5,790.1,452,791.2z M511.3,765.2c0.7,3.1,0.5,3.2,4,3.6c0.8-2.3,1.8-4.6,2.3-7c0.2-0.7-1.2-2.6-1.3-2.5
		c-3.3,1.3-4.2-0.8-5.2-3.3c-0.2-0.5-1.3-0.6-2.9-1.2C509.5,758.7,510.6,761.9,511.3,765.2z M358.9,704.7c2.5,0.9,4.5,1.7,6.9,2.5
		c0.3-3.1,0.5-5.2-3.1-4.9c-1.2,0.1-2.5-0.7-3.7-1c-5.3-1.3-6.8,0-7,6.8C355,706.6,357.4,705.4,358.9,704.7z M730.2,624
		c-0.5,0-1,0-1.4,0c-0.2,2-0.4,3.9-0.6,6.7c2-0.8,2.9-1.1,4.1-1.6c0.9,2.4,1.8,4.6,2.8,7.1c1.5-1.5,4.8,3.3,6-1.8
		c-2.5-0.9-4.9-1.5-5-4.9c0-0.9-2.6-1.7-4.6-2.9C731.2,626.4,730.7,625.2,730.2,624z M545.5,794.1c-1.2,0.4-2.2,0.7-4,1.3
		c1.6-2.2,2.6-3.8,4.2-6c-3,0.4-5.3,0.8-6.9,1c-0.3,3.3-0.5,5.7-0.8,8.3C543.1,800.5,543.9,800.1,545.5,794.1z M575.6,720.3
		c0.4,0.2,0.6,0.8,0.7,1.3c0.8,2.7,1.6,5.4,2.4,8.1c1.2-0.2,1.7-0.3,1.7-0.3c0-3.8,0.4-7.7-0.3-11.3c-0.3-1.5-3.1-2.6-5.4-4.2
		C574.2,716.1,572.1,718.5,575.6,720.3z M675.8,625.1c0.5,2,0.8,3,1.1,4.1c0.3,0.1,0.5,0.1,0.8,0.2c0.6-2.1,1.2-4.2,1.9-6.8
		c-1.7,0.1-2.8,0.2-4.1,0.3c-0.5-1.4-1.1-2.8-1.9-4.9c-1.7,2.9-4.8,4.4-1.6,8.1c1.1,1.2,0.2,4.1,0.2,6.3c0.3,0.1,0.6,0.3,0.9,0.4
		C673.8,630.4,674.6,628.2,675.8,625.1z M579.3,780.4c0.1-0.5,0.6-0.9,0.6-1.4c0.1-1.6,0.6-4.1,0-4.5c-1.5-0.8-3.5-0.5-5.3-0.6
		c0.3,1.7,0.6,3.4,0.8,5.1c0,0.3,0.1,0.5,0.1,1c-0.6,0.6-1.3,1.3-2.1,2C577.4,784.4,578.4,784.1,579.3,780.4z M413,797.1
		c0.5,0.2,1.1,0.3,1.6,0.5c1-4.1,1.9-8.2,3-12.7c-4.6,2.7-8.5,5-13.1,7.8c4.1,0,6.9,0,10.1,0C413.9,794.8,413.5,795.9,413,797.1z
		 M679.8,790.6c4.3-2.4,5.7-5.3,4-9.2c-0.6-1.4-2.4-2.2-3.7-3.3c-0.5,0.3-1,0.6-1.5,1C679,782.9,679.4,786.6,679.8,790.6z
		 M731.7,651.9c0.5-0.4,0.9-0.6,0.9-0.7c-1-3-2.1-5.9-3.8-8.9c0.6,5-4.1,4.6-6.6,6.9c2.8,0.7,4.6,5.1,7.4,0.3
		C730.4,650.5,731,651.2,731.7,651.9z M314.3,755.3c1.6-0.7,3-1.4,4.6-2.1c0-1.4,0.4-3.2-0.1-4.5c-0.5-1.2-2-2.1-3.1-3.1
		c-0.5,1-0.9,2-1.4,2.9c-0.7,1.1-1.4,2.2-2.3,3.4C312.6,752.8,313.5,754.1,314.3,755.3z M585.2,754.1c6.1-1.8,7.7-8.7,2.7-13.6
		C586.9,745.5,586.1,749.7,585.2,754.1z M394,776c-1.5,5.7-0.2,8.1,5.2,9.2c0.6,0.1,1.3-0.1,1.8-0.5c0.3-0.2,0.2-1.4,0-1.4
		c-4.3-1.5-2-5.4-2.8-7.9C396.6,775.6,395.3,775.8,394,776z M507.8,753.2c0.2-3.9-0.9-7-5.2-8.5
		C500.8,750.3,503.2,753.9,507.8,753.2z M604.9,772.9c-2.3-0.5-4.5-1.7-6.2-1.1c-1.4,0.4-2.1,2.9-3,4.6c-0.2,0.3,0.4,1.2,0.8,1.5
		c0.3,0.2,1-0.2,1.5-0.4c1-0.3,2-0.6,3.8-1.1C602.1,776,603.1,774.9,604.9,772.9z M626.9,764.7c-1,3.2-2.1,6-2.7,9
		c-0.2,0.8,1.3,2,2.4,3.7c1.2-3.6,2.2-6.3,3.2-9.2C628.9,767.1,628,765.9,626.9,764.7z M336.5,784.3c-0.1-0.8-1.6-1.5-2.6-1.7
		c-0.3-0.1-1.5,1.4-1.5,2.2c0,2.5,0.5,4.9,0.8,7.8C338.2,790.6,337.1,787.3,336.5,784.3z M710,790.6c-1.1-1.2-2-2.6-2.8-3.5
		c-1.1,3.6,0.1,7.7,4.1,11C714,794.7,711.9,792.7,710,790.6z M444.3,774.5c4.6,0.9,4.7-2.4,5.2-4.4c1.2-4.5-3.3-4-5.7-5.8
		C447.9,767.4,447.8,770.8,444.3,774.5z M425.2,748.1c-1,5-2,9.4-3,14.1C427.4,759.9,427.6,755.9,425.2,748.1z M340.2,692.2
		c2,0.2,3.9,0.3,6.3,0.5c-0.7-1.4-1.3-2.1-1.5-3c-1.6-5.7-1.7-5.8-7.1-1.1c1.4-0.2,2.2-0.3,2.9-0.4
		C340.6,689.6,340.4,690.9,340.2,692.2z M392.4,741.2c2.9-1.6,2.8-4.2,2.5-6.5c-0.1-0.4-3.1-0.5-4.8-0.7c-0.1,0.5-0.2,1-0.2,1.5
		C390.7,737.3,391.5,739.1,392.4,741.2z M388.4,800c1.2,0.4,2.3,0.9,3.5,1.1c0.9,0.2,2.1,0.5,2.8,0.1c0.6-0.3,1.3-1.7,1.1-2.3
		c-0.3-0.8-1.3-1.4-2.2-1.9c-1.2-0.6-2.4-1.1-3.8-1.6C389.4,796.8,388.9,798.5,388.4,800z M579,787.6c0.1-0.2-2.2-2-3.6-2.3
		c-2.4-0.5-2.5-0.3-2.3,4.4C575.9,791.2,577.8,790,579,787.6z M674,643.3c0.3-0.9-0.4-2.2-1-3.1c-0.2-0.3-1.8-0.1-2.3,0.3
		c-0.8,0.8-1.8,2-1.8,3c0.1,1.6,1,3.2,1.9,5.5C672.3,646.7,673.5,645.1,674,643.3z M719.2,787.8c4.6,2.8,9.7,2.8,11.2-0.2
		C726.6,788.3,723,783.5,719.2,787.8z M505.2,710.4c-0.8-2.3-1.6-4.4-2.5-6.5c-0.1-0.2-1.2,0.1-2,0.3c0.2,2.9,0.3,5.6,0.5,9.4
		C503.2,712,504.2,711.2,505.2,710.4z M711.3,760.9c-0.9-2.3-1.8-4.7-3.1-8.3c-1.1,4.3-2,7.8-3,11.8
		C707.7,763,709.5,761.9,711.3,760.9z M618.6,788c0.4,1.2,1.8,2,2.9,3c0.7-1.2,1.9-2.3,1.9-3.5c0-1-1.3-2.1-2.9-4.2
		C619.5,785.7,618.4,787.1,618.6,788z M744.5,761.5c-4.8,1.2-5.2,2.4-2.8,7.6c1.3-0.8,2.6-1.6,4-2.4
		C745.3,764.8,744.9,763.2,744.5,761.5z M667.8,638.8c-0.4-4-2.5-5.5-6.3-5.7C660.4,638.8,664.6,637.8,667.8,638.8z M365,713
		c0.2-0.5,0.4-0.9,0.6-1.4c-2-0.9-4-2.3-6.2-2.7c-1.1-0.2-2.4,1.6-3.6,2.5c0.2,0.4,0.4,0.7,0.6,1.1C359.3,712.7,362.2,712.9,365,713
		z M436.9,703.7c-0.4,0.3-0.3,1.4,0,2.1c0.1,0.2,1.4,0.4,1.7,0.1c2-1.8,4-3.6,5.9-5.5c0.3-0.3,0.1-1,0.2-1.5
		c-0.3-0.2-0.6-0.4-0.8-0.7C441.5,700,439.1,701.8,436.9,703.7z M508.6,721.2c0.4,2.1,0.4,3.7,1.1,5.1c0.6,1.3,1.8,2.4,2.9,3.8
		C515.1,727.5,513.8,723.8,508.6,721.2z M317.7,768.4c2.7-2.2,2.7-4.4-0.3-9c-0.9,1.2-1.7,2.4-2.2,3
		C316.1,764.7,316.9,766.6,317.7,768.4z M615.6,740.5c0.5-0.2,0.9-0.4,1.4-0.6c-1.2-3-2.4-6-3.7-9c-0.6,0.3-1.3,0.5-1.9,0.8
		C613.6,734.3,611.8,738.6,615.6,740.5z M558.8,749c-0.4,3.4-0.8,6.6-1.2,9.8c0.4,0.1,0.9,0.1,1.3,0.2
		C562.9,753.3,562.9,752.1,558.8,749z M695,646.6c1,0.7,1.9,1.3,2.9,2c-0.9,1.3-1.6,2.3-2.4,3.4c0.3,0.3,0.6,0.6,0.9,0.9
		c1.4-1.3,2.8-2.5,4.4-4C697.3,645.3,697.3,645.3,695,646.6z M659,610.5c-0.4,3,1.4,3.2,3.5,3.7c-0.4-2.3-0.7-4.2-1-6.2
		c-0.5-3.4-2-3.4-3.6-1.7C658.3,608,659.1,609.3,659,610.5z M435.9,740.5c-0.5,0.1-1,0.1-1.5,0.2c-0.3,3.1-2.4,6.4,2.3,9.5
		C436.4,746.3,436.2,743.4,435.9,740.5z M573.9,799.8c0.7-1.4,1.4-2.9,1.9-4c-2.6,0-4.9,0-7.7,0
		C567.7,798.3,567.7,798.3,573.9,799.8z M731.1,771.9c-0.4,0.2-0.8,0.4-1.3,0.6c0.8,1.5,1.6,3,2.4,4.4c1.3-1.1,2.6-2.3,3.9-3.4
		c-0.3-0.3-0.6-0.7-0.9-1c-0.9,0.6-1.8,1.1-2.7,1.8C732.1,773.5,731.6,772.7,731.1,771.9z M676.4,833.8c4.1-1.2,4.5-2.6,3.2-8
		C675.1,827.4,678.3,831.1,676.4,833.8z M771.4,679.1c-2-0.7-3.8-1.3-6.8-2.3c1.8,2.9,3.1,4.9,4.8,7.5
		C770.3,682,770.8,680.7,771.4,679.1z M740.1,795c0.7,1.1,1.7,2.1,2.7,2.7c0.3,0.2,2.1-1.4,2-1.7c-0.4-1.2-1.4-2.2-2.6-3.9
		C741.2,793.6,739.9,794.7,740.1,795z M544.2,697.9c-0.4,0-0.8,0-1.2,0.1c-0.1,2.1-0.5,4.2-0.3,6.2c0.1,0.6,1.6,1.1,2.5,1.6
		c0.4-0.3,0.7-0.7,1.1-1C545.6,702.5,544.9,700.2,544.2,697.9z M831.4,748.8c-0.9,2.4-2,4.2-1.8,5.8c0.1,1.1,2.1,2,3.3,3
		c0.2-0.2,0.5-0.4,0.7-0.7C833,754.6,832.3,752.3,831.4,748.8z M532.7,709c4.1,1.8,6.1,0.4,6.3-4.7C536.8,706,534.8,707.5,532.7,709
		z M825.7,788.8c-0.6,0-1.2,0-1.8,0c-0.4,1.5-1.1,3-1,4.5c0,0.6,1.7,1.1,3.7,2.4C826.2,792.5,825.9,790.7,825.7,788.8z M456.1,778.5
		c0.3-0.7,1-1.7,0.8-1.9c-1.3-1.6-2.7-3.5-6.6-0.7C452.7,777,454.4,777.8,456.1,778.5z M525.4,712.8c0.4-0.1,0.9-0.2,1.3-0.2
		c0.1-2.4,2.7-5.3-2.5-7.6C524.7,708.2,525.1,710.5,525.4,712.8z M478.9,766.1c-2,4.4-0.4,5.8,4.1,6.5
		C481.5,770.1,480.4,768.5,478.9,766.1z M591.8,765.3c1.2,1.1,2.1,2,3.9,3.7c0.3-2.5,0.5-4.3,0.7-6.1c-0.5-0.1-1-0.2-1.5-0.3
		C594,763.4,593,764.2,591.8,765.3z M322.1,778.8c-0.3,0.5,0.8,1.8,1.6,3.4c1.3-2.8,2.2-4.8,3.1-6.7c-0.4-0.3-0.8-0.6-1.2-0.9
		C324.4,776,323,777.3,322.1,778.8z M320.9,769.6c0.1,1.3,0.6,2.7,1.1,3.9c0.1,0.2,0.9,0.1,1.4,0.1c-0.1-0.9-0.3-1.7-0.4-2.6
		c-0.1-1,0-2,0-3c-0.3-0.1-0.6-0.1-0.9-0.2C321.7,768.5,320.9,769.1,320.9,769.6z M716.2,646.3c1.9-1,3.2-1.3,3.6-2
		c0.9-1.8,1.4-3.8,2.1-5.7c-0.5-0.1-1-0.2-1.5-0.3C719.2,640.6,718,642.8,716.2,646.3z M712.5,860.4c-0.5-1.3-0.9-2.4-1.5-4.2
		c-1.4,1.8-2.3,3.1-3.3,4.3c0.2,0.4,0.3,0.7,0.5,1.1C709.4,861.3,710.7,860.9,712.5,860.4z M663.4,617.8c-1.2,4.1,2.5,2.8,4.1,3.4
		c0.5,0.2,1.6-0.9,2.9-1.7C667.1,618.7,665.3,618.3,663.4,617.8z M514.6,737.9c1-2.2,1.8-3.6,2.7-5.6c-1.9,0-3.7,0-6.1,0
		C512.5,734.5,513.5,736,514.6,737.9z M781,814.5c3.5,0.9,4.8-1.2,3.6-6.7C783.3,810.3,782.1,812.4,781,814.5z M496.4,701.7
		c-2.2-0.2-3.7-0.4-5.5-0.6c-0.2,1.9-0.3,3.3-0.5,5.8C492.8,704.8,494.3,703.5,496.4,701.7z M838.6,768.3c0,4.5,0,4.5,5.4,1.2
		C842.2,769.1,840.5,768.7,838.6,768.3z M687,638.9c0.6,2,1.1,3.9,1.7,5.7c0.1,0.3,0.9,0.7,1.3,0.7c0.4,0,1-0.5,1.1-0.9
		c0.1-1,0.1-2.1,0.1-3.5C689.7,640.2,688.4,639.6,687,638.9z M305.7,812.9c1.1,0.6,2.1,1.1,3,1.6c0.5-1.8,1.1-3.5,1.6-5.3
		c-0.5-0.2-0.9-0.5-1.4-0.7C307.9,809.7,307,811.1,305.7,812.9z M569.2,713.8c0.6-1.8,1-4-2-4.4c-0.4,1.8-0.8,3.4-1.4,6.2
		C567.4,714.9,569,714.6,569.2,713.8z M584.5,717c2-0.4,4.1-0.9,6.1-1.3C585.5,713.3,585.5,713.3,584.5,717z M469.7,703.8
		c0,1.7,0,3.1,0,5.2c1.4-0.6,2.5-1.2,4.3-2C472.2,705.7,471.2,704.9,469.7,703.8z M635.5,715.5c0.1-0.2-1-1.3-1.5-2
		c-0.8,1.3-1.7,2.6-2.5,4c0.4,0.3,0.7,0.7,1.1,1C633.6,717.5,634.7,716.6,635.5,715.5z"/>
	<path class="st0" d="M754.7,830.8c-0.8,1.3-1.6,2.6-2.3,3.9c2.2,1.9,4.2,4.3,6.7,5.4c0.9,0.4,4-1.9,4.6-3.5c1.3-3.2,1.5-6.9,2.3-11
		c-2.4,2-6,1.2-6.9,5C759,831,756.2,830.8,754.7,830.8z"/>
	<path class="st0" d="M402.5,684.4c0.3-0.6,0.6-1.3,1-1.9c0.4-1.3,0.7-2.7,1.3-5c-2.3,1.1-3.9,1.9-5.5,2.7c0,0,0.1-0.1,0.1-0.1
		c0,2.2,0,4.4,0,6.6C400.7,685.7,401.6,685.1,402.5,684.4z"/>
	<path class="st0" d="M400.4,827.4c1.2-0.8,2.3-1.7,3.5-2.5c-0.5-0.5-1.3-1.5-1.5-1.4c-1.2,0.5-2.2,1.4-3.3,2.1
		C399.5,826.3,400,826.8,400.4,827.4z"/>
	<path class="st0" d="M726.4,850.9c0,5.1,0,5.1,2,6.3c0.5-1.6,0.9-3.2,1.5-5.2C728.7,851.6,727.5,851.3,726.4,850.9
		C726.3,851,726.4,850.9,726.4,850.9z"/>
	<path class="st0" d="M292.9,828c-2.8,0-5.7,0-8.5,0c-0.1,0.2-0.3,0.4-0.4,0.6c1.1,0.4,2.3,1.3,3.4,1.2
		C289.3,829.5,291.1,828.6,292.9,828C293,828,292.9,828,292.9,828z"/>
	<path class="st0" d="M327.5,830c-2.4-0.2-4-0.4-5.8-0.5C323.2,832.9,324.3,833.1,327.5,830z"/>
	<path class="st0" d="M800.3,687.6c0.8-1.1,1.5-2.3,2.3-3.4c0.3,0.1,0.7,0.2,1,0.4c-0.4-1.1-0.9-2.1-1.3-3.2
		C798.5,683,798.2,684,800.3,687.6C800.4,687.5,800.3,687.6,800.3,687.6z"/>
	<path class="st0" d="M393.9,707.5c1.5-0.8,3.1-1.5,4.6-2.3c0.3,0.3,0.5,0.5,0.8,0.8c-0.5,1.3-1,2.5-1.6,4.2c1.6,1,3.2,2.1,4.8,3
		c0.7-0.8,1.6-2.4,2.1-2.3c1.2,0.3,2.1,1.4,3.4,2.4c1.5-0.8,3.3-1.8,5.4-2.9c-0.4-1-0.8-2.1-1.2-3c-0.5-0.2-0.9-0.4-1-0.3
		c-3.2,1.5-5.7,0.6-8.1-1.9c-1.1-1.1-3.3-1.9-4.8-1.6c-2,0.4-3.7,1.9-5.6,2.9C393.2,706.8,393.6,707.1,393.9,707.5z"/>
	<path class="st0" d="M412.1,726.9c1.4,1.1,2.1,2.1,2.8,2c0.8-0.1,1.5-1.1,2.2-1.7c-0.7-0.8-1.2-1.9-2.1-2.2
		C414.6,724.8,413.6,725.9,412.1,726.9z"/>
	<path class="st0" d="M408.2,731.4c1.4-0.2,2.8-0.3,5.5-0.6c-1.8-1.5-2.8-2.3-3.8-3.2C409.4,728.9,408.8,730.2,408.2,731.4
		C408.3,731.5,408.2,731.4,408.2,731.4z"/>
	<path class="st0" d="M406.8,720c1.4,0.6,2.8,1.2,4.3,1.9c0.3-0.5,0.5-1,0.8-1.4c-1.3-0.8-2.6-1.6-3.9-2.4
		C407.5,718.7,407.2,719.4,406.8,720z"/>
	<path class="st0" d="M463.6,745.2c-0.2-0.6-0.5-1.3-0.4-1.1c2-1.8,3.8-3.4,5.5-5c-0.3-0.4-0.6-0.7-0.9-1.1
		c-0.8,0.7-1.6,1.4-1.7,1.5c-1.5-1.1-2.9-2.2-5.3-4c-0.9,1.2-1.8,2.2-3,3.7c2.7,1.4,4.9,2.7,2.3,5.9
		C461.7,745.2,462.6,745.2,463.6,745.2C463.6,745.2,463.6,745.2,463.6,745.2z"/>
</g>
</svg>
